<svg width="65" height="13" viewBox="0 0 65 13" fill="none" xmlns="http://www.w3.org/2000/svg">
<path d="M10.484 9.706C10.484 10.222 10.376 10.684 10.16 11.092C9.956 11.5 9.674 11.848 9.314 12.136C8.966 12.412 8.552 12.628 8.072 12.784C7.592 12.928 7.082 13 6.542 13H0.44V0.219999H7.028C7.472 0.219999 7.874 0.316 8.234 0.508C8.594 0.7 8.9 0.952 9.152 1.264C9.404 1.564 9.596 1.912 9.728 2.308C9.872 2.692 9.944 3.082 9.944 3.478C9.944 4.102 9.782 4.69 9.458 5.242C9.146 5.782 8.696 6.184 8.108 6.448C8.84 6.664 9.416 7.06 9.836 7.636C10.268 8.2 10.484 8.89 10.484 9.706ZM8.414 9.328C8.414 9.064 8.366 8.812 8.27 8.572C8.186 8.332 8.066 8.122 7.91 7.942C7.766 7.762 7.586 7.618 7.37 7.51C7.154 7.402 6.92 7.348 6.668 7.348H2.456V11.254H6.542C6.806 11.254 7.052 11.206 7.28 11.11C7.508 11.002 7.706 10.864 7.874 10.696C8.042 10.516 8.174 10.312 8.27 10.084C8.366 9.844 8.414 9.592 8.414 9.328ZM2.456 1.966V5.728H6.164C6.416 5.728 6.644 5.68 6.848 5.584C7.064 5.488 7.25 5.362 7.406 5.206C7.574 5.038 7.7 4.84 7.784 4.612C7.88 4.384 7.928 4.132 7.928 3.856C7.928 3.304 7.772 2.854 7.46 2.506C7.148 2.146 6.752 1.966 6.272 1.966H2.456ZM13.4865 13V0.219999H19.0485C19.6245 0.219999 20.1525 0.339999 20.6325 0.579999C21.1245 0.819999 21.5445 1.138 21.8925 1.534C22.2405 1.918 22.5105 2.362 22.7025 2.866C22.9065 3.358 23.0085 3.862 23.0085 4.378C23.0085 4.81 22.9485 5.224 22.8285 5.62C22.7085 6.016 22.5405 6.382 22.3245 6.718C22.1085 7.054 21.8445 7.348 21.5325 7.6C21.2205 7.84 20.8785 8.02 20.5065 8.14L23.5125 13H21.2265L18.4545 8.554H15.5025V13H13.4865ZM15.5025 6.772H19.0305C19.3185 6.772 19.5765 6.712 19.8045 6.592C20.0445 6.46 20.2485 6.286 20.4165 6.07C20.5845 5.842 20.7165 5.584 20.8125 5.296C20.9085 5.008 20.9565 4.702 20.9565 4.378C20.9565 4.054 20.8965 3.748 20.7765 3.46C20.6685 3.172 20.5185 2.92 20.3265 2.704C20.1465 2.488 19.9305 2.32 19.6785 2.2C19.4385 2.068 19.1865 2.002 18.9225 2.002H15.5025V6.772ZM29.8555 0.219999H31.6195L36.6595 13H34.5355L33.1855 9.526H28.2535L26.9215 13H24.7795L29.8555 0.219999ZM32.7895 8.032L30.7375 2.542L28.6135 8.032H32.7895ZM41.156 4V13H39.14V0.219999H40.724L48.032 9.436V0.237999H50.066V13H48.392L41.156 4ZM53.8388 13V0.219999H58.3748C59.4068 0.219999 60.3068 0.387999 61.0748 0.723999C61.8548 1.06 62.5028 1.516 63.0188 2.092C63.5468 2.668 63.9428 3.346 64.2068 4.126C64.4708 4.894 64.6028 5.716 64.6028 6.592C64.6028 7.564 64.4528 8.446 64.1528 9.238C63.8648 10.018 63.4508 10.69 62.9108 11.254C62.3708 11.806 61.7168 12.238 60.9488 12.55C60.1808 12.85 59.3228 13 58.3748 13H53.8388ZM62.5508 6.592C62.5508 5.92 62.4548 5.302 62.2628 4.738C62.0828 4.174 61.8128 3.694 61.4528 3.298C61.0928 2.89 60.6548 2.572 60.1388 2.344C59.6228 2.116 59.0348 2.002 58.3748 2.002H55.8548V11.218H58.3748C59.0468 11.218 59.6408 11.104 60.1568 10.876C60.6848 10.636 61.1228 10.312 61.4708 9.904C61.8308 9.484 62.1008 8.992 62.2808 8.428C62.4608 7.864 62.5508 7.252 62.5508 6.592Z" fill="#1F1F21"/>
<path d="M10.484 9.706C10.484 10.222 10.376 10.684 10.16 11.092C9.956 11.5 9.674 11.848 9.314 12.136C8.966 12.412 8.552 12.628 8.072 12.784C7.592 12.928 7.082 13 6.542 13H0.44V0.219999H7.028C7.472 0.219999 7.874 0.316 8.234 0.508C8.594 0.7 8.9 0.952 9.152 1.264C9.404 1.564 9.596 1.912 9.728 2.308C9.872 2.692 9.944 3.082 9.944 3.478C9.944 4.102 9.782 4.69 9.458 5.242C9.146 5.782 8.696 6.184 8.108 6.448C8.84 6.664 9.416 7.06 9.836 7.636C10.268 8.2 10.484 8.89 10.484 9.706ZM8.414 9.328C8.414 9.064 8.366 8.812 8.27 8.572C8.186 8.332 8.066 8.122 7.91 7.942C7.766 7.762 7.586 7.618 7.37 7.51C7.154 7.402 6.92 7.348 6.668 7.348H2.456V11.254H6.542C6.806 11.254 7.052 11.206 7.28 11.11C7.508 11.002 7.706 10.864 7.874 10.696C8.042 10.516 8.174 10.312 8.27 10.084C8.366 9.844 8.414 9.592 8.414 9.328ZM2.456 1.966V5.728H6.164C6.416 5.728 6.644 5.68 6.848 5.584C7.064 5.488 7.25 5.362 7.406 5.206C7.574 5.038 7.7 4.84 7.784 4.612C7.88 4.384 7.928 4.132 7.928 3.856C7.928 3.304 7.772 2.854 7.46 2.506C7.148 2.146 6.752 1.966 6.272 1.966H2.456ZM13.4865 13V0.219999H19.0485C19.6245 0.219999 20.1525 0.339999 20.6325 0.579999C21.1245 0.819999 21.5445 1.138 21.8925 1.534C22.2405 1.918 22.5105 2.362 22.7025 2.866C22.9065 3.358 23.0085 3.862 23.0085 4.378C23.0085 4.81 22.9485 5.224 22.8285 5.62C22.7085 6.016 22.5405 6.382 22.3245 6.718C22.1085 7.054 21.8445 7.348 21.5325 7.6C21.2205 7.84 20.8785 8.02 20.5065 8.14L23.5125 13H21.2265L18.4545 8.554H15.5025V13H13.4865ZM15.5025 6.772H19.0305C19.3185 6.772 19.5765 6.712 19.8045 6.592C20.0445 6.46 20.2485 6.286 20.4165 6.07C20.5845 5.842 20.7165 5.584 20.8125 5.296C20.9085 5.008 20.9565 4.702 20.9565 4.378C20.9565 4.054 20.8965 3.748 20.7765 3.46C20.6685 3.172 20.5185 2.92 20.3265 2.704C20.1465 2.488 19.9305 2.32 19.6785 2.2C19.4385 2.068 19.1865 2.002 18.9225 2.002H15.5025V6.772ZM29.8555 0.219999H31.6195L36.6595 13H34.5355L33.1855 9.526H28.2535L26.9215 13H24.7795L29.8555 0.219999ZM32.7895 8.032L30.7375 2.542L28.6135 8.032H32.7895ZM41.156 4V13H39.14V0.219999H40.724L48.032 9.436V0.237999H50.066V13H48.392L41.156 4ZM53.8388 13V0.219999H58.3748C59.4068 0.219999 60.3068 0.387999 61.0748 0.723999C61.8548 1.06 62.5028 1.516 63.0188 2.092C63.5468 2.668 63.9428 3.346 64.2068 4.126C64.4708 4.894 64.6028 5.716 64.6028 6.592C64.6028 7.564 64.4528 8.446 64.1528 9.238C63.8648 10.018 63.4508 10.69 62.9108 11.254C62.3708 11.806 61.7168 12.238 60.9488 12.55C60.1808 12.85 59.3228 13 58.3748 13H53.8388ZM62.5508 6.592C62.5508 5.92 62.4548 5.302 62.2628 4.738C62.0828 4.174 61.8128 3.694 61.4528 3.298C61.0928 2.89 60.6548 2.572 60.1388 2.344C59.6228 2.116 59.0348 2.002 58.3748 2.002H55.8548V11.218H58.3748C59.0468 11.218 59.6408 11.104 60.1568 10.876C60.6848 10.636 61.1228 10.312 61.4708 9.904C61.8308 9.484 62.1008 8.992 62.2808 8.428C62.4608 7.864 62.5508 7.252 62.5508 6.592Z" fill="black" fill-opacity="0.2"/>
<path d="M10.484 9.706C10.484 10.222 10.376 10.684 10.16 11.092C9.956 11.5 9.674 11.848 9.314 12.136C8.966 12.412 8.552 12.628 8.072 12.784C7.592 12.928 7.082 13 6.542 13H0.44V0.219999H7.028C7.472 0.219999 7.874 0.316 8.234 0.508C8.594 0.7 8.9 0.952 9.152 1.264C9.404 1.564 9.596 1.912 9.728 2.308C9.872 2.692 9.944 3.082 9.944 3.478C9.944 4.102 9.782 4.69 9.458 5.242C9.146 5.782 8.696 6.184 8.108 6.448C8.84 6.664 9.416 7.06 9.836 7.636C10.268 8.2 10.484 8.89 10.484 9.706ZM8.414 9.328C8.414 9.064 8.366 8.812 8.27 8.572C8.186 8.332 8.066 8.122 7.91 7.942C7.766 7.762 7.586 7.618 7.37 7.51C7.154 7.402 6.92 7.348 6.668 7.348H2.456V11.254H6.542C6.806 11.254 7.052 11.206 7.28 11.11C7.508 11.002 7.706 10.864 7.874 10.696C8.042 10.516 8.174 10.312 8.27 10.084C8.366 9.844 8.414 9.592 8.414 9.328ZM2.456 1.966V5.728H6.164C6.416 5.728 6.644 5.68 6.848 5.584C7.064 5.488 7.25 5.362 7.406 5.206C7.574 5.038 7.7 4.84 7.784 4.612C7.88 4.384 7.928 4.132 7.928 3.856C7.928 3.304 7.772 2.854 7.46 2.506C7.148 2.146 6.752 1.966 6.272 1.966H2.456ZM13.4865 13V0.219999H19.0485C19.6245 0.219999 20.1525 0.339999 20.6325 0.579999C21.1245 0.819999 21.5445 1.138 21.8925 1.534C22.2405 1.918 22.5105 2.362 22.7025 2.866C22.9065 3.358 23.0085 3.862 23.0085 4.378C23.0085 4.81 22.9485 5.224 22.8285 5.62C22.7085 6.016 22.5405 6.382 22.3245 6.718C22.1085 7.054 21.8445 7.348 21.5325 7.6C21.2205 7.84 20.8785 8.02 20.5065 8.14L23.5125 13H21.2265L18.4545 8.554H15.5025V13H13.4865ZM15.5025 6.772H19.0305C19.3185 6.772 19.5765 6.712 19.8045 6.592C20.0445 6.46 20.2485 6.286 20.4165 6.07C20.5845 5.842 20.7165 5.584 20.8125 5.296C20.9085 5.008 20.9565 4.702 20.9565 4.378C20.9565 4.054 20.8965 3.748 20.7765 3.46C20.6685 3.172 20.5185 2.92 20.3265 2.704C20.1465 2.488 19.9305 2.32 19.6785 2.2C19.4385 2.068 19.1865 2.002 18.9225 2.002H15.5025V6.772ZM29.8555 0.219999H31.6195L36.6595 13H34.5355L33.1855 9.526H28.2535L26.9215 13H24.7795L29.8555 0.219999ZM32.7895 8.032L30.7375 2.542L28.6135 8.032H32.7895ZM41.156 4V13H39.14V0.219999H40.724L48.032 9.436V0.237999H50.066V13H48.392L41.156 4ZM53.8388 13V0.219999H58.3748C59.4068 0.219999 60.3068 0.387999 61.0748 0.723999C61.8548 1.06 62.5028 1.516 63.0188 2.092C63.5468 2.668 63.9428 3.346 64.2068 4.126C64.4708 4.894 64.6028 5.716 64.6028 6.592C64.6028 7.564 64.4528 8.446 64.1528 9.238C63.8648 10.018 63.4508 10.69 62.9108 11.254C62.3708 11.806 61.7168 12.238 60.9488 12.55C60.1808 12.85 59.3228 13 58.3748 13H53.8388ZM62.5508 6.592C62.5508 5.92 62.4548 5.302 62.2628 4.738C62.0828 4.174 61.8128 3.694 61.4528 3.298C61.0928 2.89 60.6548 2.572 60.1388 2.344C59.6228 2.116 59.0348 2.002 58.3748 2.002H55.8548V11.218H58.3748C59.0468 11.218 59.6408 11.104 60.1568 10.876C60.6848 10.636 61.1228 10.312 61.4708 9.904C61.8308 9.484 62.1008 8.992 62.2808 8.428C62.4608 7.864 62.5508 7.252 62.5508 6.592Z" fill="black" fill-opacity="0.2"/>
</svg>
