<svg width="708" height="56" viewBox="0 0 708 56" fill="none" xmlns="http://www.w3.org/2000/svg">
<path d="M12 35L19 28L12 21M19 28L5 28" stroke="#AC643E" stroke-width="2" stroke-linecap="round" stroke-linejoin="round"/>
<path d="M43.5 35.1C42.4867 35.1 41.56 34.9 40.72 34.5C39.8933 34.0867 39.18 33.5467 38.58 32.88C37.98 32.2 37.5133 31.4267 37.18 30.56C36.86 29.6933 36.7 28.8067 36.7 27.9C36.7 26.9533 36.8733 26.0467 37.22 25.18C37.5667 24.3133 38.04 23.5467 38.64 22.88C39.2533 22.2133 39.9733 21.6867 40.8 21.3C41.64 20.9 42.5533 20.7 43.54 20.7C44.5533 20.7 45.4733 20.9133 46.3 21.34C47.14 21.7533 47.8533 22.3 48.44 22.98C49.04 23.66 49.5 24.4333 49.82 25.3C50.1533 26.1533 50.32 27.0267 50.32 27.92C50.32 28.8667 50.1467 29.7733 49.8 30.64C49.4667 31.5067 48.9933 32.2733 48.38 32.94C47.7667 33.5933 47.04 34.12 46.2 34.52C45.3733 34.9067 44.4733 35.1 43.5 35.1ZM38.98 27.9C38.98 28.5667 39.0867 29.2133 39.3 29.84C39.5133 30.4667 39.8133 31.02 40.2 31.5C40.6 31.98 41.08 32.3667 41.64 32.66C42.2 32.94 42.8267 33.08 43.52 33.08C44.24 33.08 44.8733 32.9333 45.42 32.64C45.98 32.3333 46.4533 31.9333 46.84 31.44C47.2267 30.9467 47.52 30.3933 47.72 29.78C47.92 29.1667 48.02 28.54 48.02 27.9C48.02 27.22 47.9133 26.5733 47.7 25.96C47.4867 25.3333 47.18 24.7867 46.78 24.32C46.3933 23.84 45.92 23.46 45.36 23.18C44.8133 22.8867 44.2 22.74 43.52 22.74C42.8 22.74 42.16 22.8933 41.6 23.2C41.04 23.4933 40.5667 23.88 40.18 24.36C39.7933 24.84 39.4933 25.3933 39.28 26.02C39.08 26.6333 38.98 27.26 38.98 27.9ZM59.5591 33.08C60.3057 33.08 60.9257 32.9333 61.4191 32.64C61.9124 32.3467 62.3057 31.9667 62.5991 31.5C62.9057 31.02 63.1191 30.48 63.2391 29.88C63.3724 29.2667 63.4391 28.64 63.4391 28V20.8H65.6991V28C65.6991 28.9733 65.5857 29.8933 65.3591 30.76C65.1324 31.6133 64.7724 32.3667 64.2791 33.02C63.7857 33.66 63.1457 34.1667 62.3591 34.54C61.5857 34.9133 60.6524 35.1 59.5591 35.1C58.4257 35.1 57.4657 34.9067 56.6791 34.52C55.9057 34.12 55.2791 33.5933 54.7991 32.94C54.3191 32.2733 53.9724 31.5133 53.7591 30.66C53.5457 29.8067 53.4391 28.92 53.4391 28V20.8H55.6791V28C55.6791 28.6533 55.7391 29.2867 55.8591 29.9C55.9924 30.5 56.2057 31.04 56.4991 31.52C56.8057 31.9867 57.2057 32.3667 57.6991 32.66C58.2057 32.94 58.8257 33.08 59.5591 33.08ZM69.6781 35V20.8H75.8581C76.4981 20.8 77.0848 20.9333 77.6181 21.2C78.1648 21.4667 78.6315 21.82 79.0181 22.26C79.4048 22.6867 79.7048 23.18 79.9181 23.74C80.1448 24.2867 80.2581 24.8467 80.2581 25.42C80.2581 25.9 80.1915 26.36 80.0581 26.8C79.9248 27.24 79.7381 27.6467 79.4981 28.02C79.2581 28.3933 78.9648 28.72 78.6181 29C78.2715 29.2667 77.8915 29.4667 77.4781 29.6L80.8181 35H78.2781L75.1981 30.06H71.9181V35H69.6781ZM71.9181 28.08H75.8381C76.1581 28.08 76.4448 28.0133 76.6981 27.88C76.9648 27.7333 77.1915 27.54 77.3781 27.3C77.5648 27.0467 77.7115 26.76 77.8181 26.44C77.9248 26.12 77.9781 25.78 77.9781 25.42C77.9781 25.06 77.9115 24.72 77.7781 24.4C77.6581 24.08 77.4915 23.8 77.2781 23.56C77.0781 23.32 76.8381 23.1333 76.5581 23C76.2915 22.8533 76.0115 22.78 75.7181 22.78H71.9181V28.08ZM89.8422 35V20.8H92.0822V35H89.8422ZM98.5314 25V35H96.2914V20.8H98.0514L106.171 31.04V20.82H108.431V35H106.571L98.5314 25ZM121.023 24.14C120.89 23.9933 120.697 23.84 120.443 23.68C120.19 23.5067 119.89 23.3467 119.543 23.2C119.21 23.0533 118.837 22.9333 118.423 22.84C118.023 22.7467 117.61 22.7 117.183 22.7C116.237 22.7 115.537 22.8733 115.083 23.22C114.643 23.5667 114.423 24.0467 114.423 24.66C114.423 25.0067 114.49 25.2933 114.623 25.52C114.77 25.7333 114.99 25.9267 115.283 26.1C115.577 26.26 115.943 26.4067 116.383 26.54C116.823 26.66 117.337 26.7933 117.923 26.94C118.643 27.1133 119.29 27.3067 119.863 27.52C120.45 27.7333 120.943 27.9933 121.343 28.3C121.743 28.6067 122.05 28.9867 122.263 29.44C122.49 29.88 122.603 30.42 122.603 31.06C122.603 31.78 122.463 32.4 122.183 32.92C121.917 33.44 121.543 33.8667 121.063 34.2C120.597 34.52 120.05 34.76 119.423 34.92C118.797 35.0667 118.123 35.14 117.403 35.14C116.323 35.14 115.277 34.98 114.263 34.66C113.263 34.3267 112.357 33.8467 111.543 33.22L112.563 31.3C112.737 31.4733 112.983 31.6667 113.303 31.88C113.637 32.0933 114.017 32.2933 114.443 32.48C114.883 32.6533 115.357 32.8067 115.863 32.94C116.37 33.06 116.897 33.12 117.443 33.12C118.323 33.12 119.003 32.9667 119.483 32.66C119.963 32.3533 120.203 31.9 120.203 31.3C120.203 30.94 120.11 30.64 119.923 30.4C119.75 30.16 119.497 29.9533 119.163 29.78C118.83 29.5933 118.423 29.4267 117.943 29.28C117.463 29.1333 116.917 28.98 116.303 28.82C115.597 28.6333 114.977 28.44 114.443 28.24C113.923 28.0267 113.49 27.7733 113.143 27.48C112.797 27.1867 112.53 26.8467 112.343 26.46C112.17 26.06 112.083 25.58 112.083 25.02C112.083 24.3267 112.217 23.7133 112.483 23.18C112.75 22.6333 113.11 22.18 113.563 21.82C114.03 21.4467 114.577 21.1667 115.203 20.98C115.83 20.7933 116.51 20.7 117.243 20.7C118.203 20.7 119.09 20.8533 119.903 21.16C120.717 21.4667 121.43 21.8467 122.043 22.3L121.023 24.14ZM136.172 22.78H131.452V35H129.192V22.78H124.452V20.8H136.172V22.78ZM141.85 20.8H143.81L149.41 35H147.05L145.55 31.14H140.07L138.59 35H136.21L141.85 20.8ZM145.11 29.48L142.83 23.38L140.47 29.48H145.11ZM161.579 33.24C160.379 34.48 158.999 35.1 157.439 35.1C156.492 35.1 155.612 34.9067 154.799 34.52C153.986 34.12 153.279 33.5867 152.679 32.92C152.079 32.2533 151.606 31.48 151.259 30.6C150.926 29.72 150.759 28.8 150.759 27.84C150.759 26.88 150.926 25.9667 151.259 25.1C151.606 24.2333 152.079 23.4733 152.679 22.82C153.279 22.1667 153.992 21.6533 154.819 21.28C155.646 20.8933 156.546 20.7 157.519 20.7C158.879 20.7 160.019 20.9867 160.939 21.56C161.859 22.12 162.552 22.8667 163.019 23.8L161.299 25.04C160.912 24.2667 160.379 23.6867 159.699 23.3C159.019 22.9133 158.272 22.72 157.459 22.72C156.792 22.72 156.186 22.8667 155.639 23.16C155.092 23.44 154.626 23.82 154.239 24.3C153.852 24.7667 153.552 25.3133 153.339 25.94C153.139 26.5667 153.039 27.22 153.039 27.9C153.039 28.62 153.152 29.2933 153.379 29.92C153.619 30.5467 153.939 31.0933 154.339 31.56C154.752 32.0267 155.239 32.4 155.799 32.68C156.359 32.9467 156.966 33.08 157.619 33.08C158.339 33.08 159.026 32.9133 159.679 32.58C160.346 32.2467 160.979 31.72 161.579 31V29.48H158.599V27.82H163.459V35H161.579V33.24ZM167.014 35V20.8H173.194C173.834 20.8 174.421 20.9333 174.954 21.2C175.501 21.4667 175.967 21.82 176.354 22.26C176.741 22.6867 177.041 23.18 177.254 23.74C177.481 24.2867 177.594 24.8467 177.594 25.42C177.594 25.9 177.527 26.36 177.394 26.8C177.261 27.24 177.074 27.6467 176.834 28.02C176.594 28.3933 176.301 28.72 175.954 29C175.607 29.2667 175.227 29.4667 174.814 29.6L178.154 35H175.614L172.534 30.06H169.254V35H167.014ZM169.254 28.08H173.174C173.494 28.08 173.781 28.0133 174.034 27.88C174.301 27.7333 174.527 27.54 174.714 27.3C174.901 27.0467 175.047 26.76 175.154 26.44C175.261 26.12 175.314 25.78 175.314 25.42C175.314 25.06 175.247 24.72 175.114 24.4C174.994 24.08 174.827 23.8 174.614 23.56C174.414 23.32 174.174 23.1333 173.894 23C173.627 22.8533 173.347 22.78 173.054 22.78H169.254V28.08ZM185.202 20.8H187.162L192.762 35H190.402L188.902 31.14H183.422L181.942 35H179.562L185.202 20.8ZM188.462 29.48L186.182 23.38L183.822 29.48H188.462ZM207.458 35V24.78L203.238 32.52H201.998L197.758 24.78V35H195.518V20.8H197.918L202.618 29.48L207.318 20.8H209.718V35H207.458Z" fill="#AC643E"/>
</svg>
