<svg width="290" height="56" viewBox="0 0 290 56" fill="none" xmlns="http://www.w3.org/2000/svg">
<path d="M12 35L19 28L12 21M19 28L5 28" stroke="#AC643E" stroke-width="2" stroke-linecap="round" stroke-linejoin="round"/>
<path d="M38.5 20.8L42.78 32.18L47.04 20.8H49.42L43.74 35H41.82L36.12 20.8H38.5ZM52.1547 35V20.8H54.3947V35H52.1547ZM68.3439 33.02V35H58.6039V20.8H68.1639V22.78H60.8439V26.82H67.1839V28.68H60.8439V33.02H68.3439ZM76.6947 20.86H78.8147L80.5547 25.68L82.3147 20.86H84.4147L81.9947 27.18L84.1147 32.4L88.5347 20.8H90.9947L85.1347 35H83.2147L80.5747 28.64L77.9147 35H75.9947L70.1347 20.8H72.5747L77.0147 32.4L79.1347 27.18L76.6947 20.86ZM102.483 20.8H104.443L110.043 35H107.683L106.183 31.14H100.703L99.2231 35H96.8431L102.483 20.8ZM105.743 29.48L103.463 23.38L101.103 29.48H105.743ZM112.799 35V20.8H115.039V33.02H122.659V35H112.799ZM125.479 35V20.8H127.719V33.02H135.339V35H125.479ZM142.653 27.8C142.653 26.9467 142.806 26.1 143.113 25.26C143.42 24.4067 143.866 23.6467 144.453 22.98C145.053 22.3 145.78 21.7533 146.633 21.34C147.486 20.9267 148.453 20.72 149.533 20.72C150.826 20.72 151.933 21.0067 152.853 21.58C153.773 22.1533 154.466 22.9 154.933 23.82L153.173 25C152.973 24.5733 152.733 24.2133 152.453 23.92C152.173 23.6267 151.866 23.3933 151.533 23.22C151.2 23.0467 150.853 22.9267 150.493 22.86C150.133 22.78 149.786 22.74 149.453 22.74C148.706 22.74 148.053 22.8933 147.493 23.2C146.933 23.4933 146.46 23.8867 146.073 24.38C145.7 24.8733 145.413 25.4267 145.213 26.04C145.026 26.6533 144.933 27.2667 144.933 27.88C144.933 28.5733 145.046 29.2333 145.273 29.86C145.5 30.4867 145.813 31.04 146.213 31.52C146.626 32 147.113 32.3867 147.673 32.68C148.233 32.96 148.846 33.1 149.513 33.1C149.86 33.1 150.213 33.06 150.573 32.98C150.946 32.8867 151.3 32.7467 151.633 32.56C151.98 32.36 152.293 32.1133 152.573 31.82C152.866 31.5267 153.106 31.1733 153.293 30.76L155.153 31.82C154.926 32.3533 154.606 32.8267 154.193 33.24C153.78 33.64 153.313 33.98 152.793 34.26C152.273 34.54 151.72 34.7533 151.133 34.9C150.56 35.0467 149.993 35.12 149.433 35.12C148.433 35.12 147.52 34.9067 146.693 34.48C145.866 34.0533 145.153 33.5 144.553 32.82C143.953 32.1267 143.486 31.3467 143.153 30.48C142.82 29.6 142.653 28.7067 142.653 27.8ZM163.988 35.1C162.975 35.1 162.048 34.9 161.208 34.5C160.382 34.0867 159.668 33.5467 159.068 32.88C158.468 32.2 158.002 31.4267 157.668 30.56C157.348 29.6933 157.188 28.8067 157.188 27.9C157.188 26.9533 157.362 26.0467 157.708 25.18C158.055 24.3133 158.528 23.5467 159.128 22.88C159.742 22.2133 160.462 21.6867 161.288 21.3C162.128 20.9 163.042 20.7 164.028 20.7C165.042 20.7 165.962 20.9133 166.788 21.34C167.628 21.7533 168.342 22.3 168.928 22.98C169.528 23.66 169.988 24.4333 170.308 25.3C170.642 26.1533 170.808 27.0267 170.808 27.92C170.808 28.8667 170.635 29.7733 170.288 30.64C169.955 31.5067 169.482 32.2733 168.868 32.94C168.255 33.5933 167.528 34.12 166.688 34.52C165.862 34.9067 164.962 35.1 163.988 35.1ZM159.468 27.9C159.468 28.5667 159.575 29.2133 159.788 29.84C160.002 30.4667 160.302 31.02 160.688 31.5C161.088 31.98 161.568 32.3667 162.128 32.66C162.688 32.94 163.315 33.08 164.008 33.08C164.728 33.08 165.362 32.9333 165.908 32.64C166.468 32.3333 166.942 31.9333 167.328 31.44C167.715 30.9467 168.008 30.3933 168.208 29.78C168.408 29.1667 168.508 28.54 168.508 27.9C168.508 27.22 168.402 26.5733 168.188 25.96C167.975 25.3333 167.668 24.7867 167.268 24.32C166.882 23.84 166.408 23.46 165.848 23.18C165.302 22.8867 164.688 22.74 164.008 22.74C163.288 22.74 162.648 22.8933 162.088 23.2C161.528 23.4933 161.055 23.88 160.668 24.36C160.282 24.84 159.982 25.3933 159.768 26.02C159.568 26.6333 159.468 27.26 159.468 27.9ZM174.127 35V20.8H176.367V33.02H183.987V35H174.127ZM186.807 35V20.8H189.047V33.02H196.667V35H186.807ZM209.227 33.02V35H199.487V20.8H209.047V22.78H201.727V26.82H208.067V28.68H201.727V33.02H209.227ZM211.345 27.8C211.345 26.9467 211.498 26.1 211.805 25.26C212.111 24.4067 212.558 23.6467 213.145 22.98C213.745 22.3 214.471 21.7533 215.325 21.34C216.178 20.9267 217.145 20.72 218.225 20.72C219.518 20.72 220.625 21.0067 221.545 21.58C222.465 22.1533 223.158 22.9 223.625 23.82L221.865 25C221.665 24.5733 221.425 24.2133 221.145 23.92C220.865 23.6267 220.558 23.3933 220.225 23.22C219.891 23.0467 219.545 22.9267 219.185 22.86C218.825 22.78 218.478 22.74 218.145 22.74C217.398 22.74 216.745 22.8933 216.185 23.2C215.625 23.4933 215.151 23.8867 214.765 24.38C214.391 24.8733 214.105 25.4267 213.905 26.04C213.718 26.6533 213.625 27.2667 213.625 27.88C213.625 28.5733 213.738 29.2333 213.965 29.86C214.191 30.4867 214.505 31.04 214.905 31.52C215.318 32 215.805 32.3867 216.365 32.68C216.925 32.96 217.538 33.1 218.205 33.1C218.551 33.1 218.905 33.06 219.265 32.98C219.638 32.8867 219.991 32.7467 220.325 32.56C220.671 32.36 220.985 32.1133 221.265 31.82C221.558 31.5267 221.798 31.1733 221.985 30.76L223.845 31.82C223.618 32.3533 223.298 32.8267 222.885 33.24C222.471 33.64 222.005 33.98 221.485 34.26C220.965 34.54 220.411 34.7533 219.825 34.9C219.251 35.0467 218.685 35.12 218.125 35.12C217.125 35.12 216.211 34.9067 215.385 34.48C214.558 34.0533 213.845 33.5 213.245 32.82C212.645 32.1267 212.178 31.3467 211.845 30.48C211.511 29.6 211.345 28.7067 211.345 27.8ZM237.2 22.78H232.48V35H230.22V22.78H225.48V20.8H237.2V22.78ZM240.104 35V20.8H242.344V35H240.104ZM252.453 35.1C251.44 35.1 250.513 34.9 249.673 34.5C248.846 34.0867 248.133 33.5467 247.533 32.88C246.933 32.2 246.466 31.4267 246.133 30.56C245.813 29.6933 245.653 28.8067 245.653 27.9C245.653 26.9533 245.826 26.0467 246.173 25.18C246.52 24.3133 246.993 23.5467 247.593 22.88C248.206 22.2133 248.926 21.6867 249.753 21.3C250.593 20.9 251.506 20.7 252.493 20.7C253.506 20.7 254.426 20.9133 255.253 21.34C256.093 21.7533 256.806 22.3 257.393 22.98C257.993 23.66 258.453 24.4333 258.773 25.3C259.106 26.1533 259.273 27.0267 259.273 27.92C259.273 28.8667 259.1 29.7733 258.753 30.64C258.42 31.5067 257.946 32.2733 257.333 32.94C256.72 33.5933 255.993 34.12 255.153 34.52C254.326 34.9067 253.426 35.1 252.453 35.1ZM247.933 27.9C247.933 28.5667 248.04 29.2133 248.253 29.84C248.466 30.4667 248.766 31.02 249.153 31.5C249.553 31.98 250.033 32.3667 250.593 32.66C251.153 32.94 251.78 33.08 252.473 33.08C253.193 33.08 253.826 32.9333 254.373 32.64C254.933 32.3333 255.406 31.9333 255.793 31.44C256.18 30.9467 256.473 30.3933 256.673 29.78C256.873 29.1667 256.973 28.54 256.973 27.9C256.973 27.22 256.866 26.5733 256.653 25.96C256.44 25.3333 256.133 24.7867 255.733 24.32C255.346 23.84 254.873 23.46 254.313 23.18C253.766 22.8867 253.153 22.74 252.473 22.74C251.753 22.74 251.113 22.8933 250.553 23.2C249.993 23.4933 249.52 23.88 249.133 24.36C248.746 24.84 248.446 25.3933 248.233 26.02C248.033 26.6333 247.933 27.26 247.933 27.9ZM264.832 25V35H262.592V20.8H264.352L272.472 31.04V20.82H274.732V35H272.872L264.832 25ZM287.324 24.14C287.191 23.9933 286.998 23.84 286.744 23.68C286.491 23.5067 286.191 23.3467 285.844 23.2C285.511 23.0533 285.138 22.9333 284.724 22.84C284.324 22.7467 283.911 22.7 283.484 22.7C282.538 22.7 281.838 22.8733 281.384 23.22C280.944 23.5667 280.724 24.0467 280.724 24.66C280.724 25.0067 280.791 25.2933 280.924 25.52C281.071 25.7333 281.291 25.9267 281.584 26.1C281.878 26.26 282.244 26.4067 282.684 26.54C283.124 26.66 283.638 26.7933 284.224 26.94C284.944 27.1133 285.591 27.3067 286.164 27.52C286.751 27.7333 287.244 27.9933 287.644 28.3C288.044 28.6067 288.351 28.9867 288.564 29.44C288.791 29.88 288.904 30.42 288.904 31.06C288.904 31.78 288.764 32.4 288.484 32.92C288.218 33.44 287.844 33.8667 287.364 34.2C286.898 34.52 286.351 34.76 285.724 34.92C285.098 35.0667 284.424 35.14 283.704 35.14C282.624 35.14 281.578 34.98 280.564 34.66C279.564 34.3267 278.658 33.8467 277.844 33.22L278.864 31.3C279.038 31.4733 279.284 31.6667 279.604 31.88C279.938 32.0933 280.318 32.2933 280.744 32.48C281.184 32.6533 281.658 32.8067 282.164 32.94C282.671 33.06 283.198 33.12 283.744 33.12C284.624 33.12 285.304 32.9667 285.784 32.66C286.264 32.3533 286.504 31.9 286.504 31.3C286.504 30.94 286.411 30.64 286.224 30.4C286.051 30.16 285.798 29.9533 285.464 29.78C285.131 29.5933 284.724 29.4267 284.244 29.28C283.764 29.1333 283.218 28.98 282.604 28.82C281.898 28.6333 281.278 28.44 280.744 28.24C280.224 28.0267 279.791 27.7733 279.444 27.48C279.098 27.1867 278.831 26.8467 278.644 26.46C278.471 26.06 278.384 25.58 278.384 25.02C278.384 24.3267 278.518 23.7133 278.784 23.18C279.051 22.6333 279.411 22.18 279.864 21.82C280.331 21.4467 280.878 21.1667 281.504 20.98C282.131 20.7933 282.811 20.7 283.544 20.7C284.504 20.7 285.391 20.8533 286.204 21.16C287.018 21.4667 287.731 21.8467 288.344 22.3L287.324 24.14Z" fill="#AC643E"/>
</svg>
