<svg width="342" height="56" viewBox="0 0 342 56" fill="none" xmlns="http://www.w3.org/2000/svg">
<rect width="342" height="56" fill="#EFF0F2"/>
<path d="M104.5 35L111.5 28L104.5 21M111.5 28L97.5 28" stroke="#1F1F21" stroke-width="2" stroke-linecap="round" stroke-linejoin="round"/>
<path d="M104.5 35L111.5 28L104.5 21M111.5 28L97.5 28" stroke="black" stroke-opacity="0.2" stroke-width="2" stroke-linecap="round" stroke-linejoin="round"/>
<path d="M104.5 35L111.5 28L104.5 21M111.5 28L97.5 28" stroke="black" stroke-opacity="0.2" stroke-width="2" stroke-linecap="round" stroke-linejoin="round"/>
<path d="M138.5 24.14C138.367 23.9933 138.173 23.84 137.92 23.68C137.667 23.5067 137.367 23.3467 137.02 23.2C136.687 23.0533 136.313 22.9333 135.9 22.84C135.5 22.7467 135.087 22.7 134.66 22.7C133.713 22.7 133.013 22.8733 132.56 23.22C132.12 23.5667 131.9 24.0467 131.9 24.66C131.9 25.0067 131.967 25.2933 132.1 25.52C132.247 25.7333 132.467 25.9267 132.76 26.1C133.053 26.26 133.42 26.4067 133.86 26.54C134.3 26.66 134.813 26.7933 135.4 26.94C136.12 27.1133 136.767 27.3067 137.34 27.52C137.927 27.7333 138.42 27.9933 138.82 28.3C139.22 28.6067 139.527 28.9867 139.74 29.44C139.967 29.88 140.08 30.42 140.08 31.06C140.08 31.78 139.94 32.4 139.66 32.92C139.393 33.44 139.02 33.8667 138.54 34.2C138.073 34.52 137.527 34.76 136.9 34.92C136.273 35.0667 135.6 35.14 134.88 35.14C133.8 35.14 132.753 34.98 131.74 34.66C130.74 34.3267 129.833 33.8467 129.02 33.22L130.04 31.3C130.213 31.4733 130.46 31.6667 130.78 31.88C131.113 32.0933 131.493 32.2933 131.92 32.48C132.36 32.6533 132.833 32.8067 133.34 32.94C133.847 33.06 134.373 33.12 134.92 33.12C135.8 33.12 136.48 32.9667 136.96 32.66C137.44 32.3533 137.68 31.9 137.68 31.3C137.68 30.94 137.587 30.64 137.4 30.4C137.227 30.16 136.973 29.9533 136.64 29.78C136.307 29.5933 135.9 29.4267 135.42 29.28C134.94 29.1333 134.393 28.98 133.78 28.82C133.073 28.6333 132.453 28.44 131.92 28.24C131.4 28.0267 130.967 27.7733 130.62 27.48C130.273 27.1867 130.007 26.8467 129.82 26.46C129.647 26.06 129.56 25.58 129.56 25.02C129.56 24.3267 129.693 23.7133 129.96 23.18C130.227 22.6333 130.587 22.18 131.04 21.82C131.507 21.4467 132.053 21.1667 132.68 20.98C133.307 20.7933 133.987 20.7 134.72 20.7C135.68 20.7 136.567 20.8533 137.38 21.16C138.193 21.4667 138.907 21.8467 139.52 22.3L138.5 24.14ZM154.987 20.8V35H152.727V28.74H145.567V35H143.327V20.8H145.567V26.74H152.727V20.8H154.987ZM165.09 35.1C164.077 35.1 163.15 34.9 162.31 34.5C161.483 34.0867 160.77 33.5467 160.17 32.88C159.57 32.2 159.103 31.4267 158.77 30.56C158.45 29.6933 158.29 28.8067 158.29 27.9C158.29 26.9533 158.463 26.0467 158.81 25.18C159.157 24.3133 159.63 23.5467 160.23 22.88C160.843 22.2133 161.563 21.6867 162.39 21.3C163.23 20.9 164.143 20.7 165.13 20.7C166.143 20.7 167.063 20.9133 167.89 21.34C168.73 21.7533 169.443 22.3 170.03 22.98C170.63 23.66 171.09 24.4333 171.41 25.3C171.743 26.1533 171.91 27.0267 171.91 27.92C171.91 28.8667 171.737 29.7733 171.39 30.64C171.057 31.5067 170.583 32.2733 169.97 32.94C169.357 33.5933 168.63 34.12 167.79 34.52C166.963 34.9067 166.063 35.1 165.09 35.1ZM160.57 27.9C160.57 28.5667 160.677 29.2133 160.89 29.84C161.103 30.4667 161.403 31.02 161.79 31.5C162.19 31.98 162.67 32.3667 163.23 32.66C163.79 32.94 164.417 33.08 165.11 33.08C165.83 33.08 166.463 32.9333 167.01 32.64C167.57 32.3333 168.043 31.9333 168.43 31.44C168.817 30.9467 169.11 30.3933 169.31 29.78C169.51 29.1667 169.61 28.54 169.61 27.9C169.61 27.22 169.503 26.5733 169.29 25.96C169.077 25.3333 168.77 24.7867 168.37 24.32C167.983 23.84 167.51 23.46 166.95 23.18C166.403 22.8867 165.79 22.74 165.11 22.74C164.39 22.74 163.75 22.8933 163.19 23.2C162.63 23.4933 162.157 23.88 161.77 24.36C161.383 24.84 161.083 25.3933 160.87 26.02C160.67 26.6333 160.57 27.26 160.57 27.9ZM175.229 35V20.8H181.189C181.829 20.8 182.416 20.9333 182.949 21.2C183.496 21.4667 183.962 21.82 184.349 22.26C184.736 22.6867 185.036 23.18 185.249 23.74C185.476 24.2867 185.589 24.8467 185.589 25.42C185.589 26.02 185.482 26.6 185.269 27.16C185.069 27.7067 184.782 28.2 184.409 28.64C184.036 29.0667 183.582 29.4133 183.049 29.68C182.529 29.9333 181.949 30.06 181.309 30.06H177.469V35H175.229ZM177.469 28.08H181.169C181.489 28.08 181.776 28.0133 182.029 27.88C182.296 27.7467 182.522 27.56 182.709 27.32C182.896 27.08 183.042 26.8 183.149 26.48C183.256 26.16 183.309 25.8067 183.309 25.42C183.309 25.02 183.249 24.66 183.129 24.34C183.009 24.02 182.842 23.7467 182.629 23.52C182.416 23.28 182.169 23.1 181.889 22.98C181.622 22.8467 181.342 22.78 181.049 22.78H177.469V28.08ZM196.324 25V35H194.084V20.8H195.844L203.964 31.04V20.82H206.224V35H204.364L196.324 25ZM216.316 35.1C215.303 35.1 214.376 34.9 213.536 34.5C212.71 34.0867 211.996 33.5467 211.396 32.88C210.796 32.2 210.33 31.4267 209.996 30.56C209.676 29.6933 209.516 28.8067 209.516 27.9C209.516 26.9533 209.69 26.0467 210.036 25.18C210.383 24.3133 210.856 23.5467 211.456 22.88C212.07 22.2133 212.79 21.6867 213.616 21.3C214.456 20.9 215.37 20.7 216.356 20.7C217.37 20.7 218.29 20.9133 219.116 21.34C219.956 21.7533 220.67 22.3 221.256 22.98C221.856 23.66 222.316 24.4333 222.636 25.3C222.97 26.1533 223.136 27.0267 223.136 27.92C223.136 28.8667 222.963 29.7733 222.616 30.64C222.283 31.5067 221.81 32.2733 221.196 32.94C220.583 33.5933 219.856 34.12 219.016 34.52C218.19 34.9067 217.29 35.1 216.316 35.1ZM211.796 27.9C211.796 28.5667 211.903 29.2133 212.116 29.84C212.33 30.4667 212.63 31.02 213.016 31.5C213.416 31.98 213.896 32.3667 214.456 32.66C215.016 32.94 215.643 33.08 216.336 33.08C217.056 33.08 217.69 32.9333 218.236 32.64C218.796 32.3333 219.27 31.9333 219.656 31.44C220.043 30.9467 220.336 30.3933 220.536 29.78C220.736 29.1667 220.836 28.54 220.836 27.9C220.836 27.22 220.73 26.5733 220.516 25.96C220.303 25.3333 219.996 24.7867 219.596 24.32C219.21 23.84 218.736 23.46 218.176 23.18C217.63 22.8867 217.016 22.74 216.336 22.74C215.616 22.74 214.976 22.8933 214.416 23.2C213.856 23.4933 213.383 23.88 212.996 24.36C212.61 24.84 212.31 25.3933 212.096 26.02C211.896 26.6333 211.796 27.26 211.796 27.9ZM230.968 20.86H233.088L234.828 25.68L236.588 20.86H238.688L236.268 27.18L238.388 32.4L242.808 20.8H245.268L239.408 35H237.488L234.848 28.64L232.188 35H230.268L224.408 20.8H226.848L231.288 32.4L233.408 27.18L230.968 20.86Z" fill="#1F1F21"/>
<path d="M138.5 24.14C138.367 23.9933 138.173 23.84 137.92 23.68C137.667 23.5067 137.367 23.3467 137.02 23.2C136.687 23.0533 136.313 22.9333 135.9 22.84C135.5 22.7467 135.087 22.7 134.66 22.7C133.713 22.7 133.013 22.8733 132.56 23.22C132.12 23.5667 131.9 24.0467 131.9 24.66C131.9 25.0067 131.967 25.2933 132.1 25.52C132.247 25.7333 132.467 25.9267 132.76 26.1C133.053 26.26 133.42 26.4067 133.86 26.54C134.3 26.66 134.813 26.7933 135.4 26.94C136.12 27.1133 136.767 27.3067 137.34 27.52C137.927 27.7333 138.42 27.9933 138.82 28.3C139.22 28.6067 139.527 28.9867 139.74 29.44C139.967 29.88 140.08 30.42 140.08 31.06C140.08 31.78 139.94 32.4 139.66 32.92C139.393 33.44 139.02 33.8667 138.54 34.2C138.073 34.52 137.527 34.76 136.9 34.92C136.273 35.0667 135.6 35.14 134.88 35.14C133.8 35.14 132.753 34.98 131.74 34.66C130.74 34.3267 129.833 33.8467 129.02 33.22L130.04 31.3C130.213 31.4733 130.46 31.6667 130.78 31.88C131.113 32.0933 131.493 32.2933 131.92 32.48C132.36 32.6533 132.833 32.8067 133.34 32.94C133.847 33.06 134.373 33.12 134.92 33.12C135.8 33.12 136.48 32.9667 136.96 32.66C137.44 32.3533 137.68 31.9 137.68 31.3C137.68 30.94 137.587 30.64 137.4 30.4C137.227 30.16 136.973 29.9533 136.64 29.78C136.307 29.5933 135.9 29.4267 135.42 29.28C134.94 29.1333 134.393 28.98 133.78 28.82C133.073 28.6333 132.453 28.44 131.92 28.24C131.4 28.0267 130.967 27.7733 130.62 27.48C130.273 27.1867 130.007 26.8467 129.82 26.46C129.647 26.06 129.56 25.58 129.56 25.02C129.56 24.3267 129.693 23.7133 129.96 23.18C130.227 22.6333 130.587 22.18 131.04 21.82C131.507 21.4467 132.053 21.1667 132.68 20.98C133.307 20.7933 133.987 20.7 134.72 20.7C135.68 20.7 136.567 20.8533 137.38 21.16C138.193 21.4667 138.907 21.8467 139.52 22.3L138.5 24.14ZM154.987 20.8V35H152.727V28.74H145.567V35H143.327V20.8H145.567V26.74H152.727V20.8H154.987ZM165.09 35.1C164.077 35.1 163.15 34.9 162.31 34.5C161.483 34.0867 160.77 33.5467 160.17 32.88C159.57 32.2 159.103 31.4267 158.77 30.56C158.45 29.6933 158.29 28.8067 158.29 27.9C158.29 26.9533 158.463 26.0467 158.81 25.18C159.157 24.3133 159.63 23.5467 160.23 22.88C160.843 22.2133 161.563 21.6867 162.39 21.3C163.23 20.9 164.143 20.7 165.13 20.7C166.143 20.7 167.063 20.9133 167.89 21.34C168.73 21.7533 169.443 22.3 170.03 22.98C170.63 23.66 171.09 24.4333 171.41 25.3C171.743 26.1533 171.91 27.0267 171.91 27.92C171.91 28.8667 171.737 29.7733 171.39 30.64C171.057 31.5067 170.583 32.2733 169.97 32.94C169.357 33.5933 168.63 34.12 167.79 34.52C166.963 34.9067 166.063 35.1 165.09 35.1ZM160.57 27.9C160.57 28.5667 160.677 29.2133 160.89 29.84C161.103 30.4667 161.403 31.02 161.79 31.5C162.19 31.98 162.67 32.3667 163.23 32.66C163.79 32.94 164.417 33.08 165.11 33.08C165.83 33.08 166.463 32.9333 167.01 32.64C167.57 32.3333 168.043 31.9333 168.43 31.44C168.817 30.9467 169.11 30.3933 169.31 29.78C169.51 29.1667 169.61 28.54 169.61 27.9C169.61 27.22 169.503 26.5733 169.29 25.96C169.077 25.3333 168.77 24.7867 168.37 24.32C167.983 23.84 167.51 23.46 166.95 23.18C166.403 22.8867 165.79 22.74 165.11 22.74C164.39 22.74 163.75 22.8933 163.19 23.2C162.63 23.4933 162.157 23.88 161.77 24.36C161.383 24.84 161.083 25.3933 160.87 26.02C160.67 26.6333 160.57 27.26 160.57 27.9ZM175.229 35V20.8H181.189C181.829 20.8 182.416 20.9333 182.949 21.2C183.496 21.4667 183.962 21.82 184.349 22.26C184.736 22.6867 185.036 23.18 185.249 23.74C185.476 24.2867 185.589 24.8467 185.589 25.42C185.589 26.02 185.482 26.6 185.269 27.16C185.069 27.7067 184.782 28.2 184.409 28.64C184.036 29.0667 183.582 29.4133 183.049 29.68C182.529 29.9333 181.949 30.06 181.309 30.06H177.469V35H175.229ZM177.469 28.08H181.169C181.489 28.08 181.776 28.0133 182.029 27.88C182.296 27.7467 182.522 27.56 182.709 27.32C182.896 27.08 183.042 26.8 183.149 26.48C183.256 26.16 183.309 25.8067 183.309 25.42C183.309 25.02 183.249 24.66 183.129 24.34C183.009 24.02 182.842 23.7467 182.629 23.52C182.416 23.28 182.169 23.1 181.889 22.98C181.622 22.8467 181.342 22.78 181.049 22.78H177.469V28.08ZM196.324 25V35H194.084V20.8H195.844L203.964 31.04V20.82H206.224V35H204.364L196.324 25ZM216.316 35.1C215.303 35.1 214.376 34.9 213.536 34.5C212.71 34.0867 211.996 33.5467 211.396 32.88C210.796 32.2 210.33 31.4267 209.996 30.56C209.676 29.6933 209.516 28.8067 209.516 27.9C209.516 26.9533 209.69 26.0467 210.036 25.18C210.383 24.3133 210.856 23.5467 211.456 22.88C212.07 22.2133 212.79 21.6867 213.616 21.3C214.456 20.9 215.37 20.7 216.356 20.7C217.37 20.7 218.29 20.9133 219.116 21.34C219.956 21.7533 220.67 22.3 221.256 22.98C221.856 23.66 222.316 24.4333 222.636 25.3C222.97 26.1533 223.136 27.0267 223.136 27.92C223.136 28.8667 222.963 29.7733 222.616 30.64C222.283 31.5067 221.81 32.2733 221.196 32.94C220.583 33.5933 219.856 34.12 219.016 34.52C218.19 34.9067 217.29 35.1 216.316 35.1ZM211.796 27.9C211.796 28.5667 211.903 29.2133 212.116 29.84C212.33 30.4667 212.63 31.02 213.016 31.5C213.416 31.98 213.896 32.3667 214.456 32.66C215.016 32.94 215.643 33.08 216.336 33.08C217.056 33.08 217.69 32.9333 218.236 32.64C218.796 32.3333 219.27 31.9333 219.656 31.44C220.043 30.9467 220.336 30.3933 220.536 29.78C220.736 29.1667 220.836 28.54 220.836 27.9C220.836 27.22 220.73 26.5733 220.516 25.96C220.303 25.3333 219.996 24.7867 219.596 24.32C219.21 23.84 218.736 23.46 218.176 23.18C217.63 22.8867 217.016 22.74 216.336 22.74C215.616 22.74 214.976 22.8933 214.416 23.2C213.856 23.4933 213.383 23.88 212.996 24.36C212.61 24.84 212.31 25.3933 212.096 26.02C211.896 26.6333 211.796 27.26 211.796 27.9ZM230.968 20.86H233.088L234.828 25.68L236.588 20.86H238.688L236.268 27.18L238.388 32.4L242.808 20.8H245.268L239.408 35H237.488L234.848 28.64L232.188 35H230.268L224.408 20.8H226.848L231.288 32.4L233.408 27.18L230.968 20.86Z" fill="black" fill-opacity="0.2"/>
<path d="M138.5 24.14C138.367 23.9933 138.173 23.84 137.92 23.68C137.667 23.5067 137.367 23.3467 137.02 23.2C136.687 23.0533 136.313 22.9333 135.9 22.84C135.5 22.7467 135.087 22.7 134.66 22.7C133.713 22.7 133.013 22.8733 132.56 23.22C132.12 23.5667 131.9 24.0467 131.9 24.66C131.9 25.0067 131.967 25.2933 132.1 25.52C132.247 25.7333 132.467 25.9267 132.76 26.1C133.053 26.26 133.42 26.4067 133.86 26.54C134.3 26.66 134.813 26.7933 135.4 26.94C136.12 27.1133 136.767 27.3067 137.34 27.52C137.927 27.7333 138.42 27.9933 138.82 28.3C139.22 28.6067 139.527 28.9867 139.74 29.44C139.967 29.88 140.08 30.42 140.08 31.06C140.08 31.78 139.94 32.4 139.66 32.92C139.393 33.44 139.02 33.8667 138.54 34.2C138.073 34.52 137.527 34.76 136.9 34.92C136.273 35.0667 135.6 35.14 134.88 35.14C133.8 35.14 132.753 34.98 131.74 34.66C130.74 34.3267 129.833 33.8467 129.02 33.22L130.04 31.3C130.213 31.4733 130.46 31.6667 130.78 31.88C131.113 32.0933 131.493 32.2933 131.92 32.48C132.36 32.6533 132.833 32.8067 133.34 32.94C133.847 33.06 134.373 33.12 134.92 33.12C135.8 33.12 136.48 32.9667 136.96 32.66C137.44 32.3533 137.68 31.9 137.68 31.3C137.68 30.94 137.587 30.64 137.4 30.4C137.227 30.16 136.973 29.9533 136.64 29.78C136.307 29.5933 135.9 29.4267 135.42 29.28C134.94 29.1333 134.393 28.98 133.78 28.82C133.073 28.6333 132.453 28.44 131.92 28.24C131.4 28.0267 130.967 27.7733 130.62 27.48C130.273 27.1867 130.007 26.8467 129.82 26.46C129.647 26.06 129.56 25.58 129.56 25.02C129.56 24.3267 129.693 23.7133 129.96 23.18C130.227 22.6333 130.587 22.18 131.04 21.82C131.507 21.4467 132.053 21.1667 132.68 20.98C133.307 20.7933 133.987 20.7 134.72 20.7C135.68 20.7 136.567 20.8533 137.38 21.16C138.193 21.4667 138.907 21.8467 139.52 22.3L138.5 24.14ZM154.987 20.8V35H152.727V28.74H145.567V35H143.327V20.8H145.567V26.74H152.727V20.8H154.987ZM165.09 35.1C164.077 35.1 163.15 34.9 162.31 34.5C161.483 34.0867 160.77 33.5467 160.17 32.88C159.57 32.2 159.103 31.4267 158.77 30.56C158.45 29.6933 158.29 28.8067 158.29 27.9C158.29 26.9533 158.463 26.0467 158.81 25.18C159.157 24.3133 159.63 23.5467 160.23 22.88C160.843 22.2133 161.563 21.6867 162.39 21.3C163.23 20.9 164.143 20.7 165.13 20.7C166.143 20.7 167.063 20.9133 167.89 21.34C168.73 21.7533 169.443 22.3 170.03 22.98C170.63 23.66 171.09 24.4333 171.41 25.3C171.743 26.1533 171.91 27.0267 171.91 27.92C171.91 28.8667 171.737 29.7733 171.39 30.64C171.057 31.5067 170.583 32.2733 169.97 32.94C169.357 33.5933 168.63 34.12 167.79 34.52C166.963 34.9067 166.063 35.1 165.09 35.1ZM160.57 27.9C160.57 28.5667 160.677 29.2133 160.89 29.84C161.103 30.4667 161.403 31.02 161.79 31.5C162.19 31.98 162.67 32.3667 163.23 32.66C163.79 32.94 164.417 33.08 165.11 33.08C165.83 33.08 166.463 32.9333 167.01 32.64C167.57 32.3333 168.043 31.9333 168.43 31.44C168.817 30.9467 169.11 30.3933 169.31 29.78C169.51 29.1667 169.61 28.54 169.61 27.9C169.61 27.22 169.503 26.5733 169.29 25.96C169.077 25.3333 168.77 24.7867 168.37 24.32C167.983 23.84 167.51 23.46 166.95 23.18C166.403 22.8867 165.79 22.74 165.11 22.74C164.39 22.74 163.75 22.8933 163.19 23.2C162.63 23.4933 162.157 23.88 161.77 24.36C161.383 24.84 161.083 25.3933 160.87 26.02C160.67 26.6333 160.57 27.26 160.57 27.9ZM175.229 35V20.8H181.189C181.829 20.8 182.416 20.9333 182.949 21.2C183.496 21.4667 183.962 21.82 184.349 22.26C184.736 22.6867 185.036 23.18 185.249 23.74C185.476 24.2867 185.589 24.8467 185.589 25.42C185.589 26.02 185.482 26.6 185.269 27.16C185.069 27.7067 184.782 28.2 184.409 28.64C184.036 29.0667 183.582 29.4133 183.049 29.68C182.529 29.9333 181.949 30.06 181.309 30.06H177.469V35H175.229ZM177.469 28.08H181.169C181.489 28.08 181.776 28.0133 182.029 27.88C182.296 27.7467 182.522 27.56 182.709 27.32C182.896 27.08 183.042 26.8 183.149 26.48C183.256 26.16 183.309 25.8067 183.309 25.42C183.309 25.02 183.249 24.66 183.129 24.34C183.009 24.02 182.842 23.7467 182.629 23.52C182.416 23.28 182.169 23.1 181.889 22.98C181.622 22.8467 181.342 22.78 181.049 22.78H177.469V28.08ZM196.324 25V35H194.084V20.8H195.844L203.964 31.04V20.82H206.224V35H204.364L196.324 25ZM216.316 35.1C215.303 35.1 214.376 34.9 213.536 34.5C212.71 34.0867 211.996 33.5467 211.396 32.88C210.796 32.2 210.33 31.4267 209.996 30.56C209.676 29.6933 209.516 28.8067 209.516 27.9C209.516 26.9533 209.69 26.0467 210.036 25.18C210.383 24.3133 210.856 23.5467 211.456 22.88C212.07 22.2133 212.79 21.6867 213.616 21.3C214.456 20.9 215.37 20.7 216.356 20.7C217.37 20.7 218.29 20.9133 219.116 21.34C219.956 21.7533 220.67 22.3 221.256 22.98C221.856 23.66 222.316 24.4333 222.636 25.3C222.97 26.1533 223.136 27.0267 223.136 27.92C223.136 28.8667 222.963 29.7733 222.616 30.64C222.283 31.5067 221.81 32.2733 221.196 32.94C220.583 33.5933 219.856 34.12 219.016 34.52C218.19 34.9067 217.29 35.1 216.316 35.1ZM211.796 27.9C211.796 28.5667 211.903 29.2133 212.116 29.84C212.33 30.4667 212.63 31.02 213.016 31.5C213.416 31.98 213.896 32.3667 214.456 32.66C215.016 32.94 215.643 33.08 216.336 33.08C217.056 33.08 217.69 32.9333 218.236 32.64C218.796 32.3333 219.27 31.9333 219.656 31.44C220.043 30.9467 220.336 30.3933 220.536 29.78C220.736 29.1667 220.836 28.54 220.836 27.9C220.836 27.22 220.73 26.5733 220.516 25.96C220.303 25.3333 219.996 24.7867 219.596 24.32C219.21 23.84 218.736 23.46 218.176 23.18C217.63 22.8867 217.016 22.74 216.336 22.74C215.616 22.74 214.976 22.8933 214.416 23.2C213.856 23.4933 213.383 23.88 212.996 24.36C212.61 24.84 212.31 25.3933 212.096 26.02C211.896 26.6333 211.796 27.26 211.796 27.9ZM230.968 20.86H233.088L234.828 25.68L236.588 20.86H238.688L236.268 27.18L238.388 32.4L242.808 20.8H245.268L239.408 35H237.488L234.848 28.64L232.188 35H230.268L224.408 20.8H226.848L231.288 32.4L233.408 27.18L230.968 20.86Z" fill="black" fill-opacity="0.2"/>
</svg>
