<svg width="464" height="56" viewBox="0 0 464 56" fill="none" xmlns="http://www.w3.org/2000/svg">
<path d="M12 35L19 28L12 21M19 28L5 28" stroke="#AC643E" stroke-width="2" stroke-linecap="round" stroke-linejoin="round"/>
<path d="M38.5 20.8L42.78 32.18L47.04 20.8H49.42L43.74 35H41.82L36.12 20.8H38.5ZM52.1547 35V20.8H54.3947V35H52.1547ZM68.3439 33.02V35H58.6039V20.8H68.1639V22.78H60.8439V26.82H67.1839V28.68H60.8439V33.02H68.3439ZM76.6947 20.86H78.8147L80.5547 25.68L82.3147 20.86H84.4147L81.9947 27.18L84.1147 32.4L88.5347 20.8H90.9947L85.1347 35H83.2147L80.5747 28.64L77.9147 35H75.9947L70.1347 20.8H72.5747L77.0147 32.4L79.1347 27.18L76.6947 20.86ZM102.483 20.8H104.443L110.043 35H107.683L106.183 31.14H100.703L99.2231 35H96.8431L102.483 20.8ZM105.743 29.48L103.463 23.38L101.103 29.48H105.743ZM112.799 35V20.8H115.039V33.02H122.659V35H112.799ZM125.479 35V20.8H127.719V33.02H135.339V35H125.479ZM143.553 35V20.8H149.513C150.153 20.8 150.74 20.9333 151.273 21.2C151.82 21.4667 152.286 21.82 152.673 22.26C153.06 22.6867 153.36 23.18 153.573 23.74C153.8 24.2867 153.913 24.8467 153.913 25.42C153.913 26.02 153.806 26.6 153.593 27.16C153.393 27.7067 153.106 28.2 152.733 28.64C152.36 29.0667 151.906 29.4133 151.373 29.68C150.853 29.9333 150.273 30.06 149.633 30.06H145.793V35H143.553ZM145.793 28.08H149.493C149.813 28.08 150.1 28.0133 150.353 27.88C150.62 27.7467 150.846 27.56 151.033 27.32C151.22 27.08 151.366 26.8 151.473 26.48C151.58 26.16 151.633 25.8067 151.633 25.42C151.633 25.02 151.573 24.66 151.453 24.34C151.333 24.02 151.166 23.7467 150.953 23.52C150.74 23.28 150.493 23.1 150.213 22.98C149.946 22.8467 149.666 22.78 149.373 22.78H145.793V28.08ZM162.914 35.1C161.901 35.1 160.974 34.9 160.134 34.5C159.307 34.0867 158.594 33.5467 157.994 32.88C157.394 32.2 156.927 31.4267 156.594 30.56C156.274 29.6933 156.114 28.8067 156.114 27.9C156.114 26.9533 156.287 26.0467 156.634 25.18C156.981 24.3133 157.454 23.5467 158.054 22.88C158.667 22.2133 159.387 21.6867 160.214 21.3C161.054 20.9 161.967 20.7 162.954 20.7C163.967 20.7 164.887 20.9133 165.714 21.34C166.554 21.7533 167.267 22.3 167.854 22.98C168.454 23.66 168.914 24.4333 169.234 25.3C169.567 26.1533 169.734 27.0267 169.734 27.92C169.734 28.8667 169.561 29.7733 169.214 30.64C168.881 31.5067 168.407 32.2733 167.794 32.94C167.181 33.5933 166.454 34.12 165.614 34.52C164.787 34.9067 163.887 35.1 162.914 35.1ZM158.394 27.9C158.394 28.5667 158.501 29.2133 158.714 29.84C158.927 30.4667 159.227 31.02 159.614 31.5C160.014 31.98 160.494 32.3667 161.054 32.66C161.614 32.94 162.241 33.08 162.934 33.08C163.654 33.08 164.287 32.9333 164.834 32.64C165.394 32.3333 165.867 31.9333 166.254 31.44C166.641 30.9467 166.934 30.3933 167.134 29.78C167.334 29.1667 167.434 28.54 167.434 27.9C167.434 27.22 167.327 26.5733 167.114 25.96C166.901 25.3333 166.594 24.7867 166.194 24.32C165.807 23.84 165.334 23.46 164.774 23.18C164.227 22.8867 163.614 22.74 162.934 22.74C162.214 22.74 161.574 22.8933 161.014 23.2C160.454 23.4933 159.981 23.88 159.594 24.36C159.207 24.84 158.907 25.3933 158.694 26.02C158.494 26.6333 158.394 27.26 158.394 27.9ZM181.453 24.14C181.32 23.9933 181.126 23.84 180.873 23.68C180.62 23.5067 180.32 23.3467 179.973 23.2C179.64 23.0533 179.266 22.9333 178.853 22.84C178.453 22.7467 178.04 22.7 177.613 22.7C176.666 22.7 175.966 22.8733 175.513 23.22C175.073 23.5667 174.853 24.0467 174.853 24.66C174.853 25.0067 174.92 25.2933 175.053 25.52C175.2 25.7333 175.42 25.9267 175.713 26.1C176.006 26.26 176.373 26.4067 176.813 26.54C177.253 26.66 177.766 26.7933 178.353 26.94C179.073 27.1133 179.72 27.3067 180.293 27.52C180.88 27.7333 181.373 27.9933 181.773 28.3C182.173 28.6067 182.48 28.9867 182.693 29.44C182.92 29.88 183.033 30.42 183.033 31.06C183.033 31.78 182.893 32.4 182.613 32.92C182.346 33.44 181.973 33.8667 181.493 34.2C181.026 34.52 180.48 34.76 179.853 34.92C179.226 35.0667 178.553 35.14 177.833 35.14C176.753 35.14 175.706 34.98 174.693 34.66C173.693 34.3267 172.786 33.8467 171.973 33.22L172.993 31.3C173.166 31.4733 173.413 31.6667 173.733 31.88C174.066 32.0933 174.446 32.2933 174.873 32.48C175.313 32.6533 175.786 32.8067 176.293 32.94C176.8 33.06 177.326 33.12 177.873 33.12C178.753 33.12 179.433 32.9667 179.913 32.66C180.393 32.3533 180.633 31.9 180.633 31.3C180.633 30.94 180.54 30.64 180.353 30.4C180.18 30.16 179.926 29.9533 179.593 29.78C179.26 29.5933 178.853 29.4267 178.373 29.28C177.893 29.1333 177.346 28.98 176.733 28.82C176.026 28.6333 175.406 28.44 174.873 28.24C174.353 28.0267 173.92 27.7733 173.573 27.48C173.226 27.1867 172.96 26.8467 172.773 26.46C172.6 26.06 172.513 25.58 172.513 25.02C172.513 24.3267 172.646 23.7133 172.913 23.18C173.18 22.6333 173.54 22.18 173.993 21.82C174.46 21.4467 175.006 21.1667 175.633 20.98C176.26 20.7933 176.94 20.7 177.673 20.7C178.633 20.7 179.52 20.8533 180.333 21.16C181.146 21.4667 181.86 21.8467 182.473 22.3L181.453 24.14ZM186.28 35V20.8H188.52V35H186.28ZM203.149 22.78H198.429V35H196.169V22.78H191.429V20.8H203.149V22.78ZM206.053 35V20.8H208.293V35H206.053ZM218.402 35.1C217.389 35.1 216.462 34.9 215.622 34.5C214.796 34.0867 214.082 33.5467 213.482 32.88C212.882 32.2 212.416 31.4267 212.082 30.56C211.762 29.6933 211.602 28.8067 211.602 27.9C211.602 26.9533 211.776 26.0467 212.122 25.18C212.469 24.3133 212.942 23.5467 213.542 22.88C214.156 22.2133 214.876 21.6867 215.702 21.3C216.542 20.9 217.456 20.7 218.442 20.7C219.456 20.7 220.376 20.9133 221.202 21.34C222.042 21.7533 222.756 22.3 223.342 22.98C223.942 23.66 224.402 24.4333 224.722 25.3C225.056 26.1533 225.222 27.0267 225.222 27.92C225.222 28.8667 225.049 29.7733 224.702 30.64C224.369 31.5067 223.896 32.2733 223.282 32.94C222.669 33.5933 221.942 34.12 221.102 34.52C220.276 34.9067 219.376 35.1 218.402 35.1ZM213.882 27.9C213.882 28.5667 213.989 29.2133 214.202 29.84C214.416 30.4667 214.716 31.02 215.102 31.5C215.502 31.98 215.982 32.3667 216.542 32.66C217.102 32.94 217.729 33.08 218.422 33.08C219.142 33.08 219.776 32.9333 220.322 32.64C220.882 32.3333 221.356 31.9333 221.742 31.44C222.129 30.9467 222.422 30.3933 222.622 29.78C222.822 29.1667 222.922 28.54 222.922 27.9C222.922 27.22 222.816 26.5733 222.602 25.96C222.389 25.3333 222.082 24.7867 221.682 24.32C221.296 23.84 220.822 23.46 220.262 23.18C219.716 22.8867 219.102 22.74 218.422 22.74C217.702 22.74 217.062 22.8933 216.502 23.2C215.942 23.4933 215.469 23.88 215.082 24.36C214.696 24.84 214.396 25.3933 214.182 26.02C213.982 26.6333 213.882 27.26 213.882 27.9ZM230.781 25V35H228.541V20.8H230.301L238.421 31.04V20.82H240.681V35H238.821L230.781 25ZM253.273 24.14C253.14 23.9933 252.947 23.84 252.693 23.68C252.44 23.5067 252.14 23.3467 251.793 23.2C251.46 23.0533 251.087 22.9333 250.673 22.84C250.273 22.7467 249.86 22.7 249.433 22.7C248.487 22.7 247.787 22.8733 247.333 23.22C246.893 23.5667 246.673 24.0467 246.673 24.66C246.673 25.0067 246.74 25.2933 246.873 25.52C247.02 25.7333 247.24 25.9267 247.533 26.1C247.827 26.26 248.193 26.4067 248.633 26.54C249.073 26.66 249.587 26.7933 250.173 26.94C250.893 27.1133 251.54 27.3067 252.113 27.52C252.7 27.7333 253.193 27.9933 253.593 28.3C253.993 28.6067 254.3 28.9867 254.513 29.44C254.74 29.88 254.853 30.42 254.853 31.06C254.853 31.78 254.713 32.4 254.433 32.92C254.167 33.44 253.793 33.8667 253.313 34.2C252.847 34.52 252.3 34.76 251.673 34.92C251.047 35.0667 250.373 35.14 249.653 35.14C248.573 35.14 247.527 34.98 246.513 34.66C245.513 34.3267 244.607 33.8467 243.793 33.22L244.813 31.3C244.987 31.4733 245.233 31.6667 245.553 31.88C245.887 32.0933 246.267 32.2933 246.693 32.48C247.133 32.6533 247.607 32.8067 248.113 32.94C248.62 33.06 249.147 33.12 249.693 33.12C250.573 33.12 251.253 32.9667 251.733 32.66C252.213 32.3533 252.453 31.9 252.453 31.3C252.453 30.94 252.36 30.64 252.173 30.4C252 30.16 251.747 29.9533 251.413 29.78C251.08 29.5933 250.673 29.4267 250.193 29.28C249.713 29.1333 249.167 28.98 248.553 28.82C247.847 28.6333 247.227 28.44 246.693 28.24C246.173 28.0267 245.74 27.7733 245.393 27.48C245.047 27.1867 244.78 26.8467 244.593 26.46C244.42 26.06 244.333 25.58 244.333 25.02C244.333 24.3267 244.467 23.7133 244.733 23.18C245 22.6333 245.36 22.18 245.813 21.82C246.28 21.4467 246.827 21.1667 247.453 20.98C248.08 20.7933 248.76 20.7 249.493 20.7C250.453 20.7 251.34 20.8533 252.153 21.16C252.967 21.4667 253.68 21.8467 254.293 22.3L253.273 24.14Z" fill="#AC643E"/>
</svg>
