<svg width="120" height="14" viewBox="0 0 120 14" fill="none" xmlns="http://www.w3.org/2000/svg">
<path d="M0.63 6.52C0.63 5.752 0.768 4.99 1.044 4.234C1.32 3.466 1.722 2.782 2.25 2.182C2.79 1.57 3.444 1.078 4.212 0.705999C4.98 0.333999 5.85 0.147999 6.822 0.147999C7.986 0.147999 8.982 0.405999 9.81 0.922C10.638 1.438 11.262 2.11 11.682 2.938L10.098 4C9.918 3.616 9.702 3.292 9.45 3.028C9.198 2.764 8.922 2.554 8.622 2.398C8.322 2.242 8.01 2.134 7.686 2.074C7.362 2.002 7.05 1.966 6.75 1.966C6.078 1.966 5.49 2.104 4.986 2.38C4.482 2.644 4.056 2.998 3.708 3.442C3.372 3.886 3.114 4.384 2.934 4.936C2.766 5.488 2.682 6.04 2.682 6.592C2.682 7.216 2.784 7.81 2.988 8.374C3.192 8.938 3.474 9.436 3.834 9.868C4.206 10.3 4.644 10.648 5.148 10.912C5.652 11.164 6.204 11.29 6.804 11.29C7.116 11.29 7.434 11.254 7.758 11.182C8.094 11.098 8.412 10.972 8.712 10.804C9.024 10.624 9.306 10.402 9.558 10.138C9.822 9.874 10.038 9.556 10.206 9.184L11.88 10.138C11.676 10.618 11.388 11.044 11.016 11.416C10.644 11.776 10.224 12.082 9.756 12.334C9.288 12.586 8.79 12.778 8.262 12.91C7.746 13.042 7.236 13.108 6.732 13.108C5.832 13.108 5.01 12.916 4.266 12.532C3.522 12.148 2.88 11.65 2.34 11.038C1.8 10.414 1.38 9.712 1.08 8.932C0.78 8.14 0.63 7.336 0.63 6.52ZM19.8316 13.09C18.9196 13.09 18.0856 12.91 17.3296 12.55C16.5856 12.178 15.9436 11.692 15.4036 11.092C14.8636 10.48 14.4436 9.784 14.1436 9.004C13.8556 8.224 13.7116 7.426 13.7116 6.61C13.7116 5.758 13.8676 4.942 14.1796 4.162C14.4916 3.382 14.9176 2.692 15.4576 2.092C16.0096 1.492 16.6576 1.018 17.4016 0.669999C18.1576 0.309999 18.9796 0.129999 19.8676 0.129999C20.7796 0.129999 21.6076 0.321999 22.3516 0.705999C23.1076 1.078 23.7496 1.57 24.2776 2.182C24.8176 2.794 25.2316 3.49 25.5196 4.27C25.8196 5.038 25.9696 5.824 25.9696 6.628C25.9696 7.48 25.8136 8.296 25.5016 9.076C25.2016 9.856 24.7756 10.546 24.2236 11.146C23.6716 11.734 23.0176 12.208 22.2616 12.568C21.5176 12.916 20.7076 13.09 19.8316 13.09ZM15.7636 6.61C15.7636 7.21 15.8596 7.792 16.0516 8.356C16.2436 8.92 16.5136 9.418 16.8616 9.85C17.2216 10.282 17.6536 10.63 18.1576 10.894C18.6616 11.146 19.2256 11.272 19.8496 11.272C20.4976 11.272 21.0676 11.14 21.5596 10.876C22.0636 10.6 22.4896 10.24 22.8376 9.796C23.1856 9.352 23.4496 8.854 23.6296 8.302C23.8096 7.75 23.8996 7.186 23.8996 6.61C23.8996 5.998 23.8036 5.416 23.6116 4.864C23.4196 4.3 23.1436 3.808 22.7836 3.388C22.4356 2.956 22.0096 2.614 21.5056 2.362C21.0136 2.098 20.4616 1.966 19.8496 1.966C19.2016 1.966 18.6256 2.104 18.1216 2.38C17.6176 2.644 17.1916 2.992 16.8436 3.424C16.4956 3.856 16.2256 4.354 16.0336 4.918C15.8536 5.47 15.7636 6.034 15.7636 6.61ZM28.9568 13V0.219999H30.9728V11.218H37.8308V13H28.9568ZM40.3685 13V0.219999H42.3845V11.218H49.2425V13H40.3685ZM60.5462 11.218V13H51.7802V0.219999H60.3842V2.002H53.7962V5.638H59.5022V7.312H53.7962V11.218H60.5462ZM62.4523 6.52C62.4523 5.752 62.5903 4.99 62.8663 4.234C63.1423 3.466 63.5443 2.782 64.0723 2.182C64.6123 1.57 65.2663 1.078 66.0343 0.705999C66.8023 0.333999 67.6723 0.147999 68.6443 0.147999C69.8083 0.147999 70.8043 0.405999 71.6323 0.922C72.4603 1.438 73.0843 2.11 73.5043 2.938L71.9203 4C71.7403 3.616 71.5243 3.292 71.2723 3.028C71.0203 2.764 70.7443 2.554 70.4443 2.398C70.1443 2.242 69.8323 2.134 69.5083 2.074C69.1843 2.002 68.8723 1.966 68.5723 1.966C67.9003 1.966 67.3123 2.104 66.8083 2.38C66.3043 2.644 65.8783 2.998 65.5303 3.442C65.1943 3.886 64.9363 4.384 64.7563 4.936C64.5883 5.488 64.5043 6.04 64.5043 6.592C64.5043 7.216 64.6063 7.81 64.8103 8.374C65.0143 8.938 65.2963 9.436 65.6563 9.868C66.0283 10.3 66.4663 10.648 66.9703 10.912C67.4743 11.164 68.0263 11.29 68.6263 11.29C68.9383 11.29 69.2563 11.254 69.5803 11.182C69.9163 11.098 70.2343 10.972 70.5343 10.804C70.8463 10.624 71.1283 10.402 71.3803 10.138C71.6443 9.874 71.8603 9.556 72.0283 9.184L73.7023 10.138C73.4983 10.618 73.2103 11.044 72.8383 11.416C72.4663 11.776 72.0463 12.082 71.5783 12.334C71.1103 12.586 70.6123 12.778 70.0843 12.91C69.5683 13.042 69.0583 13.108 68.5543 13.108C67.6543 13.108 66.8323 12.916 66.0883 12.532C65.3443 12.148 64.7023 11.65 64.1623 11.038C63.6223 10.414 63.2023 9.712 62.9023 8.932C62.6023 8.14 62.4523 7.336 62.4523 6.52ZM85.7219 2.002H81.4739V13H79.4399V2.002H75.1739V0.219999H85.7219V2.002ZM88.3357 13V0.219999H90.3517V13H88.3357ZM99.45 13.09C98.538 13.09 97.704 12.91 96.948 12.55C96.204 12.178 95.562 11.692 95.022 11.092C94.482 10.48 94.062 9.784 93.762 9.004C93.474 8.224 93.33 7.426 93.33 6.61C93.33 5.758 93.486 4.942 93.798 4.162C94.11 3.382 94.536 2.692 95.076 2.092C95.628 1.492 96.276 1.018 97.02 0.669999C97.776 0.309999 98.598 0.129999 99.486 0.129999C100.398 0.129999 101.226 0.321999 101.97 0.705999C102.726 1.078 103.368 1.57 103.896 2.182C104.436 2.794 104.85 3.49 105.138 4.27C105.438 5.038 105.588 5.824 105.588 6.628C105.588 7.48 105.432 8.296 105.12 9.076C104.82 9.856 104.394 10.546 103.842 11.146C103.29 11.734 102.636 12.208 101.88 12.568C101.136 12.916 100.326 13.09 99.45 13.09ZM95.382 6.61C95.382 7.21 95.478 7.792 95.67 8.356C95.862 8.92 96.132 9.418 96.48 9.85C96.84 10.282 97.272 10.63 97.776 10.894C98.28 11.146 98.844 11.272 99.468 11.272C100.116 11.272 100.686 11.14 101.178 10.876C101.682 10.6 102.108 10.24 102.456 9.796C102.804 9.352 103.068 8.854 103.248 8.302C103.428 7.75 103.518 7.186 103.518 6.61C103.518 5.998 103.422 5.416 103.23 4.864C103.038 4.3 102.762 3.808 102.402 3.388C102.054 2.956 101.628 2.614 101.124 2.362C100.632 2.098 100.08 1.966 99.468 1.966C98.82 1.966 98.244 2.104 97.74 2.38C97.236 2.644 96.81 2.992 96.462 3.424C96.114 3.856 95.844 4.354 95.652 4.918C95.472 5.47 95.382 6.034 95.382 6.61ZM110.591 4V13H108.575V0.219999H110.159L117.467 9.436V0.237999H119.501V13H117.827L110.591 4Z" fill="#1F1F21"/>
<path d="M0.63 6.52C0.63 5.752 0.768 4.99 1.044 4.234C1.32 3.466 1.722 2.782 2.25 2.182C2.79 1.57 3.444 1.078 4.212 0.705999C4.98 0.333999 5.85 0.147999 6.822 0.147999C7.986 0.147999 8.982 0.405999 9.81 0.922C10.638 1.438 11.262 2.11 11.682 2.938L10.098 4C9.918 3.616 9.702 3.292 9.45 3.028C9.198 2.764 8.922 2.554 8.622 2.398C8.322 2.242 8.01 2.134 7.686 2.074C7.362 2.002 7.05 1.966 6.75 1.966C6.078 1.966 5.49 2.104 4.986 2.38C4.482 2.644 4.056 2.998 3.708 3.442C3.372 3.886 3.114 4.384 2.934 4.936C2.766 5.488 2.682 6.04 2.682 6.592C2.682 7.216 2.784 7.81 2.988 8.374C3.192 8.938 3.474 9.436 3.834 9.868C4.206 10.3 4.644 10.648 5.148 10.912C5.652 11.164 6.204 11.29 6.804 11.29C7.116 11.29 7.434 11.254 7.758 11.182C8.094 11.098 8.412 10.972 8.712 10.804C9.024 10.624 9.306 10.402 9.558 10.138C9.822 9.874 10.038 9.556 10.206 9.184L11.88 10.138C11.676 10.618 11.388 11.044 11.016 11.416C10.644 11.776 10.224 12.082 9.756 12.334C9.288 12.586 8.79 12.778 8.262 12.91C7.746 13.042 7.236 13.108 6.732 13.108C5.832 13.108 5.01 12.916 4.266 12.532C3.522 12.148 2.88 11.65 2.34 11.038C1.8 10.414 1.38 9.712 1.08 8.932C0.78 8.14 0.63 7.336 0.63 6.52ZM19.8316 13.09C18.9196 13.09 18.0856 12.91 17.3296 12.55C16.5856 12.178 15.9436 11.692 15.4036 11.092C14.8636 10.48 14.4436 9.784 14.1436 9.004C13.8556 8.224 13.7116 7.426 13.7116 6.61C13.7116 5.758 13.8676 4.942 14.1796 4.162C14.4916 3.382 14.9176 2.692 15.4576 2.092C16.0096 1.492 16.6576 1.018 17.4016 0.669999C18.1576 0.309999 18.9796 0.129999 19.8676 0.129999C20.7796 0.129999 21.6076 0.321999 22.3516 0.705999C23.1076 1.078 23.7496 1.57 24.2776 2.182C24.8176 2.794 25.2316 3.49 25.5196 4.27C25.8196 5.038 25.9696 5.824 25.9696 6.628C25.9696 7.48 25.8136 8.296 25.5016 9.076C25.2016 9.856 24.7756 10.546 24.2236 11.146C23.6716 11.734 23.0176 12.208 22.2616 12.568C21.5176 12.916 20.7076 13.09 19.8316 13.09ZM15.7636 6.61C15.7636 7.21 15.8596 7.792 16.0516 8.356C16.2436 8.92 16.5136 9.418 16.8616 9.85C17.2216 10.282 17.6536 10.63 18.1576 10.894C18.6616 11.146 19.2256 11.272 19.8496 11.272C20.4976 11.272 21.0676 11.14 21.5596 10.876C22.0636 10.6 22.4896 10.24 22.8376 9.796C23.1856 9.352 23.4496 8.854 23.6296 8.302C23.8096 7.75 23.8996 7.186 23.8996 6.61C23.8996 5.998 23.8036 5.416 23.6116 4.864C23.4196 4.3 23.1436 3.808 22.7836 3.388C22.4356 2.956 22.0096 2.614 21.5056 2.362C21.0136 2.098 20.4616 1.966 19.8496 1.966C19.2016 1.966 18.6256 2.104 18.1216 2.38C17.6176 2.644 17.1916 2.992 16.8436 3.424C16.4956 3.856 16.2256 4.354 16.0336 4.918C15.8536 5.47 15.7636 6.034 15.7636 6.61ZM28.9568 13V0.219999H30.9728V11.218H37.8308V13H28.9568ZM40.3685 13V0.219999H42.3845V11.218H49.2425V13H40.3685ZM60.5462 11.218V13H51.7802V0.219999H60.3842V2.002H53.7962V5.638H59.5022V7.312H53.7962V11.218H60.5462ZM62.4523 6.52C62.4523 5.752 62.5903 4.99 62.8663 4.234C63.1423 3.466 63.5443 2.782 64.0723 2.182C64.6123 1.57 65.2663 1.078 66.0343 0.705999C66.8023 0.333999 67.6723 0.147999 68.6443 0.147999C69.8083 0.147999 70.8043 0.405999 71.6323 0.922C72.4603 1.438 73.0843 2.11 73.5043 2.938L71.9203 4C71.7403 3.616 71.5243 3.292 71.2723 3.028C71.0203 2.764 70.7443 2.554 70.4443 2.398C70.1443 2.242 69.8323 2.134 69.5083 2.074C69.1843 2.002 68.8723 1.966 68.5723 1.966C67.9003 1.966 67.3123 2.104 66.8083 2.38C66.3043 2.644 65.8783 2.998 65.5303 3.442C65.1943 3.886 64.9363 4.384 64.7563 4.936C64.5883 5.488 64.5043 6.04 64.5043 6.592C64.5043 7.216 64.6063 7.81 64.8103 8.374C65.0143 8.938 65.2963 9.436 65.6563 9.868C66.0283 10.3 66.4663 10.648 66.9703 10.912C67.4743 11.164 68.0263 11.29 68.6263 11.29C68.9383 11.29 69.2563 11.254 69.5803 11.182C69.9163 11.098 70.2343 10.972 70.5343 10.804C70.8463 10.624 71.1283 10.402 71.3803 10.138C71.6443 9.874 71.8603 9.556 72.0283 9.184L73.7023 10.138C73.4983 10.618 73.2103 11.044 72.8383 11.416C72.4663 11.776 72.0463 12.082 71.5783 12.334C71.1103 12.586 70.6123 12.778 70.0843 12.91C69.5683 13.042 69.0583 13.108 68.5543 13.108C67.6543 13.108 66.8323 12.916 66.0883 12.532C65.3443 12.148 64.7023 11.65 64.1623 11.038C63.6223 10.414 63.2023 9.712 62.9023 8.932C62.6023 8.14 62.4523 7.336 62.4523 6.52ZM85.7219 2.002H81.4739V13H79.4399V2.002H75.1739V0.219999H85.7219V2.002ZM88.3357 13V0.219999H90.3517V13H88.3357ZM99.45 13.09C98.538 13.09 97.704 12.91 96.948 12.55C96.204 12.178 95.562 11.692 95.022 11.092C94.482 10.48 94.062 9.784 93.762 9.004C93.474 8.224 93.33 7.426 93.33 6.61C93.33 5.758 93.486 4.942 93.798 4.162C94.11 3.382 94.536 2.692 95.076 2.092C95.628 1.492 96.276 1.018 97.02 0.669999C97.776 0.309999 98.598 0.129999 99.486 0.129999C100.398 0.129999 101.226 0.321999 101.97 0.705999C102.726 1.078 103.368 1.57 103.896 2.182C104.436 2.794 104.85 3.49 105.138 4.27C105.438 5.038 105.588 5.824 105.588 6.628C105.588 7.48 105.432 8.296 105.12 9.076C104.82 9.856 104.394 10.546 103.842 11.146C103.29 11.734 102.636 12.208 101.88 12.568C101.136 12.916 100.326 13.09 99.45 13.09ZM95.382 6.61C95.382 7.21 95.478 7.792 95.67 8.356C95.862 8.92 96.132 9.418 96.48 9.85C96.84 10.282 97.272 10.63 97.776 10.894C98.28 11.146 98.844 11.272 99.468 11.272C100.116 11.272 100.686 11.14 101.178 10.876C101.682 10.6 102.108 10.24 102.456 9.796C102.804 9.352 103.068 8.854 103.248 8.302C103.428 7.75 103.518 7.186 103.518 6.61C103.518 5.998 103.422 5.416 103.23 4.864C103.038 4.3 102.762 3.808 102.402 3.388C102.054 2.956 101.628 2.614 101.124 2.362C100.632 2.098 100.08 1.966 99.468 1.966C98.82 1.966 98.244 2.104 97.74 2.38C97.236 2.644 96.81 2.992 96.462 3.424C96.114 3.856 95.844 4.354 95.652 4.918C95.472 5.47 95.382 6.034 95.382 6.61ZM110.591 4V13H108.575V0.219999H110.159L117.467 9.436V0.237999H119.501V13H117.827L110.591 4Z" fill="black" fill-opacity="0.2"/>
<path d="M0.63 6.52C0.63 5.752 0.768 4.99 1.044 4.234C1.32 3.466 1.722 2.782 2.25 2.182C2.79 1.57 3.444 1.078 4.212 0.705999C4.98 0.333999 5.85 0.147999 6.822 0.147999C7.986 0.147999 8.982 0.405999 9.81 0.922C10.638 1.438 11.262 2.11 11.682 2.938L10.098 4C9.918 3.616 9.702 3.292 9.45 3.028C9.198 2.764 8.922 2.554 8.622 2.398C8.322 2.242 8.01 2.134 7.686 2.074C7.362 2.002 7.05 1.966 6.75 1.966C6.078 1.966 5.49 2.104 4.986 2.38C4.482 2.644 4.056 2.998 3.708 3.442C3.372 3.886 3.114 4.384 2.934 4.936C2.766 5.488 2.682 6.04 2.682 6.592C2.682 7.216 2.784 7.81 2.988 8.374C3.192 8.938 3.474 9.436 3.834 9.868C4.206 10.3 4.644 10.648 5.148 10.912C5.652 11.164 6.204 11.29 6.804 11.29C7.116 11.29 7.434 11.254 7.758 11.182C8.094 11.098 8.412 10.972 8.712 10.804C9.024 10.624 9.306 10.402 9.558 10.138C9.822 9.874 10.038 9.556 10.206 9.184L11.88 10.138C11.676 10.618 11.388 11.044 11.016 11.416C10.644 11.776 10.224 12.082 9.756 12.334C9.288 12.586 8.79 12.778 8.262 12.91C7.746 13.042 7.236 13.108 6.732 13.108C5.832 13.108 5.01 12.916 4.266 12.532C3.522 12.148 2.88 11.65 2.34 11.038C1.8 10.414 1.38 9.712 1.08 8.932C0.78 8.14 0.63 7.336 0.63 6.52ZM19.8316 13.09C18.9196 13.09 18.0856 12.91 17.3296 12.55C16.5856 12.178 15.9436 11.692 15.4036 11.092C14.8636 10.48 14.4436 9.784 14.1436 9.004C13.8556 8.224 13.7116 7.426 13.7116 6.61C13.7116 5.758 13.8676 4.942 14.1796 4.162C14.4916 3.382 14.9176 2.692 15.4576 2.092C16.0096 1.492 16.6576 1.018 17.4016 0.669999C18.1576 0.309999 18.9796 0.129999 19.8676 0.129999C20.7796 0.129999 21.6076 0.321999 22.3516 0.705999C23.1076 1.078 23.7496 1.57 24.2776 2.182C24.8176 2.794 25.2316 3.49 25.5196 4.27C25.8196 5.038 25.9696 5.824 25.9696 6.628C25.9696 7.48 25.8136 8.296 25.5016 9.076C25.2016 9.856 24.7756 10.546 24.2236 11.146C23.6716 11.734 23.0176 12.208 22.2616 12.568C21.5176 12.916 20.7076 13.09 19.8316 13.09ZM15.7636 6.61C15.7636 7.21 15.8596 7.792 16.0516 8.356C16.2436 8.92 16.5136 9.418 16.8616 9.85C17.2216 10.282 17.6536 10.63 18.1576 10.894C18.6616 11.146 19.2256 11.272 19.8496 11.272C20.4976 11.272 21.0676 11.14 21.5596 10.876C22.0636 10.6 22.4896 10.24 22.8376 9.796C23.1856 9.352 23.4496 8.854 23.6296 8.302C23.8096 7.75 23.8996 7.186 23.8996 6.61C23.8996 5.998 23.8036 5.416 23.6116 4.864C23.4196 4.3 23.1436 3.808 22.7836 3.388C22.4356 2.956 22.0096 2.614 21.5056 2.362C21.0136 2.098 20.4616 1.966 19.8496 1.966C19.2016 1.966 18.6256 2.104 18.1216 2.38C17.6176 2.644 17.1916 2.992 16.8436 3.424C16.4956 3.856 16.2256 4.354 16.0336 4.918C15.8536 5.47 15.7636 6.034 15.7636 6.61ZM28.9568 13V0.219999H30.9728V11.218H37.8308V13H28.9568ZM40.3685 13V0.219999H42.3845V11.218H49.2425V13H40.3685ZM60.5462 11.218V13H51.7802V0.219999H60.3842V2.002H53.7962V5.638H59.5022V7.312H53.7962V11.218H60.5462ZM62.4523 6.52C62.4523 5.752 62.5903 4.99 62.8663 4.234C63.1423 3.466 63.5443 2.782 64.0723 2.182C64.6123 1.57 65.2663 1.078 66.0343 0.705999C66.8023 0.333999 67.6723 0.147999 68.6443 0.147999C69.8083 0.147999 70.8043 0.405999 71.6323 0.922C72.4603 1.438 73.0843 2.11 73.5043 2.938L71.9203 4C71.7403 3.616 71.5243 3.292 71.2723 3.028C71.0203 2.764 70.7443 2.554 70.4443 2.398C70.1443 2.242 69.8323 2.134 69.5083 2.074C69.1843 2.002 68.8723 1.966 68.5723 1.966C67.9003 1.966 67.3123 2.104 66.8083 2.38C66.3043 2.644 65.8783 2.998 65.5303 3.442C65.1943 3.886 64.9363 4.384 64.7563 4.936C64.5883 5.488 64.5043 6.04 64.5043 6.592C64.5043 7.216 64.6063 7.81 64.8103 8.374C65.0143 8.938 65.2963 9.436 65.6563 9.868C66.0283 10.3 66.4663 10.648 66.9703 10.912C67.4743 11.164 68.0263 11.29 68.6263 11.29C68.9383 11.29 69.2563 11.254 69.5803 11.182C69.9163 11.098 70.2343 10.972 70.5343 10.804C70.8463 10.624 71.1283 10.402 71.3803 10.138C71.6443 9.874 71.8603 9.556 72.0283 9.184L73.7023 10.138C73.4983 10.618 73.2103 11.044 72.8383 11.416C72.4663 11.776 72.0463 12.082 71.5783 12.334C71.1103 12.586 70.6123 12.778 70.0843 12.91C69.5683 13.042 69.0583 13.108 68.5543 13.108C67.6543 13.108 66.8323 12.916 66.0883 12.532C65.3443 12.148 64.7023 11.65 64.1623 11.038C63.6223 10.414 63.2023 9.712 62.9023 8.932C62.6023 8.14 62.4523 7.336 62.4523 6.52ZM85.7219 2.002H81.4739V13H79.4399V2.002H75.1739V0.219999H85.7219V2.002ZM88.3357 13V0.219999H90.3517V13H88.3357ZM99.45 13.09C98.538 13.09 97.704 12.91 96.948 12.55C96.204 12.178 95.562 11.692 95.022 11.092C94.482 10.48 94.062 9.784 93.762 9.004C93.474 8.224 93.33 7.426 93.33 6.61C93.33 5.758 93.486 4.942 93.798 4.162C94.11 3.382 94.536 2.692 95.076 2.092C95.628 1.492 96.276 1.018 97.02 0.669999C97.776 0.309999 98.598 0.129999 99.486 0.129999C100.398 0.129999 101.226 0.321999 101.97 0.705999C102.726 1.078 103.368 1.57 103.896 2.182C104.436 2.794 104.85 3.49 105.138 4.27C105.438 5.038 105.588 5.824 105.588 6.628C105.588 7.48 105.432 8.296 105.12 9.076C104.82 9.856 104.394 10.546 103.842 11.146C103.29 11.734 102.636 12.208 101.88 12.568C101.136 12.916 100.326 13.09 99.45 13.09ZM95.382 6.61C95.382 7.21 95.478 7.792 95.67 8.356C95.862 8.92 96.132 9.418 96.48 9.85C96.84 10.282 97.272 10.63 97.776 10.894C98.28 11.146 98.844 11.272 99.468 11.272C100.116 11.272 100.686 11.14 101.178 10.876C101.682 10.6 102.108 10.24 102.456 9.796C102.804 9.352 103.068 8.854 103.248 8.302C103.428 7.75 103.518 7.186 103.518 6.61C103.518 5.998 103.422 5.416 103.23 4.864C103.038 4.3 102.762 3.808 102.402 3.388C102.054 2.956 101.628 2.614 101.124 2.362C100.632 2.098 100.08 1.966 99.468 1.966C98.82 1.966 98.244 2.104 97.74 2.38C97.236 2.644 96.81 2.992 96.462 3.424C96.114 3.856 95.844 4.354 95.652 4.918C95.472 5.47 95.382 6.034 95.382 6.61ZM110.591 4V13H108.575V0.219999H110.159L117.467 9.436V0.237999H119.501V13H117.827L110.591 4Z" fill="black" fill-opacity="0.2"/>
</svg>
