<svg width="79" height="14" viewBox="0 0 79 14" fill="none" xmlns="http://www.w3.org/2000/svg">
<path d="M0.63 6.52C0.63 5.752 0.768 4.99 1.044 4.234C1.32 3.466 1.722 2.782 2.25 2.182C2.79 1.57 3.444 1.078 4.212 0.705999C4.98 0.333999 5.85 0.147999 6.822 0.147999C7.986 0.147999 8.982 0.405999 9.81 0.922C10.638 1.438 11.262 2.11 11.682 2.938L10.098 4C9.918 3.616 9.702 3.292 9.45 3.028C9.198 2.764 8.922 2.554 8.622 2.398C8.322 2.242 8.01 2.134 7.686 2.074C7.362 2.002 7.05 1.966 6.75 1.966C6.078 1.966 5.49 2.104 4.986 2.38C4.482 2.644 4.056 2.998 3.708 3.442C3.372 3.886 3.114 4.384 2.934 4.936C2.766 5.488 2.682 6.04 2.682 6.592C2.682 7.216 2.784 7.81 2.988 8.374C3.192 8.938 3.474 9.436 3.834 9.868C4.206 10.3 4.644 10.648 5.148 10.912C5.652 11.164 6.204 11.29 6.804 11.29C7.116 11.29 7.434 11.254 7.758 11.182C8.094 11.098 8.412 10.972 8.712 10.804C9.024 10.624 9.306 10.402 9.558 10.138C9.822 9.874 10.038 9.556 10.206 9.184L11.88 10.138C11.676 10.618 11.388 11.044 11.016 11.416C10.644 11.776 10.224 12.082 9.756 12.334C9.288 12.586 8.79 12.778 8.262 12.91C7.746 13.042 7.236 13.108 6.732 13.108C5.832 13.108 5.01 12.916 4.266 12.532C3.522 12.148 2.88 11.65 2.34 11.038C1.8 10.414 1.38 9.712 1.08 8.932C0.78 8.14 0.63 7.336 0.63 6.52ZM19.8316 13.09C18.9196 13.09 18.0856 12.91 17.3296 12.55C16.5856 12.178 15.9436 11.692 15.4036 11.092C14.8636 10.48 14.4436 9.784 14.1436 9.004C13.8556 8.224 13.7116 7.426 13.7116 6.61C13.7116 5.758 13.8676 4.942 14.1796 4.162C14.4916 3.382 14.9176 2.692 15.4576 2.092C16.0096 1.492 16.6576 1.018 17.4016 0.669999C18.1576 0.309999 18.9796 0.129999 19.8676 0.129999C20.7796 0.129999 21.6076 0.321999 22.3516 0.705999C23.1076 1.078 23.7496 1.57 24.2776 2.182C24.8176 2.794 25.2316 3.49 25.5196 4.27C25.8196 5.038 25.9696 5.824 25.9696 6.628C25.9696 7.48 25.8136 8.296 25.5016 9.076C25.2016 9.856 24.7756 10.546 24.2236 11.146C23.6716 11.734 23.0176 12.208 22.2616 12.568C21.5176 12.916 20.7076 13.09 19.8316 13.09ZM15.7636 6.61C15.7636 7.21 15.8596 7.792 16.0516 8.356C16.2436 8.92 16.5136 9.418 16.8616 9.85C17.2216 10.282 17.6536 10.63 18.1576 10.894C18.6616 11.146 19.2256 11.272 19.8496 11.272C20.4976 11.272 21.0676 11.14 21.5596 10.876C22.0636 10.6 22.4896 10.24 22.8376 9.796C23.1856 9.352 23.4496 8.854 23.6296 8.302C23.8096 7.75 23.8996 7.186 23.8996 6.61C23.8996 5.998 23.8036 5.416 23.6116 4.864C23.4196 4.3 23.1436 3.808 22.7836 3.388C22.4356 2.956 22.0096 2.614 21.5056 2.362C21.0136 2.098 20.4616 1.966 19.8496 1.966C19.2016 1.966 18.6256 2.104 18.1216 2.38C17.6176 2.644 17.1916 2.992 16.8436 3.424C16.4956 3.856 16.2256 4.354 16.0336 4.918C15.8536 5.47 15.7636 6.034 15.7636 6.61ZM28.9568 13V0.219999H30.9728V11.218H37.8308V13H28.9568ZM44.8699 13.09C43.9579 13.09 43.1239 12.91 42.3679 12.55C41.6239 12.178 40.9819 11.692 40.4419 11.092C39.9019 10.48 39.4819 9.784 39.1819 9.004C38.8939 8.224 38.7499 7.426 38.7499 6.61C38.7499 5.758 38.9059 4.942 39.2179 4.162C39.5299 3.382 39.9559 2.692 40.4959 2.092C41.0479 1.492 41.6959 1.018 42.4399 0.669999C43.1959 0.309999 44.0179 0.129999 44.9059 0.129999C45.8179 0.129999 46.6459 0.321999 47.3899 0.705999C48.1459 1.078 48.7879 1.57 49.3159 2.182C49.8559 2.794 50.2699 3.49 50.5579 4.27C50.8579 5.038 51.0079 5.824 51.0079 6.628C51.0079 7.48 50.8519 8.296 50.5399 9.076C50.2399 9.856 49.8139 10.546 49.2619 11.146C48.7099 11.734 48.0559 12.208 47.2999 12.568C46.5559 12.916 45.7459 13.09 44.8699 13.09ZM40.8019 6.61C40.8019 7.21 40.8979 7.792 41.0899 8.356C41.2819 8.92 41.5519 9.418 41.8999 9.85C42.2599 10.282 42.6919 10.63 43.1959 10.894C43.6999 11.146 44.2639 11.272 44.8879 11.272C45.5359 11.272 46.1059 11.14 46.5979 10.876C47.1019 10.6 47.5279 10.24 47.8759 9.796C48.2239 9.352 48.4879 8.854 48.6679 8.302C48.8479 7.75 48.9379 7.186 48.9379 6.61C48.9379 5.998 48.8419 5.416 48.6499 4.864C48.4579 4.3 48.1819 3.808 47.8219 3.388C47.4739 2.956 47.0479 2.614 46.5439 2.362C46.0519 2.098 45.4999 1.966 44.8879 1.966C44.2399 1.966 43.6639 2.104 43.1599 2.38C42.6559 2.644 42.2299 2.992 41.8819 3.424C41.5339 3.856 41.2639 4.354 41.0719 4.918C40.8919 5.47 40.8019 6.034 40.8019 6.61ZM59.3231 11.272C59.9951 11.272 60.5531 11.14 60.9971 10.876C61.4411 10.612 61.7951 10.27 62.0591 9.85C62.3351 9.418 62.5271 8.932 62.6351 8.392C62.7551 7.84 62.8151 7.276 62.8151 6.7V0.219999H64.8491V6.7C64.8491 7.576 64.7471 8.404 64.5431 9.184C64.3391 9.952 64.0151 10.63 63.5711 11.218C63.1271 11.794 62.5511 12.25 61.8431 12.586C61.1471 12.922 60.3071 13.09 59.3231 13.09C58.3031 13.09 57.4391 12.916 56.7311 12.568C56.0351 12.208 55.4711 11.734 55.0391 11.146C54.6071 10.546 54.2951 9.862 54.1031 9.094C53.9111 8.326 53.8151 7.528 53.8151 6.7V0.219999H55.8311V6.7C55.8311 7.288 55.8851 7.858 55.9931 8.41C56.1131 8.95 56.3051 9.436 56.5691 9.868C56.8451 10.288 57.2051 10.63 57.6491 10.894C58.1051 11.146 58.6631 11.272 59.3231 11.272ZM68.4302 13V0.219999H73.9922C74.5682 0.219999 75.0962 0.339999 75.5762 0.579999C76.0682 0.819999 76.4882 1.138 76.8362 1.534C77.1842 1.918 77.4542 2.362 77.6462 2.866C77.8502 3.358 77.9522 3.862 77.9522 4.378C77.9522 4.81 77.8922 5.224 77.7722 5.62C77.6522 6.016 77.4842 6.382 77.2682 6.718C77.0522 7.054 76.7882 7.348 76.4762 7.6C76.1642 7.84 75.8222 8.02 75.4502 8.14L78.4562 13H76.1702L73.3982 8.554H70.4462V13H68.4302ZM70.4462 6.772H73.9742C74.2622 6.772 74.5202 6.712 74.7482 6.592C74.9882 6.46 75.1922 6.286 75.3602 6.07C75.5282 5.842 75.6602 5.584 75.7562 5.296C75.8522 5.008 75.9002 4.702 75.9002 4.378C75.9002 4.054 75.8402 3.748 75.7202 3.46C75.6122 3.172 75.4622 2.92 75.2702 2.704C75.0902 2.488 74.8742 2.32 74.6222 2.2C74.3822 2.068 74.1302 2.002 73.8662 2.002H70.4462V6.772Z" fill="#1F1F21"/>
<path d="M0.63 6.52C0.63 5.752 0.768 4.99 1.044 4.234C1.32 3.466 1.722 2.782 2.25 2.182C2.79 1.57 3.444 1.078 4.212 0.705999C4.98 0.333999 5.85 0.147999 6.822 0.147999C7.986 0.147999 8.982 0.405999 9.81 0.922C10.638 1.438 11.262 2.11 11.682 2.938L10.098 4C9.918 3.616 9.702 3.292 9.45 3.028C9.198 2.764 8.922 2.554 8.622 2.398C8.322 2.242 8.01 2.134 7.686 2.074C7.362 2.002 7.05 1.966 6.75 1.966C6.078 1.966 5.49 2.104 4.986 2.38C4.482 2.644 4.056 2.998 3.708 3.442C3.372 3.886 3.114 4.384 2.934 4.936C2.766 5.488 2.682 6.04 2.682 6.592C2.682 7.216 2.784 7.81 2.988 8.374C3.192 8.938 3.474 9.436 3.834 9.868C4.206 10.3 4.644 10.648 5.148 10.912C5.652 11.164 6.204 11.29 6.804 11.29C7.116 11.29 7.434 11.254 7.758 11.182C8.094 11.098 8.412 10.972 8.712 10.804C9.024 10.624 9.306 10.402 9.558 10.138C9.822 9.874 10.038 9.556 10.206 9.184L11.88 10.138C11.676 10.618 11.388 11.044 11.016 11.416C10.644 11.776 10.224 12.082 9.756 12.334C9.288 12.586 8.79 12.778 8.262 12.91C7.746 13.042 7.236 13.108 6.732 13.108C5.832 13.108 5.01 12.916 4.266 12.532C3.522 12.148 2.88 11.65 2.34 11.038C1.8 10.414 1.38 9.712 1.08 8.932C0.78 8.14 0.63 7.336 0.63 6.52ZM19.8316 13.09C18.9196 13.09 18.0856 12.91 17.3296 12.55C16.5856 12.178 15.9436 11.692 15.4036 11.092C14.8636 10.48 14.4436 9.784 14.1436 9.004C13.8556 8.224 13.7116 7.426 13.7116 6.61C13.7116 5.758 13.8676 4.942 14.1796 4.162C14.4916 3.382 14.9176 2.692 15.4576 2.092C16.0096 1.492 16.6576 1.018 17.4016 0.669999C18.1576 0.309999 18.9796 0.129999 19.8676 0.129999C20.7796 0.129999 21.6076 0.321999 22.3516 0.705999C23.1076 1.078 23.7496 1.57 24.2776 2.182C24.8176 2.794 25.2316 3.49 25.5196 4.27C25.8196 5.038 25.9696 5.824 25.9696 6.628C25.9696 7.48 25.8136 8.296 25.5016 9.076C25.2016 9.856 24.7756 10.546 24.2236 11.146C23.6716 11.734 23.0176 12.208 22.2616 12.568C21.5176 12.916 20.7076 13.09 19.8316 13.09ZM15.7636 6.61C15.7636 7.21 15.8596 7.792 16.0516 8.356C16.2436 8.92 16.5136 9.418 16.8616 9.85C17.2216 10.282 17.6536 10.63 18.1576 10.894C18.6616 11.146 19.2256 11.272 19.8496 11.272C20.4976 11.272 21.0676 11.14 21.5596 10.876C22.0636 10.6 22.4896 10.24 22.8376 9.796C23.1856 9.352 23.4496 8.854 23.6296 8.302C23.8096 7.75 23.8996 7.186 23.8996 6.61C23.8996 5.998 23.8036 5.416 23.6116 4.864C23.4196 4.3 23.1436 3.808 22.7836 3.388C22.4356 2.956 22.0096 2.614 21.5056 2.362C21.0136 2.098 20.4616 1.966 19.8496 1.966C19.2016 1.966 18.6256 2.104 18.1216 2.38C17.6176 2.644 17.1916 2.992 16.8436 3.424C16.4956 3.856 16.2256 4.354 16.0336 4.918C15.8536 5.47 15.7636 6.034 15.7636 6.61ZM28.9568 13V0.219999H30.9728V11.218H37.8308V13H28.9568ZM44.8699 13.09C43.9579 13.09 43.1239 12.91 42.3679 12.55C41.6239 12.178 40.9819 11.692 40.4419 11.092C39.9019 10.48 39.4819 9.784 39.1819 9.004C38.8939 8.224 38.7499 7.426 38.7499 6.61C38.7499 5.758 38.9059 4.942 39.2179 4.162C39.5299 3.382 39.9559 2.692 40.4959 2.092C41.0479 1.492 41.6959 1.018 42.4399 0.669999C43.1959 0.309999 44.0179 0.129999 44.9059 0.129999C45.8179 0.129999 46.6459 0.321999 47.3899 0.705999C48.1459 1.078 48.7879 1.57 49.3159 2.182C49.8559 2.794 50.2699 3.49 50.5579 4.27C50.8579 5.038 51.0079 5.824 51.0079 6.628C51.0079 7.48 50.8519 8.296 50.5399 9.076C50.2399 9.856 49.8139 10.546 49.2619 11.146C48.7099 11.734 48.0559 12.208 47.2999 12.568C46.5559 12.916 45.7459 13.09 44.8699 13.09ZM40.8019 6.61C40.8019 7.21 40.8979 7.792 41.0899 8.356C41.2819 8.92 41.5519 9.418 41.8999 9.85C42.2599 10.282 42.6919 10.63 43.1959 10.894C43.6999 11.146 44.2639 11.272 44.8879 11.272C45.5359 11.272 46.1059 11.14 46.5979 10.876C47.1019 10.6 47.5279 10.24 47.8759 9.796C48.2239 9.352 48.4879 8.854 48.6679 8.302C48.8479 7.75 48.9379 7.186 48.9379 6.61C48.9379 5.998 48.8419 5.416 48.6499 4.864C48.4579 4.3 48.1819 3.808 47.8219 3.388C47.4739 2.956 47.0479 2.614 46.5439 2.362C46.0519 2.098 45.4999 1.966 44.8879 1.966C44.2399 1.966 43.6639 2.104 43.1599 2.38C42.6559 2.644 42.2299 2.992 41.8819 3.424C41.5339 3.856 41.2639 4.354 41.0719 4.918C40.8919 5.47 40.8019 6.034 40.8019 6.61ZM59.3231 11.272C59.9951 11.272 60.5531 11.14 60.9971 10.876C61.4411 10.612 61.7951 10.27 62.0591 9.85C62.3351 9.418 62.5271 8.932 62.6351 8.392C62.7551 7.84 62.8151 7.276 62.8151 6.7V0.219999H64.8491V6.7C64.8491 7.576 64.7471 8.404 64.5431 9.184C64.3391 9.952 64.0151 10.63 63.5711 11.218C63.1271 11.794 62.5511 12.25 61.8431 12.586C61.1471 12.922 60.3071 13.09 59.3231 13.09C58.3031 13.09 57.4391 12.916 56.7311 12.568C56.0351 12.208 55.4711 11.734 55.0391 11.146C54.6071 10.546 54.2951 9.862 54.1031 9.094C53.9111 8.326 53.8151 7.528 53.8151 6.7V0.219999H55.8311V6.7C55.8311 7.288 55.8851 7.858 55.9931 8.41C56.1131 8.95 56.3051 9.436 56.5691 9.868C56.8451 10.288 57.2051 10.63 57.6491 10.894C58.1051 11.146 58.6631 11.272 59.3231 11.272ZM68.4302 13V0.219999H73.9922C74.5682 0.219999 75.0962 0.339999 75.5762 0.579999C76.0682 0.819999 76.4882 1.138 76.8362 1.534C77.1842 1.918 77.4542 2.362 77.6462 2.866C77.8502 3.358 77.9522 3.862 77.9522 4.378C77.9522 4.81 77.8922 5.224 77.7722 5.62C77.6522 6.016 77.4842 6.382 77.2682 6.718C77.0522 7.054 76.7882 7.348 76.4762 7.6C76.1642 7.84 75.8222 8.02 75.4502 8.14L78.4562 13H76.1702L73.3982 8.554H70.4462V13H68.4302ZM70.4462 6.772H73.9742C74.2622 6.772 74.5202 6.712 74.7482 6.592C74.9882 6.46 75.1922 6.286 75.3602 6.07C75.5282 5.842 75.6602 5.584 75.7562 5.296C75.8522 5.008 75.9002 4.702 75.9002 4.378C75.9002 4.054 75.8402 3.748 75.7202 3.46C75.6122 3.172 75.4622 2.92 75.2702 2.704C75.0902 2.488 74.8742 2.32 74.6222 2.2C74.3822 2.068 74.1302 2.002 73.8662 2.002H70.4462V6.772Z" fill="black" fill-opacity="0.2"/>
<path d="M0.63 6.52C0.63 5.752 0.768 4.99 1.044 4.234C1.32 3.466 1.722 2.782 2.25 2.182C2.79 1.57 3.444 1.078 4.212 0.705999C4.98 0.333999 5.85 0.147999 6.822 0.147999C7.986 0.147999 8.982 0.405999 9.81 0.922C10.638 1.438 11.262 2.11 11.682 2.938L10.098 4C9.918 3.616 9.702 3.292 9.45 3.028C9.198 2.764 8.922 2.554 8.622 2.398C8.322 2.242 8.01 2.134 7.686 2.074C7.362 2.002 7.05 1.966 6.75 1.966C6.078 1.966 5.49 2.104 4.986 2.38C4.482 2.644 4.056 2.998 3.708 3.442C3.372 3.886 3.114 4.384 2.934 4.936C2.766 5.488 2.682 6.04 2.682 6.592C2.682 7.216 2.784 7.81 2.988 8.374C3.192 8.938 3.474 9.436 3.834 9.868C4.206 10.3 4.644 10.648 5.148 10.912C5.652 11.164 6.204 11.29 6.804 11.29C7.116 11.29 7.434 11.254 7.758 11.182C8.094 11.098 8.412 10.972 8.712 10.804C9.024 10.624 9.306 10.402 9.558 10.138C9.822 9.874 10.038 9.556 10.206 9.184L11.88 10.138C11.676 10.618 11.388 11.044 11.016 11.416C10.644 11.776 10.224 12.082 9.756 12.334C9.288 12.586 8.79 12.778 8.262 12.91C7.746 13.042 7.236 13.108 6.732 13.108C5.832 13.108 5.01 12.916 4.266 12.532C3.522 12.148 2.88 11.65 2.34 11.038C1.8 10.414 1.38 9.712 1.08 8.932C0.78 8.14 0.63 7.336 0.63 6.52ZM19.8316 13.09C18.9196 13.09 18.0856 12.91 17.3296 12.55C16.5856 12.178 15.9436 11.692 15.4036 11.092C14.8636 10.48 14.4436 9.784 14.1436 9.004C13.8556 8.224 13.7116 7.426 13.7116 6.61C13.7116 5.758 13.8676 4.942 14.1796 4.162C14.4916 3.382 14.9176 2.692 15.4576 2.092C16.0096 1.492 16.6576 1.018 17.4016 0.669999C18.1576 0.309999 18.9796 0.129999 19.8676 0.129999C20.7796 0.129999 21.6076 0.321999 22.3516 0.705999C23.1076 1.078 23.7496 1.57 24.2776 2.182C24.8176 2.794 25.2316 3.49 25.5196 4.27C25.8196 5.038 25.9696 5.824 25.9696 6.628C25.9696 7.48 25.8136 8.296 25.5016 9.076C25.2016 9.856 24.7756 10.546 24.2236 11.146C23.6716 11.734 23.0176 12.208 22.2616 12.568C21.5176 12.916 20.7076 13.09 19.8316 13.09ZM15.7636 6.61C15.7636 7.21 15.8596 7.792 16.0516 8.356C16.2436 8.92 16.5136 9.418 16.8616 9.85C17.2216 10.282 17.6536 10.63 18.1576 10.894C18.6616 11.146 19.2256 11.272 19.8496 11.272C20.4976 11.272 21.0676 11.14 21.5596 10.876C22.0636 10.6 22.4896 10.24 22.8376 9.796C23.1856 9.352 23.4496 8.854 23.6296 8.302C23.8096 7.75 23.8996 7.186 23.8996 6.61C23.8996 5.998 23.8036 5.416 23.6116 4.864C23.4196 4.3 23.1436 3.808 22.7836 3.388C22.4356 2.956 22.0096 2.614 21.5056 2.362C21.0136 2.098 20.4616 1.966 19.8496 1.966C19.2016 1.966 18.6256 2.104 18.1216 2.38C17.6176 2.644 17.1916 2.992 16.8436 3.424C16.4956 3.856 16.2256 4.354 16.0336 4.918C15.8536 5.47 15.7636 6.034 15.7636 6.61ZM28.9568 13V0.219999H30.9728V11.218H37.8308V13H28.9568ZM44.8699 13.09C43.9579 13.09 43.1239 12.91 42.3679 12.55C41.6239 12.178 40.9819 11.692 40.4419 11.092C39.9019 10.48 39.4819 9.784 39.1819 9.004C38.8939 8.224 38.7499 7.426 38.7499 6.61C38.7499 5.758 38.9059 4.942 39.2179 4.162C39.5299 3.382 39.9559 2.692 40.4959 2.092C41.0479 1.492 41.6959 1.018 42.4399 0.669999C43.1959 0.309999 44.0179 0.129999 44.9059 0.129999C45.8179 0.129999 46.6459 0.321999 47.3899 0.705999C48.1459 1.078 48.7879 1.57 49.3159 2.182C49.8559 2.794 50.2699 3.49 50.5579 4.27C50.8579 5.038 51.0079 5.824 51.0079 6.628C51.0079 7.48 50.8519 8.296 50.5399 9.076C50.2399 9.856 49.8139 10.546 49.2619 11.146C48.7099 11.734 48.0559 12.208 47.2999 12.568C46.5559 12.916 45.7459 13.09 44.8699 13.09ZM40.8019 6.61C40.8019 7.21 40.8979 7.792 41.0899 8.356C41.2819 8.92 41.5519 9.418 41.8999 9.85C42.2599 10.282 42.6919 10.63 43.1959 10.894C43.6999 11.146 44.2639 11.272 44.8879 11.272C45.5359 11.272 46.1059 11.14 46.5979 10.876C47.1019 10.6 47.5279 10.24 47.8759 9.796C48.2239 9.352 48.4879 8.854 48.6679 8.302C48.8479 7.75 48.9379 7.186 48.9379 6.61C48.9379 5.998 48.8419 5.416 48.6499 4.864C48.4579 4.3 48.1819 3.808 47.8219 3.388C47.4739 2.956 47.0479 2.614 46.5439 2.362C46.0519 2.098 45.4999 1.966 44.8879 1.966C44.2399 1.966 43.6639 2.104 43.1599 2.38C42.6559 2.644 42.2299 2.992 41.8819 3.424C41.5339 3.856 41.2639 4.354 41.0719 4.918C40.8919 5.47 40.8019 6.034 40.8019 6.61ZM59.3231 11.272C59.9951 11.272 60.5531 11.14 60.9971 10.876C61.4411 10.612 61.7951 10.27 62.0591 9.85C62.3351 9.418 62.5271 8.932 62.6351 8.392C62.7551 7.84 62.8151 7.276 62.8151 6.7V0.219999H64.8491V6.7C64.8491 7.576 64.7471 8.404 64.5431 9.184C64.3391 9.952 64.0151 10.63 63.5711 11.218C63.1271 11.794 62.5511 12.25 61.8431 12.586C61.1471 12.922 60.3071 13.09 59.3231 13.09C58.3031 13.09 57.4391 12.916 56.7311 12.568C56.0351 12.208 55.4711 11.734 55.0391 11.146C54.6071 10.546 54.2951 9.862 54.1031 9.094C53.9111 8.326 53.8151 7.528 53.8151 6.7V0.219999H55.8311V6.7C55.8311 7.288 55.8851 7.858 55.9931 8.41C56.1131 8.95 56.3051 9.436 56.5691 9.868C56.8451 10.288 57.2051 10.63 57.6491 10.894C58.1051 11.146 58.6631 11.272 59.3231 11.272ZM68.4302 13V0.219999H73.9922C74.5682 0.219999 75.0962 0.339999 75.5762 0.579999C76.0682 0.819999 76.4882 1.138 76.8362 1.534C77.1842 1.918 77.4542 2.362 77.6462 2.866C77.8502 3.358 77.9522 3.862 77.9522 4.378C77.9522 4.81 77.8922 5.224 77.7722 5.62C77.6522 6.016 77.4842 6.382 77.2682 6.718C77.0522 7.054 76.7882 7.348 76.4762 7.6C76.1642 7.84 75.8222 8.02 75.4502 8.14L78.4562 13H76.1702L73.3982 8.554H70.4462V13H68.4302ZM70.4462 6.772H73.9742C74.2622 6.772 74.5202 6.712 74.7482 6.592C74.9882 6.46 75.1922 6.286 75.3602 6.07C75.5282 5.842 75.6602 5.584 75.7562 5.296C75.8522 5.008 75.9002 4.702 75.9002 4.378C75.9002 4.054 75.8402 3.748 75.7202 3.46C75.6122 3.172 75.4622 2.92 75.2702 2.704C75.0902 2.488 74.8742 2.32 74.6222 2.2C74.3822 2.068 74.1302 2.002 73.8662 2.002H70.4462V6.772Z" fill="black" fill-opacity="0.2"/>
</svg>
