<svg width="40" height="40" viewBox="0 0 40 40" fill="none" xmlns="http://www.w3.org/2000/svg">
<rect width="40" height="40" rx="20" fill="#1F1F21"/>
<rect width="40" height="40" rx="20" fill="black" fill-opacity="0.2"/>
<rect width="40" height="40" rx="20" fill="black" fill-opacity="0.2"/>
<path d="M25 10H15C12.2386 10 10 12.2386 10 15V25C10 27.7614 12.2386 30 15 30H25C27.7614 30 30 27.7614 30 25V15C30 12.2386 27.7614 10 25 10Z" stroke="#EFF0F2" stroke-width="2" stroke-linecap="round" stroke-linejoin="round"/>
<path d="M24.0002 19.3698C24.1236 20.2021 23.9815 21.052 23.594 21.7988C23.2065 22.5456 22.5933 23.1512 21.8418 23.5295C21.0903 23.9077 20.2386 24.0394 19.408 23.9057C18.5773 23.7721 17.81 23.3799 17.215 22.785C16.6201 22.1901 16.2279 21.4227 16.0943 20.592C15.9606 19.7614 16.0923 18.9097 16.4705 18.1582C16.8488 17.4067 17.4544 16.7936 18.2012 16.4061C18.948 16.0186 19.7979 15.8764 20.6302 15.9998C21.4791 16.1257 22.265 16.5213 22.8719 17.1281C23.4787 17.735 23.8743 18.5209 24.0002 19.3698Z" stroke="#EFF0F2" stroke-width="2" stroke-linecap="round" stroke-linejoin="round"/>
<path d="M25.9946 14.4267C26.01 14.5307 25.9922 14.6369 25.9438 14.7303C25.8954 14.8236 25.8187 14.8993 25.7248 14.9466C25.6309 14.9939 25.5244 15.0104 25.4206 14.9936C25.3167 14.9769 25.2208 14.9279 25.1464 14.8536C25.0721 14.7792 25.0231 14.6833 25.0064 14.5794C24.9896 14.4756 25.0061 14.3691 25.0534 14.2752C25.1007 14.1813 25.1764 14.1046 25.2697 14.0562C25.3631 14.0078 25.4693 13.99 25.5733 14.0054C25.6795 14.0211 25.7777 14.0706 25.8536 14.1464C25.9294 14.2223 25.9789 14.3205 25.9946 14.4267Z" stroke="#EFF0F2" stroke-width="2" stroke-linecap="round" stroke-linejoin="round"/>
</svg>
