<svg width="54" height="14" viewBox="0 0 54 14" fill="none" xmlns="http://www.w3.org/2000/svg">
<path d="M0.44 13V0.219999H5.804C6.38 0.219999 6.908 0.339999 7.388 0.579999C7.88 0.819999 8.3 1.138 8.648 1.534C8.996 1.918 9.266 2.362 9.458 2.866C9.662 3.358 9.764 3.862 9.764 4.378C9.764 4.918 9.668 5.44 9.476 5.944C9.296 6.436 9.038 6.88 8.702 7.276C8.366 7.66 7.958 7.972 7.478 8.212C7.01 8.44 6.488 8.554 5.912 8.554H2.456V13H0.44ZM2.456 6.772H5.786C6.074 6.772 6.332 6.712 6.56 6.592C6.8 6.472 7.004 6.304 7.172 6.088C7.34 5.872 7.472 5.62 7.568 5.332C7.664 5.044 7.712 4.726 7.712 4.378C7.712 4.018 7.658 3.694 7.55 3.406C7.442 3.118 7.292 2.872 7.1 2.668C6.908 2.452 6.686 2.29 6.434 2.182C6.194 2.062 5.942 2.002 5.678 2.002H2.456V6.772ZM12.5548 13V0.219999H18.1168C18.6928 0.219999 19.2208 0.339999 19.7008 0.579999C20.1928 0.819999 20.6128 1.138 20.9608 1.534C21.3088 1.918 21.5788 2.362 21.7708 2.866C21.9748 3.358 22.0768 3.862 22.0768 4.378C22.0768 4.81 22.0168 5.224 21.8968 5.62C21.7768 6.016 21.6088 6.382 21.3928 6.718C21.1768 7.054 20.9128 7.348 20.6008 7.6C20.2888 7.84 19.9468 8.02 19.5748 8.14L22.5808 13H20.2948L17.5228 8.554H14.5708V13H12.5548ZM14.5708 6.772H18.0988C18.3868 6.772 18.6448 6.712 18.8728 6.592C19.1128 6.46 19.3168 6.286 19.4848 6.07C19.6528 5.842 19.7848 5.584 19.8808 5.296C19.9768 5.008 20.0248 4.702 20.0248 4.378C20.0248 4.054 19.9648 3.748 19.8448 3.46C19.7368 3.172 19.5868 2.92 19.3948 2.704C19.2148 2.488 18.9988 2.32 18.7468 2.2C18.5068 2.068 18.2548 2.002 17.9908 2.002H14.5708V6.772ZM25.3552 13V0.219999H27.3712V13H25.3552ZM30.3495 6.52C30.3495 5.752 30.4875 4.99 30.7635 4.234C31.0395 3.466 31.4415 2.782 31.9695 2.182C32.5095 1.57 33.1635 1.078 33.9315 0.705999C34.6995 0.333999 35.5695 0.147999 36.5415 0.147999C37.7055 0.147999 38.7015 0.405999 39.5295 0.922C40.3575 1.438 40.9815 2.11 41.4015 2.938L39.8175 4C39.6375 3.616 39.4215 3.292 39.1695 3.028C38.9175 2.764 38.6415 2.554 38.3415 2.398C38.0415 2.242 37.7295 2.134 37.4055 2.074C37.0815 2.002 36.7695 1.966 36.4695 1.966C35.7975 1.966 35.2095 2.104 34.7055 2.38C34.2015 2.644 33.7755 2.998 33.4275 3.442C33.0915 3.886 32.8335 4.384 32.6535 4.936C32.4855 5.488 32.4015 6.04 32.4015 6.592C32.4015 7.216 32.5035 7.81 32.7075 8.374C32.9115 8.938 33.1935 9.436 33.5535 9.868C33.9255 10.3 34.3635 10.648 34.8675 10.912C35.3715 11.164 35.9235 11.29 36.5235 11.29C36.8355 11.29 37.1535 11.254 37.4775 11.182C37.8135 11.098 38.1315 10.972 38.4315 10.804C38.7435 10.624 39.0255 10.402 39.2775 10.138C39.5415 9.874 39.7575 9.556 39.9255 9.184L41.5995 10.138C41.3955 10.618 41.1075 11.044 40.7355 11.416C40.3635 11.776 39.9435 12.082 39.4755 12.334C39.0075 12.586 38.5095 12.778 37.9815 12.91C37.4655 13.042 36.9555 13.108 36.4515 13.108C35.5515 13.108 34.7295 12.916 33.9855 12.532C33.2415 12.148 32.5995 11.65 32.0595 11.038C31.5195 10.414 31.0995 9.712 30.7995 8.932C30.4995 8.14 30.3495 7.336 30.3495 6.52ZM53.1302 11.218V13H44.3642V0.219999H52.9682V2.002H46.3802V5.638H52.0862V7.312H46.3802V11.218H53.1302Z" fill="#1F1F21"/>
<path d="M0.44 13V0.219999H5.804C6.38 0.219999 6.908 0.339999 7.388 0.579999C7.88 0.819999 8.3 1.138 8.648 1.534C8.996 1.918 9.266 2.362 9.458 2.866C9.662 3.358 9.764 3.862 9.764 4.378C9.764 4.918 9.668 5.44 9.476 5.944C9.296 6.436 9.038 6.88 8.702 7.276C8.366 7.66 7.958 7.972 7.478 8.212C7.01 8.44 6.488 8.554 5.912 8.554H2.456V13H0.44ZM2.456 6.772H5.786C6.074 6.772 6.332 6.712 6.56 6.592C6.8 6.472 7.004 6.304 7.172 6.088C7.34 5.872 7.472 5.62 7.568 5.332C7.664 5.044 7.712 4.726 7.712 4.378C7.712 4.018 7.658 3.694 7.55 3.406C7.442 3.118 7.292 2.872 7.1 2.668C6.908 2.452 6.686 2.29 6.434 2.182C6.194 2.062 5.942 2.002 5.678 2.002H2.456V6.772ZM12.5548 13V0.219999H18.1168C18.6928 0.219999 19.2208 0.339999 19.7008 0.579999C20.1928 0.819999 20.6128 1.138 20.9608 1.534C21.3088 1.918 21.5788 2.362 21.7708 2.866C21.9748 3.358 22.0768 3.862 22.0768 4.378C22.0768 4.81 22.0168 5.224 21.8968 5.62C21.7768 6.016 21.6088 6.382 21.3928 6.718C21.1768 7.054 20.9128 7.348 20.6008 7.6C20.2888 7.84 19.9468 8.02 19.5748 8.14L22.5808 13H20.2948L17.5228 8.554H14.5708V13H12.5548ZM14.5708 6.772H18.0988C18.3868 6.772 18.6448 6.712 18.8728 6.592C19.1128 6.46 19.3168 6.286 19.4848 6.07C19.6528 5.842 19.7848 5.584 19.8808 5.296C19.9768 5.008 20.0248 4.702 20.0248 4.378C20.0248 4.054 19.9648 3.748 19.8448 3.46C19.7368 3.172 19.5868 2.92 19.3948 2.704C19.2148 2.488 18.9988 2.32 18.7468 2.2C18.5068 2.068 18.2548 2.002 17.9908 2.002H14.5708V6.772ZM25.3552 13V0.219999H27.3712V13H25.3552ZM30.3495 6.52C30.3495 5.752 30.4875 4.99 30.7635 4.234C31.0395 3.466 31.4415 2.782 31.9695 2.182C32.5095 1.57 33.1635 1.078 33.9315 0.705999C34.6995 0.333999 35.5695 0.147999 36.5415 0.147999C37.7055 0.147999 38.7015 0.405999 39.5295 0.922C40.3575 1.438 40.9815 2.11 41.4015 2.938L39.8175 4C39.6375 3.616 39.4215 3.292 39.1695 3.028C38.9175 2.764 38.6415 2.554 38.3415 2.398C38.0415 2.242 37.7295 2.134 37.4055 2.074C37.0815 2.002 36.7695 1.966 36.4695 1.966C35.7975 1.966 35.2095 2.104 34.7055 2.38C34.2015 2.644 33.7755 2.998 33.4275 3.442C33.0915 3.886 32.8335 4.384 32.6535 4.936C32.4855 5.488 32.4015 6.04 32.4015 6.592C32.4015 7.216 32.5035 7.81 32.7075 8.374C32.9115 8.938 33.1935 9.436 33.5535 9.868C33.9255 10.3 34.3635 10.648 34.8675 10.912C35.3715 11.164 35.9235 11.29 36.5235 11.29C36.8355 11.29 37.1535 11.254 37.4775 11.182C37.8135 11.098 38.1315 10.972 38.4315 10.804C38.7435 10.624 39.0255 10.402 39.2775 10.138C39.5415 9.874 39.7575 9.556 39.9255 9.184L41.5995 10.138C41.3955 10.618 41.1075 11.044 40.7355 11.416C40.3635 11.776 39.9435 12.082 39.4755 12.334C39.0075 12.586 38.5095 12.778 37.9815 12.91C37.4655 13.042 36.9555 13.108 36.4515 13.108C35.5515 13.108 34.7295 12.916 33.9855 12.532C33.2415 12.148 32.5995 11.65 32.0595 11.038C31.5195 10.414 31.0995 9.712 30.7995 8.932C30.4995 8.14 30.3495 7.336 30.3495 6.52ZM53.1302 11.218V13H44.3642V0.219999H52.9682V2.002H46.3802V5.638H52.0862V7.312H46.3802V11.218H53.1302Z" fill="black" fill-opacity="0.2"/>
<path d="M0.44 13V0.219999H5.804C6.38 0.219999 6.908 0.339999 7.388 0.579999C7.88 0.819999 8.3 1.138 8.648 1.534C8.996 1.918 9.266 2.362 9.458 2.866C9.662 3.358 9.764 3.862 9.764 4.378C9.764 4.918 9.668 5.44 9.476 5.944C9.296 6.436 9.038 6.88 8.702 7.276C8.366 7.66 7.958 7.972 7.478 8.212C7.01 8.44 6.488 8.554 5.912 8.554H2.456V13H0.44ZM2.456 6.772H5.786C6.074 6.772 6.332 6.712 6.56 6.592C6.8 6.472 7.004 6.304 7.172 6.088C7.34 5.872 7.472 5.62 7.568 5.332C7.664 5.044 7.712 4.726 7.712 4.378C7.712 4.018 7.658 3.694 7.55 3.406C7.442 3.118 7.292 2.872 7.1 2.668C6.908 2.452 6.686 2.29 6.434 2.182C6.194 2.062 5.942 2.002 5.678 2.002H2.456V6.772ZM12.5548 13V0.219999H18.1168C18.6928 0.219999 19.2208 0.339999 19.7008 0.579999C20.1928 0.819999 20.6128 1.138 20.9608 1.534C21.3088 1.918 21.5788 2.362 21.7708 2.866C21.9748 3.358 22.0768 3.862 22.0768 4.378C22.0768 4.81 22.0168 5.224 21.8968 5.62C21.7768 6.016 21.6088 6.382 21.3928 6.718C21.1768 7.054 20.9128 7.348 20.6008 7.6C20.2888 7.84 19.9468 8.02 19.5748 8.14L22.5808 13H20.2948L17.5228 8.554H14.5708V13H12.5548ZM14.5708 6.772H18.0988C18.3868 6.772 18.6448 6.712 18.8728 6.592C19.1128 6.46 19.3168 6.286 19.4848 6.07C19.6528 5.842 19.7848 5.584 19.8808 5.296C19.9768 5.008 20.0248 4.702 20.0248 4.378C20.0248 4.054 19.9648 3.748 19.8448 3.46C19.7368 3.172 19.5868 2.92 19.3948 2.704C19.2148 2.488 18.9988 2.32 18.7468 2.2C18.5068 2.068 18.2548 2.002 17.9908 2.002H14.5708V6.772ZM25.3552 13V0.219999H27.3712V13H25.3552ZM30.3495 6.52C30.3495 5.752 30.4875 4.99 30.7635 4.234C31.0395 3.466 31.4415 2.782 31.9695 2.182C32.5095 1.57 33.1635 1.078 33.9315 0.705999C34.6995 0.333999 35.5695 0.147999 36.5415 0.147999C37.7055 0.147999 38.7015 0.405999 39.5295 0.922C40.3575 1.438 40.9815 2.11 41.4015 2.938L39.8175 4C39.6375 3.616 39.4215 3.292 39.1695 3.028C38.9175 2.764 38.6415 2.554 38.3415 2.398C38.0415 2.242 37.7295 2.134 37.4055 2.074C37.0815 2.002 36.7695 1.966 36.4695 1.966C35.7975 1.966 35.2095 2.104 34.7055 2.38C34.2015 2.644 33.7755 2.998 33.4275 3.442C33.0915 3.886 32.8335 4.384 32.6535 4.936C32.4855 5.488 32.4015 6.04 32.4015 6.592C32.4015 7.216 32.5035 7.81 32.7075 8.374C32.9115 8.938 33.1935 9.436 33.5535 9.868C33.9255 10.3 34.3635 10.648 34.8675 10.912C35.3715 11.164 35.9235 11.29 36.5235 11.29C36.8355 11.29 37.1535 11.254 37.4775 11.182C37.8135 11.098 38.1315 10.972 38.4315 10.804C38.7435 10.624 39.0255 10.402 39.2775 10.138C39.5415 9.874 39.7575 9.556 39.9255 9.184L41.5995 10.138C41.3955 10.618 41.1075 11.044 40.7355 11.416C40.3635 11.776 39.9435 12.082 39.4755 12.334C39.0075 12.586 38.5095 12.778 37.9815 12.91C37.4655 13.042 36.9555 13.108 36.4515 13.108C35.5515 13.108 34.7295 12.916 33.9855 12.532C33.2415 12.148 32.5995 11.65 32.0595 11.038C31.5195 10.414 31.0995 9.712 30.7995 8.932C30.4995 8.14 30.3495 7.336 30.3495 6.52ZM53.1302 11.218V13H44.3642V0.219999H52.9682V2.002H46.3802V5.638H52.0862V7.312H46.3802V11.218H53.1302Z" fill="black" fill-opacity="0.2"/>
</svg>
