<svg width="41" height="14" viewBox="0 0 41 14" fill="none" xmlns="http://www.w3.org/2000/svg">
<path d="M9 3.226C8.88 3.094 8.706 2.956 8.478 2.812C8.25 2.656 7.98 2.512 7.668 2.38C7.368 2.248 7.032 2.14 6.66 2.056C6.3 1.972 5.928 1.93 5.544 1.93C4.692 1.93 4.062 2.086 3.654 2.398C3.258 2.71 3.06 3.142 3.06 3.694C3.06 4.006 3.12 4.264 3.24 4.468C3.372 4.66 3.57 4.834 3.834 4.99C4.098 5.134 4.428 5.266 4.824 5.386C5.22 5.494 5.682 5.614 6.21 5.746C6.858 5.902 7.44 6.076 7.956 6.268C8.484 6.46 8.928 6.694 9.288 6.97C9.648 7.246 9.924 7.588 10.116 7.996C10.32 8.392 10.422 8.878 10.422 9.454C10.422 10.102 10.296 10.66 10.044 11.128C9.804 11.596 9.468 11.98 9.036 12.28C8.616 12.568 8.124 12.784 7.56 12.928C6.996 13.06 6.39 13.126 5.742 13.126C4.77 13.126 3.828 12.982 2.916 12.694C2.016 12.394 1.2 11.962 0.468 11.398L1.386 9.67C1.542 9.826 1.764 10 2.052 10.192C2.352 10.384 2.694 10.564 3.078 10.732C3.474 10.888 3.9 11.026 4.356 11.146C4.812 11.254 5.286 11.308 5.778 11.308C6.57 11.308 7.182 11.17 7.614 10.894C8.046 10.618 8.262 10.21 8.262 9.67C8.262 9.346 8.178 9.076 8.01 8.86C7.854 8.644 7.626 8.458 7.326 8.302C7.026 8.134 6.66 7.984 6.228 7.852C5.796 7.72 5.304 7.582 4.752 7.438C4.116 7.27 3.558 7.096 3.078 6.916C2.61 6.724 2.22 6.496 1.908 6.232C1.596 5.968 1.356 5.662 1.188 5.314C1.032 4.954 0.954 4.522 0.954 4.018C0.954 3.394 1.074 2.842 1.314 2.362C1.554 1.87 1.878 1.462 2.286 1.138C2.706 0.801999 3.198 0.549999 3.762 0.381999C4.326 0.213999 4.938 0.129999 5.598 0.129999C6.462 0.129999 7.26 0.267999 7.992 0.543999C8.724 0.819999 9.366 1.162 9.918 1.57L9 3.226ZM13.3439 13V0.219999H15.3599V13H13.3439ZM18.2662 11.452L26.0242 2.002H18.4462V0.219999H28.3822V1.768L20.8042 11.218H28.4002V13H18.2662V11.452ZM40.1345 11.218V13H31.3685V0.219999H39.9725V2.002H33.3845V5.638H39.0905V7.312H33.3845V11.218H40.1345Z" fill="#1F1F21"/>
<path d="M9 3.226C8.88 3.094 8.706 2.956 8.478 2.812C8.25 2.656 7.98 2.512 7.668 2.38C7.368 2.248 7.032 2.14 6.66 2.056C6.3 1.972 5.928 1.93 5.544 1.93C4.692 1.93 4.062 2.086 3.654 2.398C3.258 2.71 3.06 3.142 3.06 3.694C3.06 4.006 3.12 4.264 3.24 4.468C3.372 4.66 3.57 4.834 3.834 4.99C4.098 5.134 4.428 5.266 4.824 5.386C5.22 5.494 5.682 5.614 6.21 5.746C6.858 5.902 7.44 6.076 7.956 6.268C8.484 6.46 8.928 6.694 9.288 6.97C9.648 7.246 9.924 7.588 10.116 7.996C10.32 8.392 10.422 8.878 10.422 9.454C10.422 10.102 10.296 10.66 10.044 11.128C9.804 11.596 9.468 11.98 9.036 12.28C8.616 12.568 8.124 12.784 7.56 12.928C6.996 13.06 6.39 13.126 5.742 13.126C4.77 13.126 3.828 12.982 2.916 12.694C2.016 12.394 1.2 11.962 0.468 11.398L1.386 9.67C1.542 9.826 1.764 10 2.052 10.192C2.352 10.384 2.694 10.564 3.078 10.732C3.474 10.888 3.9 11.026 4.356 11.146C4.812 11.254 5.286 11.308 5.778 11.308C6.57 11.308 7.182 11.17 7.614 10.894C8.046 10.618 8.262 10.21 8.262 9.67C8.262 9.346 8.178 9.076 8.01 8.86C7.854 8.644 7.626 8.458 7.326 8.302C7.026 8.134 6.66 7.984 6.228 7.852C5.796 7.72 5.304 7.582 4.752 7.438C4.116 7.27 3.558 7.096 3.078 6.916C2.61 6.724 2.22 6.496 1.908 6.232C1.596 5.968 1.356 5.662 1.188 5.314C1.032 4.954 0.954 4.522 0.954 4.018C0.954 3.394 1.074 2.842 1.314 2.362C1.554 1.87 1.878 1.462 2.286 1.138C2.706 0.801999 3.198 0.549999 3.762 0.381999C4.326 0.213999 4.938 0.129999 5.598 0.129999C6.462 0.129999 7.26 0.267999 7.992 0.543999C8.724 0.819999 9.366 1.162 9.918 1.57L9 3.226ZM13.3439 13V0.219999H15.3599V13H13.3439ZM18.2662 11.452L26.0242 2.002H18.4462V0.219999H28.3822V1.768L20.8042 11.218H28.4002V13H18.2662V11.452ZM40.1345 11.218V13H31.3685V0.219999H39.9725V2.002H33.3845V5.638H39.0905V7.312H33.3845V11.218H40.1345Z" fill="black" fill-opacity="0.2"/>
<path d="M9 3.226C8.88 3.094 8.706 2.956 8.478 2.812C8.25 2.656 7.98 2.512 7.668 2.38C7.368 2.248 7.032 2.14 6.66 2.056C6.3 1.972 5.928 1.93 5.544 1.93C4.692 1.93 4.062 2.086 3.654 2.398C3.258 2.71 3.06 3.142 3.06 3.694C3.06 4.006 3.12 4.264 3.24 4.468C3.372 4.66 3.57 4.834 3.834 4.99C4.098 5.134 4.428 5.266 4.824 5.386C5.22 5.494 5.682 5.614 6.21 5.746C6.858 5.902 7.44 6.076 7.956 6.268C8.484 6.46 8.928 6.694 9.288 6.97C9.648 7.246 9.924 7.588 10.116 7.996C10.32 8.392 10.422 8.878 10.422 9.454C10.422 10.102 10.296 10.66 10.044 11.128C9.804 11.596 9.468 11.98 9.036 12.28C8.616 12.568 8.124 12.784 7.56 12.928C6.996 13.06 6.39 13.126 5.742 13.126C4.77 13.126 3.828 12.982 2.916 12.694C2.016 12.394 1.2 11.962 0.468 11.398L1.386 9.67C1.542 9.826 1.764 10 2.052 10.192C2.352 10.384 2.694 10.564 3.078 10.732C3.474 10.888 3.9 11.026 4.356 11.146C4.812 11.254 5.286 11.308 5.778 11.308C6.57 11.308 7.182 11.17 7.614 10.894C8.046 10.618 8.262 10.21 8.262 9.67C8.262 9.346 8.178 9.076 8.01 8.86C7.854 8.644 7.626 8.458 7.326 8.302C7.026 8.134 6.66 7.984 6.228 7.852C5.796 7.72 5.304 7.582 4.752 7.438C4.116 7.27 3.558 7.096 3.078 6.916C2.61 6.724 2.22 6.496 1.908 6.232C1.596 5.968 1.356 5.662 1.188 5.314C1.032 4.954 0.954 4.522 0.954 4.018C0.954 3.394 1.074 2.842 1.314 2.362C1.554 1.87 1.878 1.462 2.286 1.138C2.706 0.801999 3.198 0.549999 3.762 0.381999C4.326 0.213999 4.938 0.129999 5.598 0.129999C6.462 0.129999 7.26 0.267999 7.992 0.543999C8.724 0.819999 9.366 1.162 9.918 1.57L9 3.226ZM13.3439 13V0.219999H15.3599V13H13.3439ZM18.2662 11.452L26.0242 2.002H18.4462V0.219999H28.3822V1.768L20.8042 11.218H28.4002V13H18.2662V11.452ZM40.1345 11.218V13H31.3685V0.219999H39.9725V2.002H33.3845V5.638H39.0905V7.312H33.3845V11.218H40.1345Z" fill="black" fill-opacity="0.2"/>
</svg>
