<svg width="220" height="48" viewBox="0 0 220 48" fill="none" xmlns="http://www.w3.org/2000/svg">
<path d="M97.4268 26.572C97.4268 27.0307 97.3308 27.4413 97.1388 27.804C96.9574 28.1667 96.7068 28.476 96.3868 28.732C96.0774 28.9773 95.7094 29.1693 95.2828 29.308C94.8561 29.436 94.4028 29.5 93.9228 29.5H88.4988V18.14H94.3548C94.7494 18.14 95.1068 18.2253 95.4268 18.396C95.7468 18.5667 96.0188 18.7907 96.2428 19.068C96.4668 19.3347 96.6374 19.644 96.7548 19.996C96.8828 20.3373 96.9468 20.684 96.9468 21.036C96.9468 21.5907 96.8028 22.1133 96.5148 22.604C96.2374 23.084 95.8374 23.4413 95.3148 23.676C95.9654 23.868 96.4774 24.22 96.8508 24.732C97.2348 25.2333 97.4268 25.8467 97.4268 26.572ZM95.5868 26.236C95.5868 26.0013 95.5441 25.7773 95.4588 25.564C95.3841 25.3507 95.2774 25.164 95.1388 25.004C95.0108 24.844 94.8508 24.716 94.6588 24.62C94.4668 24.524 94.2588 24.476 94.0348 24.476H90.2908V27.948H93.9228C94.1574 27.948 94.3761 27.9053 94.5788 27.82C94.7814 27.724 94.9574 27.6013 95.1068 27.452C95.2561 27.292 95.3734 27.1107 95.4588 26.908C95.5441 26.6947 95.5868 26.4707 95.5868 26.236ZM90.2908 19.692V23.036H93.5868C93.8108 23.036 94.0134 22.9933 94.1948 22.908C94.3868 22.8227 94.5521 22.7107 94.6908 22.572C94.8401 22.4227 94.9521 22.2467 95.0268 22.044C95.1121 21.8413 95.1548 21.6173 95.1548 21.372C95.1548 20.8813 95.0161 20.4813 94.7388 20.172C94.4614 19.852 94.1094 19.692 93.6828 19.692H90.2908ZM99.2815 31.468C99.4415 31.5 99.5962 31.5267 99.7455 31.548C99.9055 31.5693 100.034 31.58 100.13 31.58C100.268 31.58 100.386 31.548 100.482 31.484C100.588 31.4307 100.695 31.3293 100.802 31.18C100.908 31.0307 101.015 30.8173 101.122 30.54C101.239 30.2733 101.372 29.9267 101.522 29.5L98.0815 21.132H99.8895L102.482 27.948L104.786 21.132H106.45L102.658 31.436C102.487 31.916 102.188 32.316 101.762 32.636C101.346 32.9667 100.807 33.132 100.146 33.132C100.018 33.132 99.8842 33.1213 99.7455 33.1C99.6068 33.0893 99.4522 33.0573 99.2815 33.004V31.468ZM116.011 29.66C115.339 29.66 114.747 29.5 114.235 29.18C113.723 28.86 113.318 28.444 113.019 27.932V32.908H111.259V21.132H112.811V22.636C113.131 22.1347 113.542 21.7347 114.043 21.436C114.555 21.1373 115.131 20.988 115.771 20.988C116.347 20.988 116.875 21.1053 117.355 21.34C117.835 21.5747 118.251 21.8893 118.603 22.284C118.955 22.6787 119.227 23.1373 119.419 23.66C119.622 24.1827 119.723 24.732 119.723 25.308C119.723 25.916 119.632 26.4867 119.451 27.02C119.27 27.5427 119.014 28.0013 118.683 28.396C118.352 28.78 117.958 29.0893 117.499 29.324C117.051 29.548 116.555 29.66 116.011 29.66ZM115.435 28.156C115.808 28.156 116.144 28.076 116.443 27.916C116.752 27.756 117.014 27.5427 117.227 27.276C117.451 27.0093 117.622 26.7053 117.739 26.364C117.856 26.0227 117.915 25.6707 117.915 25.308C117.915 24.924 117.846 24.5613 117.707 24.22C117.579 23.8787 117.398 23.58 117.163 23.324C116.939 23.068 116.667 22.8653 116.347 22.716C116.027 22.5667 115.68 22.492 115.307 22.492C115.083 22.492 114.848 22.5347 114.603 22.62C114.358 22.7053 114.128 22.8227 113.915 22.972C113.702 23.1213 113.515 23.2973 113.355 23.5C113.195 23.692 113.083 23.9053 113.019 24.14V26.332C113.126 26.588 113.264 26.828 113.435 27.052C113.606 27.276 113.792 27.468 113.995 27.628C114.208 27.788 114.438 27.916 114.683 28.012C114.928 28.108 115.179 28.156 115.435 28.156ZM125.066 29.66C124.405 29.66 123.807 29.5427 123.274 29.308C122.751 29.0733 122.303 28.7587 121.93 28.364C121.557 27.9693 121.269 27.5107 121.066 26.988C120.863 26.4547 120.762 25.9 120.762 25.324C120.762 24.748 120.863 24.1987 121.066 23.676C121.269 23.1427 121.557 22.6787 121.93 22.284C122.314 21.8893 122.767 21.5747 123.29 21.34C123.823 21.1053 124.415 20.988 125.066 20.988C125.717 20.988 126.303 21.1053 126.826 21.34C127.359 21.5747 127.813 21.8893 128.186 22.284C128.57 22.6787 128.863 23.1427 129.066 23.676C129.269 24.1987 129.37 24.748 129.37 25.324C129.37 25.9 129.269 26.4547 129.066 26.988C128.863 27.5107 128.57 27.9693 128.186 28.364C127.813 28.7587 127.359 29.0733 126.826 29.308C126.303 29.5427 125.717 29.66 125.066 29.66ZM122.57 25.34C122.57 25.7453 122.634 26.1187 122.762 26.46C122.89 26.8013 123.066 27.1 123.29 27.356C123.514 27.6013 123.775 27.7987 124.074 27.948C124.383 28.0867 124.714 28.156 125.066 28.156C125.418 28.156 125.743 28.0867 126.042 27.948C126.351 27.7987 126.618 27.596 126.842 27.34C127.066 27.084 127.242 26.7853 127.37 26.444C127.498 26.1027 127.562 25.7293 127.562 25.324C127.562 24.9293 127.498 24.5613 127.37 24.22C127.242 23.868 127.066 23.564 126.842 23.308C126.618 23.052 126.351 22.8547 126.042 22.716C125.743 22.5667 125.418 22.492 125.066 22.492C124.725 22.492 124.399 22.5667 124.09 22.716C123.791 22.8653 123.53 23.068 123.306 23.324C123.082 23.58 122.901 23.884 122.762 24.236C122.634 24.5773 122.57 24.9453 122.57 25.34ZM135.683 29.66C135.011 29.66 134.419 29.5 133.907 29.18C133.395 28.86 132.99 28.444 132.691 27.932V32.908H130.931V21.132H132.483V22.636C132.803 22.1347 133.214 21.7347 133.715 21.436C134.227 21.1373 134.803 20.988 135.443 20.988C136.019 20.988 136.547 21.1053 137.027 21.34C137.507 21.5747 137.923 21.8893 138.275 22.284C138.627 22.6787 138.899 23.1373 139.091 23.66C139.294 24.1827 139.395 24.732 139.395 25.308C139.395 25.916 139.304 26.4867 139.123 27.02C138.942 27.5427 138.686 28.0013 138.355 28.396C138.024 28.78 137.63 29.0893 137.171 29.324C136.723 29.548 136.227 29.66 135.683 29.66ZM135.107 28.156C135.48 28.156 135.816 28.076 136.115 27.916C136.424 27.756 136.686 27.5427 136.899 27.276C137.123 27.0093 137.294 26.7053 137.411 26.364C137.528 26.0227 137.587 25.6707 137.587 25.308C137.587 24.924 137.518 24.5613 137.379 24.22C137.251 23.8787 137.07 23.58 136.835 23.324C136.611 23.068 136.339 22.8653 136.019 22.716C135.699 22.5667 135.352 22.492 134.979 22.492C134.755 22.492 134.52 22.5347 134.275 22.62C134.03 22.7053 133.8 22.8227 133.587 22.972C133.374 23.1213 133.187 23.2973 133.027 23.5C132.867 23.692 132.755 23.9053 132.691 24.14V26.332C132.798 26.588 132.936 26.828 133.107 27.052C133.278 27.276 133.464 27.468 133.667 27.628C133.88 27.788 134.11 27.916 134.355 28.012C134.6 28.108 134.851 28.156 135.107 28.156ZM143.554 29.66C142.679 29.66 142.018 29.3773 141.57 28.812C141.122 28.236 140.898 27.3827 140.898 26.252V21.132H142.658V25.9C142.658 27.404 143.191 28.156 144.258 28.156C144.759 28.156 145.234 28.0013 145.682 27.692C146.13 27.3827 146.477 26.9347 146.722 26.348V21.132H148.482V27.42C148.482 27.6227 148.514 27.7667 148.578 27.852C148.653 27.9373 148.781 27.9853 148.962 27.996V29.5C148.781 29.532 148.631 29.5533 148.514 29.564C148.397 29.5747 148.285 29.58 148.178 29.58C147.858 29.58 147.586 29.4947 147.362 29.324C147.138 29.1427 147.021 28.9133 147.01 28.636L146.978 27.804C146.605 28.412 146.119 28.876 145.522 29.196C144.925 29.5053 144.269 29.66 143.554 29.66ZM150.744 17.82H152.504V27.084C152.504 27.3933 152.584 27.6387 152.744 27.82C152.904 27.9907 153.128 28.076 153.416 28.076C153.533 28.076 153.667 28.0547 153.816 28.012C153.976 27.9693 154.125 27.9213 154.264 27.868L154.52 29.244C154.264 29.3613 153.96 29.452 153.608 29.516C153.256 29.5907 152.941 29.628 152.664 29.628C152.056 29.628 151.581 29.4627 151.24 29.132C150.909 28.8013 150.744 28.332 150.744 27.724V17.82ZM157.764 29.66C157.359 29.66 156.98 29.596 156.628 29.468C156.287 29.3293 155.988 29.1427 155.732 28.908C155.487 28.6733 155.29 28.396 155.14 28.076C155.002 27.756 154.932 27.4093 154.932 27.036C154.932 26.6413 155.018 26.284 155.188 25.964C155.359 25.644 155.599 25.3667 155.908 25.132C156.228 24.8973 156.602 24.716 157.028 24.588C157.466 24.46 157.946 24.396 158.468 24.396C158.863 24.396 159.252 24.4333 159.636 24.508C160.02 24.572 160.367 24.6627 160.676 24.78V24.204C160.676 23.5853 160.5 23.1053 160.148 22.764C159.796 22.412 159.29 22.236 158.628 22.236C158.18 22.236 157.738 22.3213 157.3 22.492C156.874 22.652 156.431 22.8867 155.972 23.196L155.428 22.076C156.506 21.3507 157.626 20.988 158.788 20.988C159.94 20.988 160.836 21.2813 161.476 21.868C162.116 22.4547 162.436 23.2973 162.436 24.396V27.42C162.436 27.7933 162.591 27.9853 162.9 27.996V29.5C162.73 29.532 162.58 29.5533 162.452 29.564C162.335 29.5747 162.218 29.58 162.1 29.58C161.759 29.58 161.492 29.4947 161.3 29.324C161.119 29.1533 161.007 28.9347 160.964 28.668L160.916 28.14C160.543 28.6307 160.079 29.0093 159.524 29.276C158.98 29.532 158.394 29.66 157.764 29.66ZM158.244 28.364C158.671 28.364 159.071 28.2893 159.444 28.14C159.828 27.98 160.127 27.7613 160.34 27.484C160.564 27.292 160.676 27.0893 160.676 26.876V25.772C160.378 25.6547 160.058 25.564 159.716 25.5C159.386 25.436 159.06 25.404 158.74 25.404C158.111 25.404 157.594 25.5427 157.188 25.82C156.794 26.0867 156.596 26.444 156.596 26.892C156.596 27.308 156.751 27.66 157.06 27.948C157.37 28.2253 157.764 28.364 158.244 28.364ZM169.276 22.652C168.593 22.6733 167.985 22.8333 167.452 23.132C166.929 23.42 166.556 23.836 166.332 24.38V29.5H164.572V21.132H166.204V23.004C166.492 22.428 166.865 21.9693 167.324 21.628C167.793 21.276 168.294 21.084 168.828 21.052C168.934 21.052 169.02 21.052 169.084 21.052C169.158 21.052 169.222 21.0573 169.276 21.068V22.652ZM170.556 29.5V21.132H172.316V29.5H170.556ZM170.556 19.756V17.82H172.316V19.756H170.556ZM179.087 29.068C178.863 29.1747 178.554 29.2973 178.159 29.436C177.764 29.564 177.343 29.628 176.895 29.628C176.618 29.628 176.356 29.5907 176.111 29.516C175.866 29.4413 175.647 29.3293 175.455 29.18C175.274 29.0307 175.13 28.8387 175.023 28.604C174.916 28.3587 174.863 28.0653 174.863 27.724V22.492H173.759V21.132H174.863V18.38H176.623V21.132H178.447V22.492H176.623V27.164C176.644 27.4627 176.735 27.6813 176.895 27.82C177.066 27.948 177.274 28.012 177.519 28.012C177.764 28.012 177.999 27.9693 178.223 27.884C178.447 27.7987 178.612 27.7293 178.719 27.676L179.087 29.068ZM180.594 31.468C180.754 31.5 180.909 31.5267 181.058 31.548C181.218 31.5693 181.346 31.58 181.442 31.58C181.581 31.58 181.698 31.548 181.794 31.484C181.901 31.4307 182.007 31.3293 182.114 31.18C182.221 31.0307 182.327 30.8173 182.434 30.54C182.551 30.2733 182.685 29.9267 182.834 29.5L179.394 21.132H181.202L183.794 27.948L186.098 21.132H187.762L183.97 31.436C183.799 31.916 183.501 32.316 183.074 32.636C182.658 32.9667 182.119 33.132 181.458 33.132C181.33 33.132 181.197 33.1213 181.058 33.1C180.919 33.0893 180.765 33.0573 180.594 33.004V31.468Z" fill="#1F1F21"/>
<path d="M97.4268 26.572C97.4268 27.0307 97.3308 27.4413 97.1388 27.804C96.9574 28.1667 96.7068 28.476 96.3868 28.732C96.0774 28.9773 95.7094 29.1693 95.2828 29.308C94.8561 29.436 94.4028 29.5 93.9228 29.5H88.4988V18.14H94.3548C94.7494 18.14 95.1068 18.2253 95.4268 18.396C95.7468 18.5667 96.0188 18.7907 96.2428 19.068C96.4668 19.3347 96.6374 19.644 96.7548 19.996C96.8828 20.3373 96.9468 20.684 96.9468 21.036C96.9468 21.5907 96.8028 22.1133 96.5148 22.604C96.2374 23.084 95.8374 23.4413 95.3148 23.676C95.9654 23.868 96.4774 24.22 96.8508 24.732C97.2348 25.2333 97.4268 25.8467 97.4268 26.572ZM95.5868 26.236C95.5868 26.0013 95.5441 25.7773 95.4588 25.564C95.3841 25.3507 95.2774 25.164 95.1388 25.004C95.0108 24.844 94.8508 24.716 94.6588 24.62C94.4668 24.524 94.2588 24.476 94.0348 24.476H90.2908V27.948H93.9228C94.1574 27.948 94.3761 27.9053 94.5788 27.82C94.7814 27.724 94.9574 27.6013 95.1068 27.452C95.2561 27.292 95.3734 27.1107 95.4588 26.908C95.5441 26.6947 95.5868 26.4707 95.5868 26.236ZM90.2908 19.692V23.036H93.5868C93.8108 23.036 94.0134 22.9933 94.1948 22.908C94.3868 22.8227 94.5521 22.7107 94.6908 22.572C94.8401 22.4227 94.9521 22.2467 95.0268 22.044C95.1121 21.8413 95.1548 21.6173 95.1548 21.372C95.1548 20.8813 95.0161 20.4813 94.7388 20.172C94.4614 19.852 94.1094 19.692 93.6828 19.692H90.2908ZM99.2815 31.468C99.4415 31.5 99.5962 31.5267 99.7455 31.548C99.9055 31.5693 100.034 31.58 100.13 31.58C100.268 31.58 100.386 31.548 100.482 31.484C100.588 31.4307 100.695 31.3293 100.802 31.18C100.908 31.0307 101.015 30.8173 101.122 30.54C101.239 30.2733 101.372 29.9267 101.522 29.5L98.0815 21.132H99.8895L102.482 27.948L104.786 21.132H106.45L102.658 31.436C102.487 31.916 102.188 32.316 101.762 32.636C101.346 32.9667 100.807 33.132 100.146 33.132C100.018 33.132 99.8842 33.1213 99.7455 33.1C99.6068 33.0893 99.4522 33.0573 99.2815 33.004V31.468ZM116.011 29.66C115.339 29.66 114.747 29.5 114.235 29.18C113.723 28.86 113.318 28.444 113.019 27.932V32.908H111.259V21.132H112.811V22.636C113.131 22.1347 113.542 21.7347 114.043 21.436C114.555 21.1373 115.131 20.988 115.771 20.988C116.347 20.988 116.875 21.1053 117.355 21.34C117.835 21.5747 118.251 21.8893 118.603 22.284C118.955 22.6787 119.227 23.1373 119.419 23.66C119.622 24.1827 119.723 24.732 119.723 25.308C119.723 25.916 119.632 26.4867 119.451 27.02C119.27 27.5427 119.014 28.0013 118.683 28.396C118.352 28.78 117.958 29.0893 117.499 29.324C117.051 29.548 116.555 29.66 116.011 29.66ZM115.435 28.156C115.808 28.156 116.144 28.076 116.443 27.916C116.752 27.756 117.014 27.5427 117.227 27.276C117.451 27.0093 117.622 26.7053 117.739 26.364C117.856 26.0227 117.915 25.6707 117.915 25.308C117.915 24.924 117.846 24.5613 117.707 24.22C117.579 23.8787 117.398 23.58 117.163 23.324C116.939 23.068 116.667 22.8653 116.347 22.716C116.027 22.5667 115.68 22.492 115.307 22.492C115.083 22.492 114.848 22.5347 114.603 22.62C114.358 22.7053 114.128 22.8227 113.915 22.972C113.702 23.1213 113.515 23.2973 113.355 23.5C113.195 23.692 113.083 23.9053 113.019 24.14V26.332C113.126 26.588 113.264 26.828 113.435 27.052C113.606 27.276 113.792 27.468 113.995 27.628C114.208 27.788 114.438 27.916 114.683 28.012C114.928 28.108 115.179 28.156 115.435 28.156ZM125.066 29.66C124.405 29.66 123.807 29.5427 123.274 29.308C122.751 29.0733 122.303 28.7587 121.93 28.364C121.557 27.9693 121.269 27.5107 121.066 26.988C120.863 26.4547 120.762 25.9 120.762 25.324C120.762 24.748 120.863 24.1987 121.066 23.676C121.269 23.1427 121.557 22.6787 121.93 22.284C122.314 21.8893 122.767 21.5747 123.29 21.34C123.823 21.1053 124.415 20.988 125.066 20.988C125.717 20.988 126.303 21.1053 126.826 21.34C127.359 21.5747 127.813 21.8893 128.186 22.284C128.57 22.6787 128.863 23.1427 129.066 23.676C129.269 24.1987 129.37 24.748 129.37 25.324C129.37 25.9 129.269 26.4547 129.066 26.988C128.863 27.5107 128.57 27.9693 128.186 28.364C127.813 28.7587 127.359 29.0733 126.826 29.308C126.303 29.5427 125.717 29.66 125.066 29.66ZM122.57 25.34C122.57 25.7453 122.634 26.1187 122.762 26.46C122.89 26.8013 123.066 27.1 123.29 27.356C123.514 27.6013 123.775 27.7987 124.074 27.948C124.383 28.0867 124.714 28.156 125.066 28.156C125.418 28.156 125.743 28.0867 126.042 27.948C126.351 27.7987 126.618 27.596 126.842 27.34C127.066 27.084 127.242 26.7853 127.37 26.444C127.498 26.1027 127.562 25.7293 127.562 25.324C127.562 24.9293 127.498 24.5613 127.37 24.22C127.242 23.868 127.066 23.564 126.842 23.308C126.618 23.052 126.351 22.8547 126.042 22.716C125.743 22.5667 125.418 22.492 125.066 22.492C124.725 22.492 124.399 22.5667 124.09 22.716C123.791 22.8653 123.53 23.068 123.306 23.324C123.082 23.58 122.901 23.884 122.762 24.236C122.634 24.5773 122.57 24.9453 122.57 25.34ZM135.683 29.66C135.011 29.66 134.419 29.5 133.907 29.18C133.395 28.86 132.99 28.444 132.691 27.932V32.908H130.931V21.132H132.483V22.636C132.803 22.1347 133.214 21.7347 133.715 21.436C134.227 21.1373 134.803 20.988 135.443 20.988C136.019 20.988 136.547 21.1053 137.027 21.34C137.507 21.5747 137.923 21.8893 138.275 22.284C138.627 22.6787 138.899 23.1373 139.091 23.66C139.294 24.1827 139.395 24.732 139.395 25.308C139.395 25.916 139.304 26.4867 139.123 27.02C138.942 27.5427 138.686 28.0013 138.355 28.396C138.024 28.78 137.63 29.0893 137.171 29.324C136.723 29.548 136.227 29.66 135.683 29.66ZM135.107 28.156C135.48 28.156 135.816 28.076 136.115 27.916C136.424 27.756 136.686 27.5427 136.899 27.276C137.123 27.0093 137.294 26.7053 137.411 26.364C137.528 26.0227 137.587 25.6707 137.587 25.308C137.587 24.924 137.518 24.5613 137.379 24.22C137.251 23.8787 137.07 23.58 136.835 23.324C136.611 23.068 136.339 22.8653 136.019 22.716C135.699 22.5667 135.352 22.492 134.979 22.492C134.755 22.492 134.52 22.5347 134.275 22.62C134.03 22.7053 133.8 22.8227 133.587 22.972C133.374 23.1213 133.187 23.2973 133.027 23.5C132.867 23.692 132.755 23.9053 132.691 24.14V26.332C132.798 26.588 132.936 26.828 133.107 27.052C133.278 27.276 133.464 27.468 133.667 27.628C133.88 27.788 134.11 27.916 134.355 28.012C134.6 28.108 134.851 28.156 135.107 28.156ZM143.554 29.66C142.679 29.66 142.018 29.3773 141.57 28.812C141.122 28.236 140.898 27.3827 140.898 26.252V21.132H142.658V25.9C142.658 27.404 143.191 28.156 144.258 28.156C144.759 28.156 145.234 28.0013 145.682 27.692C146.13 27.3827 146.477 26.9347 146.722 26.348V21.132H148.482V27.42C148.482 27.6227 148.514 27.7667 148.578 27.852C148.653 27.9373 148.781 27.9853 148.962 27.996V29.5C148.781 29.532 148.631 29.5533 148.514 29.564C148.397 29.5747 148.285 29.58 148.178 29.58C147.858 29.58 147.586 29.4947 147.362 29.324C147.138 29.1427 147.021 28.9133 147.01 28.636L146.978 27.804C146.605 28.412 146.119 28.876 145.522 29.196C144.925 29.5053 144.269 29.66 143.554 29.66ZM150.744 17.82H152.504V27.084C152.504 27.3933 152.584 27.6387 152.744 27.82C152.904 27.9907 153.128 28.076 153.416 28.076C153.533 28.076 153.667 28.0547 153.816 28.012C153.976 27.9693 154.125 27.9213 154.264 27.868L154.52 29.244C154.264 29.3613 153.96 29.452 153.608 29.516C153.256 29.5907 152.941 29.628 152.664 29.628C152.056 29.628 151.581 29.4627 151.24 29.132C150.909 28.8013 150.744 28.332 150.744 27.724V17.82ZM157.764 29.66C157.359 29.66 156.98 29.596 156.628 29.468C156.287 29.3293 155.988 29.1427 155.732 28.908C155.487 28.6733 155.29 28.396 155.14 28.076C155.002 27.756 154.932 27.4093 154.932 27.036C154.932 26.6413 155.018 26.284 155.188 25.964C155.359 25.644 155.599 25.3667 155.908 25.132C156.228 24.8973 156.602 24.716 157.028 24.588C157.466 24.46 157.946 24.396 158.468 24.396C158.863 24.396 159.252 24.4333 159.636 24.508C160.02 24.572 160.367 24.6627 160.676 24.78V24.204C160.676 23.5853 160.5 23.1053 160.148 22.764C159.796 22.412 159.29 22.236 158.628 22.236C158.18 22.236 157.738 22.3213 157.3 22.492C156.874 22.652 156.431 22.8867 155.972 23.196L155.428 22.076C156.506 21.3507 157.626 20.988 158.788 20.988C159.94 20.988 160.836 21.2813 161.476 21.868C162.116 22.4547 162.436 23.2973 162.436 24.396V27.42C162.436 27.7933 162.591 27.9853 162.9 27.996V29.5C162.73 29.532 162.58 29.5533 162.452 29.564C162.335 29.5747 162.218 29.58 162.1 29.58C161.759 29.58 161.492 29.4947 161.3 29.324C161.119 29.1533 161.007 28.9347 160.964 28.668L160.916 28.14C160.543 28.6307 160.079 29.0093 159.524 29.276C158.98 29.532 158.394 29.66 157.764 29.66ZM158.244 28.364C158.671 28.364 159.071 28.2893 159.444 28.14C159.828 27.98 160.127 27.7613 160.34 27.484C160.564 27.292 160.676 27.0893 160.676 26.876V25.772C160.378 25.6547 160.058 25.564 159.716 25.5C159.386 25.436 159.06 25.404 158.74 25.404C158.111 25.404 157.594 25.5427 157.188 25.82C156.794 26.0867 156.596 26.444 156.596 26.892C156.596 27.308 156.751 27.66 157.06 27.948C157.37 28.2253 157.764 28.364 158.244 28.364ZM169.276 22.652C168.593 22.6733 167.985 22.8333 167.452 23.132C166.929 23.42 166.556 23.836 166.332 24.38V29.5H164.572V21.132H166.204V23.004C166.492 22.428 166.865 21.9693 167.324 21.628C167.793 21.276 168.294 21.084 168.828 21.052C168.934 21.052 169.02 21.052 169.084 21.052C169.158 21.052 169.222 21.0573 169.276 21.068V22.652ZM170.556 29.5V21.132H172.316V29.5H170.556ZM170.556 19.756V17.82H172.316V19.756H170.556ZM179.087 29.068C178.863 29.1747 178.554 29.2973 178.159 29.436C177.764 29.564 177.343 29.628 176.895 29.628C176.618 29.628 176.356 29.5907 176.111 29.516C175.866 29.4413 175.647 29.3293 175.455 29.18C175.274 29.0307 175.13 28.8387 175.023 28.604C174.916 28.3587 174.863 28.0653 174.863 27.724V22.492H173.759V21.132H174.863V18.38H176.623V21.132H178.447V22.492H176.623V27.164C176.644 27.4627 176.735 27.6813 176.895 27.82C177.066 27.948 177.274 28.012 177.519 28.012C177.764 28.012 177.999 27.9693 178.223 27.884C178.447 27.7987 178.612 27.7293 178.719 27.676L179.087 29.068ZM180.594 31.468C180.754 31.5 180.909 31.5267 181.058 31.548C181.218 31.5693 181.346 31.58 181.442 31.58C181.581 31.58 181.698 31.548 181.794 31.484C181.901 31.4307 182.007 31.3293 182.114 31.18C182.221 31.0307 182.327 30.8173 182.434 30.54C182.551 30.2733 182.685 29.9267 182.834 29.5L179.394 21.132H181.202L183.794 27.948L186.098 21.132H187.762L183.97 31.436C183.799 31.916 183.501 32.316 183.074 32.636C182.658 32.9667 182.119 33.132 181.458 33.132C181.33 33.132 181.197 33.1213 181.058 33.1C180.919 33.0893 180.765 33.0573 180.594 33.004V31.468Z" fill="black" fill-opacity="0.2"/>
<path d="M97.4268 26.572C97.4268 27.0307 97.3308 27.4413 97.1388 27.804C96.9574 28.1667 96.7068 28.476 96.3868 28.732C96.0774 28.9773 95.7094 29.1693 95.2828 29.308C94.8561 29.436 94.4028 29.5 93.9228 29.5H88.4988V18.14H94.3548C94.7494 18.14 95.1068 18.2253 95.4268 18.396C95.7468 18.5667 96.0188 18.7907 96.2428 19.068C96.4668 19.3347 96.6374 19.644 96.7548 19.996C96.8828 20.3373 96.9468 20.684 96.9468 21.036C96.9468 21.5907 96.8028 22.1133 96.5148 22.604C96.2374 23.084 95.8374 23.4413 95.3148 23.676C95.9654 23.868 96.4774 24.22 96.8508 24.732C97.2348 25.2333 97.4268 25.8467 97.4268 26.572ZM95.5868 26.236C95.5868 26.0013 95.5441 25.7773 95.4588 25.564C95.3841 25.3507 95.2774 25.164 95.1388 25.004C95.0108 24.844 94.8508 24.716 94.6588 24.62C94.4668 24.524 94.2588 24.476 94.0348 24.476H90.2908V27.948H93.9228C94.1574 27.948 94.3761 27.9053 94.5788 27.82C94.7814 27.724 94.9574 27.6013 95.1068 27.452C95.2561 27.292 95.3734 27.1107 95.4588 26.908C95.5441 26.6947 95.5868 26.4707 95.5868 26.236ZM90.2908 19.692V23.036H93.5868C93.8108 23.036 94.0134 22.9933 94.1948 22.908C94.3868 22.8227 94.5521 22.7107 94.6908 22.572C94.8401 22.4227 94.9521 22.2467 95.0268 22.044C95.1121 21.8413 95.1548 21.6173 95.1548 21.372C95.1548 20.8813 95.0161 20.4813 94.7388 20.172C94.4614 19.852 94.1094 19.692 93.6828 19.692H90.2908ZM99.2815 31.468C99.4415 31.5 99.5962 31.5267 99.7455 31.548C99.9055 31.5693 100.034 31.58 100.13 31.58C100.268 31.58 100.386 31.548 100.482 31.484C100.588 31.4307 100.695 31.3293 100.802 31.18C100.908 31.0307 101.015 30.8173 101.122 30.54C101.239 30.2733 101.372 29.9267 101.522 29.5L98.0815 21.132H99.8895L102.482 27.948L104.786 21.132H106.45L102.658 31.436C102.487 31.916 102.188 32.316 101.762 32.636C101.346 32.9667 100.807 33.132 100.146 33.132C100.018 33.132 99.8842 33.1213 99.7455 33.1C99.6068 33.0893 99.4522 33.0573 99.2815 33.004V31.468ZM116.011 29.66C115.339 29.66 114.747 29.5 114.235 29.18C113.723 28.86 113.318 28.444 113.019 27.932V32.908H111.259V21.132H112.811V22.636C113.131 22.1347 113.542 21.7347 114.043 21.436C114.555 21.1373 115.131 20.988 115.771 20.988C116.347 20.988 116.875 21.1053 117.355 21.34C117.835 21.5747 118.251 21.8893 118.603 22.284C118.955 22.6787 119.227 23.1373 119.419 23.66C119.622 24.1827 119.723 24.732 119.723 25.308C119.723 25.916 119.632 26.4867 119.451 27.02C119.27 27.5427 119.014 28.0013 118.683 28.396C118.352 28.78 117.958 29.0893 117.499 29.324C117.051 29.548 116.555 29.66 116.011 29.66ZM115.435 28.156C115.808 28.156 116.144 28.076 116.443 27.916C116.752 27.756 117.014 27.5427 117.227 27.276C117.451 27.0093 117.622 26.7053 117.739 26.364C117.856 26.0227 117.915 25.6707 117.915 25.308C117.915 24.924 117.846 24.5613 117.707 24.22C117.579 23.8787 117.398 23.58 117.163 23.324C116.939 23.068 116.667 22.8653 116.347 22.716C116.027 22.5667 115.68 22.492 115.307 22.492C115.083 22.492 114.848 22.5347 114.603 22.62C114.358 22.7053 114.128 22.8227 113.915 22.972C113.702 23.1213 113.515 23.2973 113.355 23.5C113.195 23.692 113.083 23.9053 113.019 24.14V26.332C113.126 26.588 113.264 26.828 113.435 27.052C113.606 27.276 113.792 27.468 113.995 27.628C114.208 27.788 114.438 27.916 114.683 28.012C114.928 28.108 115.179 28.156 115.435 28.156ZM125.066 29.66C124.405 29.66 123.807 29.5427 123.274 29.308C122.751 29.0733 122.303 28.7587 121.93 28.364C121.557 27.9693 121.269 27.5107 121.066 26.988C120.863 26.4547 120.762 25.9 120.762 25.324C120.762 24.748 120.863 24.1987 121.066 23.676C121.269 23.1427 121.557 22.6787 121.93 22.284C122.314 21.8893 122.767 21.5747 123.29 21.34C123.823 21.1053 124.415 20.988 125.066 20.988C125.717 20.988 126.303 21.1053 126.826 21.34C127.359 21.5747 127.813 21.8893 128.186 22.284C128.57 22.6787 128.863 23.1427 129.066 23.676C129.269 24.1987 129.37 24.748 129.37 25.324C129.37 25.9 129.269 26.4547 129.066 26.988C128.863 27.5107 128.57 27.9693 128.186 28.364C127.813 28.7587 127.359 29.0733 126.826 29.308C126.303 29.5427 125.717 29.66 125.066 29.66ZM122.57 25.34C122.57 25.7453 122.634 26.1187 122.762 26.46C122.89 26.8013 123.066 27.1 123.29 27.356C123.514 27.6013 123.775 27.7987 124.074 27.948C124.383 28.0867 124.714 28.156 125.066 28.156C125.418 28.156 125.743 28.0867 126.042 27.948C126.351 27.7987 126.618 27.596 126.842 27.34C127.066 27.084 127.242 26.7853 127.37 26.444C127.498 26.1027 127.562 25.7293 127.562 25.324C127.562 24.9293 127.498 24.5613 127.37 24.22C127.242 23.868 127.066 23.564 126.842 23.308C126.618 23.052 126.351 22.8547 126.042 22.716C125.743 22.5667 125.418 22.492 125.066 22.492C124.725 22.492 124.399 22.5667 124.09 22.716C123.791 22.8653 123.53 23.068 123.306 23.324C123.082 23.58 122.901 23.884 122.762 24.236C122.634 24.5773 122.57 24.9453 122.57 25.34ZM135.683 29.66C135.011 29.66 134.419 29.5 133.907 29.18C133.395 28.86 132.99 28.444 132.691 27.932V32.908H130.931V21.132H132.483V22.636C132.803 22.1347 133.214 21.7347 133.715 21.436C134.227 21.1373 134.803 20.988 135.443 20.988C136.019 20.988 136.547 21.1053 137.027 21.34C137.507 21.5747 137.923 21.8893 138.275 22.284C138.627 22.6787 138.899 23.1373 139.091 23.66C139.294 24.1827 139.395 24.732 139.395 25.308C139.395 25.916 139.304 26.4867 139.123 27.02C138.942 27.5427 138.686 28.0013 138.355 28.396C138.024 28.78 137.63 29.0893 137.171 29.324C136.723 29.548 136.227 29.66 135.683 29.66ZM135.107 28.156C135.48 28.156 135.816 28.076 136.115 27.916C136.424 27.756 136.686 27.5427 136.899 27.276C137.123 27.0093 137.294 26.7053 137.411 26.364C137.528 26.0227 137.587 25.6707 137.587 25.308C137.587 24.924 137.518 24.5613 137.379 24.22C137.251 23.8787 137.07 23.58 136.835 23.324C136.611 23.068 136.339 22.8653 136.019 22.716C135.699 22.5667 135.352 22.492 134.979 22.492C134.755 22.492 134.52 22.5347 134.275 22.62C134.03 22.7053 133.8 22.8227 133.587 22.972C133.374 23.1213 133.187 23.2973 133.027 23.5C132.867 23.692 132.755 23.9053 132.691 24.14V26.332C132.798 26.588 132.936 26.828 133.107 27.052C133.278 27.276 133.464 27.468 133.667 27.628C133.88 27.788 134.11 27.916 134.355 28.012C134.6 28.108 134.851 28.156 135.107 28.156ZM143.554 29.66C142.679 29.66 142.018 29.3773 141.57 28.812C141.122 28.236 140.898 27.3827 140.898 26.252V21.132H142.658V25.9C142.658 27.404 143.191 28.156 144.258 28.156C144.759 28.156 145.234 28.0013 145.682 27.692C146.13 27.3827 146.477 26.9347 146.722 26.348V21.132H148.482V27.42C148.482 27.6227 148.514 27.7667 148.578 27.852C148.653 27.9373 148.781 27.9853 148.962 27.996V29.5C148.781 29.532 148.631 29.5533 148.514 29.564C148.397 29.5747 148.285 29.58 148.178 29.58C147.858 29.58 147.586 29.4947 147.362 29.324C147.138 29.1427 147.021 28.9133 147.01 28.636L146.978 27.804C146.605 28.412 146.119 28.876 145.522 29.196C144.925 29.5053 144.269 29.66 143.554 29.66ZM150.744 17.82H152.504V27.084C152.504 27.3933 152.584 27.6387 152.744 27.82C152.904 27.9907 153.128 28.076 153.416 28.076C153.533 28.076 153.667 28.0547 153.816 28.012C153.976 27.9693 154.125 27.9213 154.264 27.868L154.52 29.244C154.264 29.3613 153.96 29.452 153.608 29.516C153.256 29.5907 152.941 29.628 152.664 29.628C152.056 29.628 151.581 29.4627 151.24 29.132C150.909 28.8013 150.744 28.332 150.744 27.724V17.82ZM157.764 29.66C157.359 29.66 156.98 29.596 156.628 29.468C156.287 29.3293 155.988 29.1427 155.732 28.908C155.487 28.6733 155.29 28.396 155.14 28.076C155.002 27.756 154.932 27.4093 154.932 27.036C154.932 26.6413 155.018 26.284 155.188 25.964C155.359 25.644 155.599 25.3667 155.908 25.132C156.228 24.8973 156.602 24.716 157.028 24.588C157.466 24.46 157.946 24.396 158.468 24.396C158.863 24.396 159.252 24.4333 159.636 24.508C160.02 24.572 160.367 24.6627 160.676 24.78V24.204C160.676 23.5853 160.5 23.1053 160.148 22.764C159.796 22.412 159.29 22.236 158.628 22.236C158.18 22.236 157.738 22.3213 157.3 22.492C156.874 22.652 156.431 22.8867 155.972 23.196L155.428 22.076C156.506 21.3507 157.626 20.988 158.788 20.988C159.94 20.988 160.836 21.2813 161.476 21.868C162.116 22.4547 162.436 23.2973 162.436 24.396V27.42C162.436 27.7933 162.591 27.9853 162.9 27.996V29.5C162.73 29.532 162.58 29.5533 162.452 29.564C162.335 29.5747 162.218 29.58 162.1 29.58C161.759 29.58 161.492 29.4947 161.3 29.324C161.119 29.1533 161.007 28.9347 160.964 28.668L160.916 28.14C160.543 28.6307 160.079 29.0093 159.524 29.276C158.98 29.532 158.394 29.66 157.764 29.66ZM158.244 28.364C158.671 28.364 159.071 28.2893 159.444 28.14C159.828 27.98 160.127 27.7613 160.34 27.484C160.564 27.292 160.676 27.0893 160.676 26.876V25.772C160.378 25.6547 160.058 25.564 159.716 25.5C159.386 25.436 159.06 25.404 158.74 25.404C158.111 25.404 157.594 25.5427 157.188 25.82C156.794 26.0867 156.596 26.444 156.596 26.892C156.596 27.308 156.751 27.66 157.06 27.948C157.37 28.2253 157.764 28.364 158.244 28.364ZM169.276 22.652C168.593 22.6733 167.985 22.8333 167.452 23.132C166.929 23.42 166.556 23.836 166.332 24.38V29.5H164.572V21.132H166.204V23.004C166.492 22.428 166.865 21.9693 167.324 21.628C167.793 21.276 168.294 21.084 168.828 21.052C168.934 21.052 169.02 21.052 169.084 21.052C169.158 21.052 169.222 21.0573 169.276 21.068V22.652ZM170.556 29.5V21.132H172.316V29.5H170.556ZM170.556 19.756V17.82H172.316V19.756H170.556ZM179.087 29.068C178.863 29.1747 178.554 29.2973 178.159 29.436C177.764 29.564 177.343 29.628 176.895 29.628C176.618 29.628 176.356 29.5907 176.111 29.516C175.866 29.4413 175.647 29.3293 175.455 29.18C175.274 29.0307 175.13 28.8387 175.023 28.604C174.916 28.3587 174.863 28.0653 174.863 27.724V22.492H173.759V21.132H174.863V18.38H176.623V21.132H178.447V22.492H176.623V27.164C176.644 27.4627 176.735 27.6813 176.895 27.82C177.066 27.948 177.274 28.012 177.519 28.012C177.764 28.012 177.999 27.9693 178.223 27.884C178.447 27.7987 178.612 27.7293 178.719 27.676L179.087 29.068ZM180.594 31.468C180.754 31.5 180.909 31.5267 181.058 31.548C181.218 31.5693 181.346 31.58 181.442 31.58C181.581 31.58 181.698 31.548 181.794 31.484C181.901 31.4307 182.007 31.3293 182.114 31.18C182.221 31.0307 182.327 30.8173 182.434 30.54C182.551 30.2733 182.685 29.9267 182.834 29.5L179.394 21.132H181.202L183.794 27.948L186.098 21.132H187.762L183.97 31.436C183.799 31.916 183.501 32.316 183.074 32.636C182.658 32.9667 182.119 33.132 181.458 33.132C181.33 33.132 181.197 33.1213 181.058 33.1C180.919 33.0893 180.765 33.0573 180.594 33.004V31.468Z" fill="black" fill-opacity="0.2"/>
<path d="M214 21L208 27L202 21" stroke="#1F1F21" stroke-width="2" stroke-linecap="round" stroke-linejoin="round"/>
<path d="M214 21L208 27L202 21" stroke="black" stroke-opacity="0.2" stroke-width="2" stroke-linecap="round" stroke-linejoin="round"/>
<path d="M214 21L208 27L202 21" stroke="black" stroke-opacity="0.2" stroke-width="2" stroke-linecap="round" stroke-linejoin="round"/>
</svg>
