<svg width="342" height="56" viewBox="0 0 342 56" fill="none" xmlns="http://www.w3.org/2000/svg">
<rect width="342" height="56" fill="#1F1F21"/>
<rect width="342" height="56" fill="black" fill-opacity="0.2"/>
<rect width="342" height="56" fill="black" fill-opacity="0.2"/>
<path d="M103.5 35L110.5 28L103.5 21M110.5 28L96.5 28" stroke="#EFF0F2" stroke-width="2" stroke-linecap="round" stroke-linejoin="round"/>
<path d="M137.5 24.14C137.367 23.9933 137.173 23.84 136.92 23.68C136.667 23.5067 136.367 23.3467 136.02 23.2C135.687 23.0533 135.313 22.9333 134.9 22.84C134.5 22.7467 134.087 22.7 133.66 22.7C132.713 22.7 132.013 22.8733 131.56 23.22C131.12 23.5667 130.9 24.0467 130.9 24.66C130.9 25.0067 130.967 25.2933 131.1 25.52C131.247 25.7333 131.467 25.9267 131.76 26.1C132.053 26.26 132.42 26.4067 132.86 26.54C133.3 26.66 133.813 26.7933 134.4 26.94C135.12 27.1133 135.767 27.3067 136.34 27.52C136.927 27.7333 137.42 27.9933 137.82 28.3C138.22 28.6067 138.527 28.9867 138.74 29.44C138.967 29.88 139.08 30.42 139.08 31.06C139.08 31.78 138.94 32.4 138.66 32.92C138.393 33.44 138.02 33.8667 137.54 34.2C137.073 34.52 136.527 34.76 135.9 34.92C135.273 35.0667 134.6 35.14 133.88 35.14C132.8 35.14 131.753 34.98 130.74 34.66C129.74 34.3267 128.833 33.8467 128.02 33.22L129.04 31.3C129.213 31.4733 129.46 31.6667 129.78 31.88C130.113 32.0933 130.493 32.2933 130.92 32.48C131.36 32.6533 131.833 32.8067 132.34 32.94C132.847 33.06 133.373 33.12 133.92 33.12C134.8 33.12 135.48 32.9667 135.96 32.66C136.44 32.3533 136.68 31.9 136.68 31.3C136.68 30.94 136.587 30.64 136.4 30.4C136.227 30.16 135.973 29.9533 135.64 29.78C135.307 29.5933 134.9 29.4267 134.42 29.28C133.94 29.1333 133.393 28.98 132.78 28.82C132.073 28.6333 131.453 28.44 130.92 28.24C130.4 28.0267 129.967 27.7733 129.62 27.48C129.273 27.1867 129.007 26.8467 128.82 26.46C128.647 26.06 128.56 25.58 128.56 25.02C128.56 24.3267 128.693 23.7133 128.96 23.18C129.227 22.6333 129.587 22.18 130.04 21.82C130.507 21.4467 131.053 21.1667 131.68 20.98C132.307 20.7933 132.987 20.7 133.72 20.7C134.68 20.7 135.567 20.8533 136.38 21.16C137.193 21.4667 137.907 21.8467 138.52 22.3L137.5 24.14ZM148.247 33.08C148.993 33.08 149.613 32.9333 150.107 32.64C150.6 32.3467 150.993 31.9667 151.287 31.5C151.593 31.02 151.807 30.48 151.927 29.88C152.06 29.2667 152.127 28.64 152.127 28V20.8H154.387V28C154.387 28.9733 154.273 29.8933 154.047 30.76C153.82 31.6133 153.46 32.3667 152.967 33.02C152.473 33.66 151.833 34.1667 151.047 34.54C150.273 34.9133 149.34 35.1 148.247 35.1C147.113 35.1 146.153 34.9067 145.367 34.52C144.593 34.12 143.967 33.5933 143.487 32.94C143.007 32.2733 142.66 31.5133 142.447 30.66C142.233 29.8067 142.127 28.92 142.127 28V20.8H144.367V28C144.367 28.6533 144.427 29.2867 144.547 29.9C144.68 30.5 144.893 31.04 145.187 31.52C145.493 31.9867 145.893 32.3667 146.387 32.66C146.893 32.94 147.513 33.08 148.247 33.08ZM169.526 31.34C169.526 31.9133 169.406 32.4267 169.166 32.88C168.939 33.3333 168.626 33.72 168.226 34.04C167.839 34.3467 167.379 34.5867 166.846 34.76C166.312 34.92 165.746 35 165.146 35H158.366V20.8H165.686C166.179 20.8 166.626 20.9067 167.026 21.12C167.426 21.3333 167.766 21.6133 168.046 21.96C168.326 22.2933 168.539 22.68 168.686 23.12C168.846 23.5467 168.926 23.98 168.926 24.42C168.926 25.1133 168.746 25.7667 168.386 26.38C168.039 26.98 167.539 27.4267 166.886 27.72C167.699 27.96 168.339 28.4 168.806 29.04C169.286 29.6667 169.526 30.4333 169.526 31.34ZM167.226 30.92C167.226 30.6267 167.172 30.3467 167.066 30.08C166.972 29.8133 166.839 29.58 166.666 29.38C166.506 29.18 166.306 29.02 166.066 28.9C165.826 28.78 165.566 28.72 165.286 28.72H160.606V33.06H165.146C165.439 33.06 165.712 33.0067 165.966 32.9C166.219 32.78 166.439 32.6267 166.626 32.44C166.812 32.24 166.959 32.0133 167.066 31.76C167.172 31.4933 167.226 31.2133 167.226 30.92ZM160.606 22.74V26.92H164.726C165.006 26.92 165.259 26.8667 165.486 26.76C165.726 26.6533 165.932 26.5133 166.106 26.34C166.292 26.1533 166.432 25.9333 166.526 25.68C166.632 25.4267 166.686 25.1467 166.686 24.84C166.686 24.2267 166.512 23.7267 166.166 23.34C165.819 22.94 165.379 22.74 164.846 22.74H160.606ZM181.262 24.14C181.128 23.9933 180.935 23.84 180.682 23.68C180.428 23.5067 180.128 23.3467 179.782 23.2C179.448 23.0533 179.075 22.9333 178.662 22.84C178.262 22.7467 177.848 22.7 177.422 22.7C176.475 22.7 175.775 22.8733 175.322 23.22C174.882 23.5667 174.662 24.0467 174.662 24.66C174.662 25.0067 174.728 25.2933 174.862 25.52C175.008 25.7333 175.228 25.9267 175.522 26.1C175.815 26.26 176.182 26.4067 176.622 26.54C177.062 26.66 177.575 26.7933 178.162 26.94C178.882 27.1133 179.528 27.3067 180.102 27.52C180.688 27.7333 181.182 27.9933 181.582 28.3C181.982 28.6067 182.288 28.9867 182.502 29.44C182.728 29.88 182.842 30.42 182.842 31.06C182.842 31.78 182.702 32.4 182.422 32.92C182.155 33.44 181.782 33.8667 181.302 34.2C180.835 34.52 180.288 34.76 179.662 34.92C179.035 35.0667 178.362 35.14 177.642 35.14C176.562 35.14 175.515 34.98 174.502 34.66C173.502 34.3267 172.595 33.8467 171.782 33.22L172.802 31.3C172.975 31.4733 173.222 31.6667 173.542 31.88C173.875 32.0933 174.255 32.2933 174.682 32.48C175.122 32.6533 175.595 32.8067 176.102 32.94C176.608 33.06 177.135 33.12 177.682 33.12C178.562 33.12 179.242 32.9667 179.722 32.66C180.202 32.3533 180.442 31.9 180.442 31.3C180.442 30.94 180.348 30.64 180.162 30.4C179.988 30.16 179.735 29.9533 179.402 29.78C179.068 29.5933 178.662 29.4267 178.182 29.28C177.702 29.1333 177.155 28.98 176.542 28.82C175.835 28.6333 175.215 28.44 174.682 28.24C174.162 28.0267 173.728 27.7733 173.382 27.48C173.035 27.1867 172.768 26.8467 172.582 26.46C172.408 26.06 172.322 25.58 172.322 25.02C172.322 24.3267 172.455 23.7133 172.722 23.18C172.988 22.6333 173.348 22.18 173.802 21.82C174.268 21.4467 174.815 21.1667 175.442 20.98C176.068 20.7933 176.748 20.7 177.482 20.7C178.442 20.7 179.328 20.8533 180.142 21.16C180.955 21.4667 181.668 21.8467 182.282 22.3L181.262 24.14ZM185.188 27.8C185.188 26.9467 185.342 26.1 185.648 25.26C185.955 24.4067 186.402 23.6467 186.988 22.98C187.588 22.3 188.315 21.7533 189.168 21.34C190.022 20.9267 190.988 20.72 192.068 20.72C193.362 20.72 194.468 21.0067 195.388 21.58C196.308 22.1533 197.002 22.9 197.468 23.82L195.708 25C195.508 24.5733 195.268 24.2133 194.988 23.92C194.708 23.6267 194.402 23.3933 194.068 23.22C193.735 23.0467 193.388 22.9267 193.028 22.86C192.668 22.78 192.322 22.74 191.988 22.74C191.242 22.74 190.588 22.8933 190.028 23.2C189.468 23.4933 188.995 23.8867 188.608 24.38C188.235 24.8733 187.948 25.4267 187.748 26.04C187.562 26.6533 187.468 27.2667 187.468 27.88C187.468 28.5733 187.582 29.2333 187.808 29.86C188.035 30.4867 188.348 31.04 188.748 31.52C189.162 32 189.648 32.3867 190.208 32.68C190.768 32.96 191.382 33.1 192.048 33.1C192.395 33.1 192.748 33.06 193.108 32.98C193.482 32.8867 193.835 32.7467 194.168 32.56C194.515 32.36 194.828 32.1133 195.108 31.82C195.402 31.5267 195.642 31.1733 195.828 30.76L197.688 31.82C197.462 32.3533 197.142 32.8267 196.728 33.24C196.315 33.64 195.848 33.98 195.328 34.26C194.808 34.54 194.255 34.7533 193.668 34.9C193.095 35.0467 192.528 35.12 191.968 35.12C190.968 35.12 190.055 34.9067 189.228 34.48C188.402 34.0533 187.688 33.5 187.088 32.82C186.488 32.1267 186.022 31.3467 185.688 30.48C185.355 29.6 185.188 28.7067 185.188 27.8ZM200.76 35V20.8H206.94C207.58 20.8 208.167 20.9333 208.7 21.2C209.247 21.4667 209.713 21.82 210.1 22.26C210.487 22.6867 210.787 23.18 211 23.74C211.227 24.2867 211.34 24.8467 211.34 25.42C211.34 25.9 211.273 26.36 211.14 26.8C211.007 27.24 210.82 27.6467 210.58 28.02C210.34 28.3933 210.047 28.72 209.7 29C209.353 29.2667 208.973 29.4667 208.56 29.6L211.9 35H209.36L206.28 30.06H203V35H200.76ZM203 28.08H206.92C207.24 28.08 207.527 28.0133 207.78 27.88C208.047 27.7333 208.273 27.54 208.46 27.3C208.647 27.0467 208.793 26.76 208.9 26.44C209.007 26.12 209.06 25.78 209.06 25.42C209.06 25.06 208.993 24.72 208.86 24.4C208.74 24.08 208.573 23.8 208.36 23.56C208.16 23.32 207.92 23.1333 207.64 23C207.373 22.8533 207.093 22.78 206.8 22.78H203V28.08ZM214.983 35V20.8H217.223V35H214.983ZM232.592 31.34C232.592 31.9133 232.472 32.4267 232.232 32.88C232.005 33.3333 231.692 33.72 231.292 34.04C230.905 34.3467 230.445 34.5867 229.912 34.76C229.379 34.92 228.812 35 228.212 35H221.432V20.8H228.752C229.245 20.8 229.692 20.9067 230.092 21.12C230.492 21.3333 230.832 21.6133 231.112 21.96C231.392 22.2933 231.605 22.68 231.752 23.12C231.912 23.5467 231.992 23.98 231.992 24.42C231.992 25.1133 231.812 25.7667 231.452 26.38C231.105 26.98 230.605 27.4267 229.952 27.72C230.765 27.96 231.405 28.4 231.872 29.04C232.352 29.6667 232.592 30.4333 232.592 31.34ZM230.292 30.92C230.292 30.6267 230.239 30.3467 230.132 30.08C230.039 29.8133 229.905 29.58 229.732 29.38C229.572 29.18 229.372 29.02 229.132 28.9C228.892 28.78 228.632 28.72 228.352 28.72H223.672V33.06H228.212C228.505 33.06 228.779 33.0067 229.032 32.9C229.285 32.78 229.505 32.6267 229.692 32.44C229.879 32.24 230.025 32.0133 230.132 31.76C230.239 31.4933 230.292 31.2133 230.292 30.92ZM223.672 22.74V26.92H227.792C228.072 26.92 228.325 26.8667 228.552 26.76C228.792 26.6533 228.999 26.5133 229.172 26.34C229.359 26.1533 229.499 25.9333 229.592 25.68C229.699 25.4267 229.752 25.1467 229.752 24.84C229.752 24.2267 229.579 23.7267 229.232 23.34C228.885 22.94 228.445 22.74 227.912 22.74H223.672ZM245.668 33.02V35H235.928V20.8H245.488V22.78H238.168V26.82H244.508V28.68H238.168V33.02H245.668Z" fill="#EFF0F2"/>
</svg>
