<svg width="102" height="13" viewBox="0 0 102 13" fill="none" xmlns="http://www.w3.org/2000/svg">
<path d="M5.202 0.219999H6.966L12.006 13H9.882L8.532 9.526H3.6L2.268 13H0.126L5.202 0.219999ZM8.136 8.032L6.084 2.542L3.96 8.032H8.136ZM14.2066 0.219999L18.0586 10.462L21.8926 0.219999H24.0346L18.9226 13H17.1946L12.0646 0.219999H14.2066ZM29.168 0.219999H30.932L35.972 13H33.848L32.498 9.526H27.566L26.234 13H24.092L29.168 0.219999ZM32.102 8.032L30.05 2.542L27.926 8.032H32.102ZM38.4525 13V0.219999H40.4685V13H38.4525ZM44.2568 13V0.219999H46.2728V11.218H53.1308V13H44.2568ZM59.4305 0.219999H61.1945L66.2345 13H64.1105L62.7605 9.526H57.8285L56.4965 13H54.3545L59.4305 0.219999ZM62.3645 8.032L60.3125 2.542L58.1885 8.032H62.3645ZM78.759 9.706C78.759 10.222 78.651 10.684 78.435 11.092C78.231 11.5 77.949 11.848 77.589 12.136C77.241 12.412 76.827 12.628 76.347 12.784C75.867 12.928 75.357 13 74.817 13H68.715V0.219999H75.303C75.747 0.219999 76.149 0.316 76.509 0.508C76.869 0.7 77.175 0.952 77.427 1.264C77.679 1.564 77.871 1.912 78.003 2.308C78.147 2.692 78.219 3.082 78.219 3.478C78.219 4.102 78.057 4.69 77.733 5.242C77.421 5.782 76.971 6.184 76.383 6.448C77.115 6.664 77.691 7.06 78.111 7.636C78.543 8.2 78.759 8.89 78.759 9.706ZM76.689 9.328C76.689 9.064 76.641 8.812 76.545 8.572C76.461 8.332 76.341 8.122 76.185 7.942C76.041 7.762 75.861 7.618 75.645 7.51C75.429 7.402 75.195 7.348 74.943 7.348H70.731V11.254H74.817C75.081 11.254 75.327 11.206 75.555 11.11C75.783 11.002 75.981 10.864 76.149 10.696C76.317 10.516 76.449 10.312 76.545 10.084C76.641 9.844 76.689 9.592 76.689 9.328ZM70.731 1.966V5.728H74.439C74.691 5.728 74.919 5.68 75.123 5.584C75.339 5.488 75.525 5.362 75.681 5.206C75.849 5.038 75.975 4.84 76.059 4.612C76.155 4.384 76.203 4.132 76.203 3.856C76.203 3.304 76.047 2.854 75.735 2.506C75.423 2.146 75.027 1.966 74.547 1.966H70.731ZM81.7615 13V0.219999H83.7775V11.218H90.6355V13H81.7615ZM101.939 11.218V13H93.1732V0.219999H101.777V2.002H95.1892V5.638H100.895V7.312H95.1892V11.218H101.939Z" fill="#1F1F21"/>
<path d="M5.202 0.219999H6.966L12.006 13H9.882L8.532 9.526H3.6L2.268 13H0.126L5.202 0.219999ZM8.136 8.032L6.084 2.542L3.96 8.032H8.136ZM14.2066 0.219999L18.0586 10.462L21.8926 0.219999H24.0346L18.9226 13H17.1946L12.0646 0.219999H14.2066ZM29.168 0.219999H30.932L35.972 13H33.848L32.498 9.526H27.566L26.234 13H24.092L29.168 0.219999ZM32.102 8.032L30.05 2.542L27.926 8.032H32.102ZM38.4525 13V0.219999H40.4685V13H38.4525ZM44.2568 13V0.219999H46.2728V11.218H53.1308V13H44.2568ZM59.4305 0.219999H61.1945L66.2345 13H64.1105L62.7605 9.526H57.8285L56.4965 13H54.3545L59.4305 0.219999ZM62.3645 8.032L60.3125 2.542L58.1885 8.032H62.3645ZM78.759 9.706C78.759 10.222 78.651 10.684 78.435 11.092C78.231 11.5 77.949 11.848 77.589 12.136C77.241 12.412 76.827 12.628 76.347 12.784C75.867 12.928 75.357 13 74.817 13H68.715V0.219999H75.303C75.747 0.219999 76.149 0.316 76.509 0.508C76.869 0.7 77.175 0.952 77.427 1.264C77.679 1.564 77.871 1.912 78.003 2.308C78.147 2.692 78.219 3.082 78.219 3.478C78.219 4.102 78.057 4.69 77.733 5.242C77.421 5.782 76.971 6.184 76.383 6.448C77.115 6.664 77.691 7.06 78.111 7.636C78.543 8.2 78.759 8.89 78.759 9.706ZM76.689 9.328C76.689 9.064 76.641 8.812 76.545 8.572C76.461 8.332 76.341 8.122 76.185 7.942C76.041 7.762 75.861 7.618 75.645 7.51C75.429 7.402 75.195 7.348 74.943 7.348H70.731V11.254H74.817C75.081 11.254 75.327 11.206 75.555 11.11C75.783 11.002 75.981 10.864 76.149 10.696C76.317 10.516 76.449 10.312 76.545 10.084C76.641 9.844 76.689 9.592 76.689 9.328ZM70.731 1.966V5.728H74.439C74.691 5.728 74.919 5.68 75.123 5.584C75.339 5.488 75.525 5.362 75.681 5.206C75.849 5.038 75.975 4.84 76.059 4.612C76.155 4.384 76.203 4.132 76.203 3.856C76.203 3.304 76.047 2.854 75.735 2.506C75.423 2.146 75.027 1.966 74.547 1.966H70.731ZM81.7615 13V0.219999H83.7775V11.218H90.6355V13H81.7615ZM101.939 11.218V13H93.1732V0.219999H101.777V2.002H95.1892V5.638H100.895V7.312H95.1892V11.218H101.939Z" fill="black" fill-opacity="0.2"/>
<path d="M5.202 0.219999H6.966L12.006 13H9.882L8.532 9.526H3.6L2.268 13H0.126L5.202 0.219999ZM8.136 8.032L6.084 2.542L3.96 8.032H8.136ZM14.2066 0.219999L18.0586 10.462L21.8926 0.219999H24.0346L18.9226 13H17.1946L12.0646 0.219999H14.2066ZM29.168 0.219999H30.932L35.972 13H33.848L32.498 9.526H27.566L26.234 13H24.092L29.168 0.219999ZM32.102 8.032L30.05 2.542L27.926 8.032H32.102ZM38.4525 13V0.219999H40.4685V13H38.4525ZM44.2568 13V0.219999H46.2728V11.218H53.1308V13H44.2568ZM59.4305 0.219999H61.1945L66.2345 13H64.1105L62.7605 9.526H57.8285L56.4965 13H54.3545L59.4305 0.219999ZM62.3645 8.032L60.3125 2.542L58.1885 8.032H62.3645ZM78.759 9.706C78.759 10.222 78.651 10.684 78.435 11.092C78.231 11.5 77.949 11.848 77.589 12.136C77.241 12.412 76.827 12.628 76.347 12.784C75.867 12.928 75.357 13 74.817 13H68.715V0.219999H75.303C75.747 0.219999 76.149 0.316 76.509 0.508C76.869 0.7 77.175 0.952 77.427 1.264C77.679 1.564 77.871 1.912 78.003 2.308C78.147 2.692 78.219 3.082 78.219 3.478C78.219 4.102 78.057 4.69 77.733 5.242C77.421 5.782 76.971 6.184 76.383 6.448C77.115 6.664 77.691 7.06 78.111 7.636C78.543 8.2 78.759 8.89 78.759 9.706ZM76.689 9.328C76.689 9.064 76.641 8.812 76.545 8.572C76.461 8.332 76.341 8.122 76.185 7.942C76.041 7.762 75.861 7.618 75.645 7.51C75.429 7.402 75.195 7.348 74.943 7.348H70.731V11.254H74.817C75.081 11.254 75.327 11.206 75.555 11.11C75.783 11.002 75.981 10.864 76.149 10.696C76.317 10.516 76.449 10.312 76.545 10.084C76.641 9.844 76.689 9.592 76.689 9.328ZM70.731 1.966V5.728H74.439C74.691 5.728 74.919 5.68 75.123 5.584C75.339 5.488 75.525 5.362 75.681 5.206C75.849 5.038 75.975 4.84 76.059 4.612C76.155 4.384 76.203 4.132 76.203 3.856C76.203 3.304 76.047 2.854 75.735 2.506C75.423 2.146 75.027 1.966 74.547 1.966H70.731ZM81.7615 13V0.219999H83.7775V11.218H90.6355V13H81.7615ZM101.939 11.218V13H93.1732V0.219999H101.777V2.002H95.1892V5.638H100.895V7.312H95.1892V11.218H101.939Z" fill="black" fill-opacity="0.2"/>
</svg>
