<svg width="174" height="56" viewBox="0 0 174 56" fill="none" xmlns="http://www.w3.org/2000/svg">
<path d="M12 35L19 28L12 21M19 28L5 28" stroke="#EFF0F2" stroke-width="2" stroke-linecap="round" stroke-linejoin="round"/>
<path d="M37.6 35V20.8H39.84V33.02H47.46V35H37.6ZM60.0197 33.02V35H50.2797V20.8H59.8397V22.78H52.5197V26.82H58.8597V28.68H52.5197V33.02H60.0197ZM67.5105 20.8H69.4705L75.0705 35H72.7105L71.2105 31.14H65.7305L64.2505 35H61.8705L67.5105 20.8ZM70.7705 29.48L68.4905 23.38L66.1305 29.48H70.7705ZM77.8266 35V20.8H84.0066C84.6466 20.8 85.2332 20.9333 85.7666 21.2C86.3132 21.4667 86.7799 21.82 87.1666 22.26C87.5532 22.6867 87.8532 23.18 88.0666 23.74C88.2932 24.2867 88.4066 24.8467 88.4066 25.42C88.4066 25.9 88.3399 26.36 88.2066 26.8C88.0732 27.24 87.8866 27.6467 87.6466 28.02C87.4066 28.3933 87.1132 28.72 86.7666 29C86.4199 29.2667 86.0399 29.4667 85.6266 29.6L88.9666 35H86.4266L83.3466 30.06H80.0666V35H77.8266ZM80.0666 28.08H83.9866C84.3066 28.08 84.5932 28.0133 84.8466 27.88C85.1132 27.7333 85.3399 27.54 85.5266 27.3C85.7132 27.0467 85.8599 26.76 85.9666 26.44C86.0732 26.12 86.1266 25.78 86.1266 25.42C86.1266 25.06 86.0599 24.72 85.9266 24.4C85.8066 24.08 85.6399 23.8 85.4266 23.56C85.2266 23.32 84.9866 23.1333 84.7066 23C84.4399 22.8533 84.1599 22.78 83.8666 22.78H80.0666V28.08ZM94.2892 25V35H92.0492V20.8H93.8092L101.929 31.04V20.82H104.189V35H102.329L94.2892 25ZM126.263 35V24.78L122.043 32.52H120.803L116.563 24.78V35H114.323V20.8H116.723L121.423 29.48L126.123 20.8H128.523V35H126.263ZM138.625 35.1C137.612 35.1 136.685 34.9 135.845 34.5C135.018 34.0867 134.305 33.5467 133.705 32.88C133.105 32.2 132.638 31.4267 132.305 30.56C131.985 29.6933 131.825 28.8067 131.825 27.9C131.825 26.9533 131.998 26.0467 132.345 25.18C132.692 24.3133 133.165 23.5467 133.765 22.88C134.378 22.2133 135.098 21.6867 135.925 21.3C136.765 20.9 137.678 20.7 138.665 20.7C139.678 20.7 140.598 20.9133 141.425 21.34C142.265 21.7533 142.978 22.3 143.565 22.98C144.165 23.66 144.625 24.4333 144.945 25.3C145.278 26.1533 145.445 27.0267 145.445 27.92C145.445 28.8667 145.272 29.7733 144.925 30.64C144.592 31.5067 144.118 32.2733 143.505 32.94C142.892 33.5933 142.165 34.12 141.325 34.52C140.498 34.9067 139.598 35.1 138.625 35.1ZM134.105 27.9C134.105 28.5667 134.212 29.2133 134.425 29.84C134.638 30.4667 134.938 31.02 135.325 31.5C135.725 31.98 136.205 32.3667 136.765 32.66C137.325 32.94 137.952 33.08 138.645 33.08C139.365 33.08 139.998 32.9333 140.545 32.64C141.105 32.3333 141.578 31.9333 141.965 31.44C142.352 30.9467 142.645 30.3933 142.845 29.78C143.045 29.1667 143.145 28.54 143.145 27.9C143.145 27.22 143.038 26.5733 142.825 25.96C142.612 25.3333 142.305 24.7867 141.905 24.32C141.518 23.84 141.045 23.46 140.485 23.18C139.938 22.8867 139.325 22.74 138.645 22.74C137.925 22.74 137.285 22.8933 136.725 23.2C136.165 23.4933 135.692 23.88 135.305 24.36C134.918 24.84 134.618 25.3933 134.405 26.02C134.205 26.6333 134.105 27.26 134.105 27.9ZM148.764 35V20.8H154.944C155.584 20.8 156.171 20.9333 156.704 21.2C157.251 21.4667 157.717 21.82 158.104 22.26C158.491 22.6867 158.791 23.18 159.004 23.74C159.231 24.2867 159.344 24.8467 159.344 25.42C159.344 25.9 159.277 26.36 159.144 26.8C159.011 27.24 158.824 27.6467 158.584 28.02C158.344 28.3933 158.051 28.72 157.704 29C157.357 29.2667 156.977 29.4667 156.564 29.6L159.904 35H157.364L154.284 30.06H151.004V35H148.764ZM151.004 28.08H154.924C155.244 28.08 155.531 28.0133 155.784 27.88C156.051 27.7333 156.277 27.54 156.464 27.3C156.651 27.0467 156.797 26.76 156.904 26.44C157.011 26.12 157.064 25.78 157.064 25.42C157.064 25.06 156.997 24.72 156.864 24.4C156.744 24.08 156.577 23.8 156.364 23.56C156.164 23.32 155.924 23.1333 155.644 23C155.377 22.8533 155.097 22.78 154.804 22.78H151.004V28.08ZM172.727 33.02V35H162.987V20.8H172.547V22.78H165.227V26.82H171.567V28.68H165.227V33.02H172.727Z" fill="#EFF0F2"/>
</svg>
