<svg width="93" height="24" viewBox="0 0 93 24" fill="none" xmlns="http://www.w3.org/2000/svg">
<path d="M3 17H21" stroke="#EFF0F2" stroke-width="2" stroke-linecap="round" stroke-linejoin="round"/>
<path d="M3 12H21" stroke="#EFF0F2" stroke-width="2" stroke-linecap="round" stroke-linejoin="round"/>
<path d="M3 7H21" stroke="#EFF0F2" stroke-width="2" stroke-linecap="round" stroke-linejoin="round"/>
<path d="M48.186 18.5V9.302L44.388 16.268H43.272L39.456 9.302V18.5H37.44V5.72H39.6L43.83 13.532L48.06 5.72H50.22V18.5H48.186ZM62.7681 16.718V18.5H54.0021V5.72H62.6061V7.502H56.0181V11.138H61.7241V12.812H56.0181V16.718H62.7681ZM67.7638 9.5V18.5H65.7478V5.72H67.3318L74.6398 14.936V5.738H76.6738V18.5H74.9998L67.7638 9.5ZM85.7746 16.772C86.4466 16.772 87.0046 16.64 87.4486 16.376C87.8926 16.112 88.2466 15.77 88.5106 15.35C88.7866 14.918 88.9786 14.432 89.0866 13.892C89.2066 13.34 89.2666 12.776 89.2666 12.2V5.72H91.3006V12.2C91.3006 13.076 91.1986 13.904 90.9946 14.684C90.7906 15.452 90.4666 16.13 90.0226 16.718C89.5786 17.294 89.0026 17.75 88.2946 18.086C87.5986 18.422 86.7586 18.59 85.7746 18.59C84.7546 18.59 83.8906 18.416 83.1826 18.068C82.4866 17.708 81.9226 17.234 81.4906 16.646C81.0586 16.046 80.7466 15.362 80.5546 14.594C80.3626 13.826 80.2666 13.028 80.2666 12.2V5.72H82.2826V12.2C82.2826 12.788 82.3366 13.358 82.4446 13.91C82.5646 14.45 82.7566 14.936 83.0206 15.368C83.2966 15.788 83.6566 16.13 84.1006 16.394C84.5566 16.646 85.1146 16.772 85.7746 16.772Z" fill="#EFF0F2"/>
</svg>
