<svg width="40" height="40" viewBox="0 0 40 40" fill="none" xmlns="http://www.w3.org/2000/svg">
<rect width="40" height="40" rx="20" fill="#1F1F21"/>
<rect width="40" height="40" rx="20" fill="black" fill-opacity="0.2"/>
<rect width="40" height="40" rx="20" fill="black" fill-opacity="0.2"/>
<path d="M30 12.009C29.1294 12.6113 28.1656 13.0719 27.1455 13.3732C26.5979 12.7558 25.8703 12.3181 25.0609 12.1195C24.2516 11.9208 23.3995 11.9708 22.6201 12.2626C21.8406 12.5544 21.1713 13.074 20.7027 13.7511C20.2341 14.4281 19.9888 15.23 20 16.0483V16.9399C18.4024 16.9806 16.8193 16.633 15.3918 15.9283C13.9643 15.2235 12.7367 14.1834 11.8182 12.9006C11.8182 12.9006 8.18182 20.9258 16.3636 24.4925C14.4914 25.739 12.2611 26.364 10 26.2758C18.1818 30.7342 28.1818 26.2758 28.1818 16.0215C28.181 15.7731 28.1566 15.5254 28.1091 15.2814C29.0369 14.3839 29.6917 13.2508 30 12.009Z" stroke="#EFF0F2" stroke-width="2" stroke-linecap="round" stroke-linejoin="round"/>
</svg>
