<svg width="342" height="56" viewBox="0 0 342 56" fill="none" xmlns="http://www.w3.org/2000/svg">
<rect x="1" y="1" width="340" height="54" stroke="#1F1F21" stroke-width="2"/>
<rect x="1" y="1" width="340" height="54" stroke="black" stroke-opacity="0.2" stroke-width="2"/>
<rect x="1" y="1" width="340" height="54" stroke="black" stroke-opacity="0.2" stroke-width="2"/>
<path d="M66.5 35L73.5 28L66.5 21M73.5 28L59.5 28" stroke="#1F1F21" stroke-width="2" stroke-linecap="round" stroke-linejoin="round"/>
<path d="M66.5 35L73.5 28L66.5 21M73.5 28L59.5 28" stroke="black" stroke-opacity="0.2" stroke-width="2" stroke-linecap="round" stroke-linejoin="round"/>
<path d="M66.5 35L73.5 28L66.5 21M73.5 28L59.5 28" stroke="black" stroke-opacity="0.2" stroke-width="2" stroke-linecap="round" stroke-linejoin="round"/>
<path d="M93 20.8L97.28 32.18L101.54 20.8H103.92L98.24 35H96.32L90.62 20.8H93ZM106.655 35V20.8H108.895V35H106.655ZM122.844 33.02V35H113.104V20.8H122.664V22.78H115.344V26.82H121.684V28.68H115.344V33.02H122.844ZM131.195 20.86H133.315L135.055 25.68L136.815 20.86H138.915L136.495 27.18L138.615 32.4L143.035 20.8H145.495L139.635 35H137.715L135.075 28.64L132.415 35H130.495L124.635 20.8H127.075L131.515 32.4L133.635 27.18L131.195 20.86ZM165.368 35V24.78L161.148 32.52H159.908L155.668 24.78V35H153.428V20.8H155.828L160.528 29.48L165.228 20.8H167.628V35H165.368ZM177.73 35.1C176.717 35.1 175.79 34.9 174.95 34.5C174.124 34.0867 173.41 33.5467 172.81 32.88C172.21 32.2 171.744 31.4267 171.41 30.56C171.09 29.6933 170.93 28.8067 170.93 27.9C170.93 26.9533 171.104 26.0467 171.45 25.18C171.797 24.3133 172.27 23.5467 172.87 22.88C173.484 22.2133 174.204 21.6867 175.03 21.3C175.87 20.9 176.784 20.7 177.77 20.7C178.784 20.7 179.704 20.9133 180.53 21.34C181.37 21.7533 182.084 22.3 182.67 22.98C183.27 23.66 183.73 24.4333 184.05 25.3C184.384 26.1533 184.55 27.0267 184.55 27.92C184.55 28.8667 184.377 29.7733 184.03 30.64C183.697 31.5067 183.224 32.2733 182.61 32.94C181.997 33.5933 181.27 34.12 180.43 34.52C179.604 34.9067 178.704 35.1 177.73 35.1ZM173.21 27.9C173.21 28.5667 173.317 29.2133 173.53 29.84C173.744 30.4667 174.044 31.02 174.43 31.5C174.83 31.98 175.31 32.3667 175.87 32.66C176.43 32.94 177.057 33.08 177.75 33.08C178.47 33.08 179.104 32.9333 179.65 32.64C180.21 32.3333 180.684 31.9333 181.07 31.44C181.457 30.9467 181.75 30.3933 181.95 29.78C182.15 29.1667 182.25 28.54 182.25 27.9C182.25 27.22 182.144 26.5733 181.93 25.96C181.717 25.3333 181.41 24.7867 181.01 24.32C180.624 23.84 180.15 23.46 179.59 23.18C179.044 22.8867 178.43 22.74 177.75 22.74C177.03 22.74 176.39 22.8933 175.83 23.2C175.27 23.4933 174.797 23.88 174.41 24.36C174.024 24.84 173.724 25.3933 173.51 26.02C173.31 26.6333 173.21 27.26 173.21 27.9ZM187.87 35V20.8H194.05C194.69 20.8 195.276 20.9333 195.81 21.2C196.356 21.4667 196.823 21.82 197.21 22.26C197.596 22.6867 197.896 23.18 198.11 23.74C198.336 24.2867 198.45 24.8467 198.45 25.42C198.45 25.9 198.383 26.36 198.25 26.8C198.116 27.24 197.93 27.6467 197.69 28.02C197.45 28.3933 197.156 28.72 196.81 29C196.463 29.2667 196.083 29.4667 195.67 29.6L199.01 35H196.47L193.39 30.06H190.11V35H187.87ZM190.11 28.08H194.03C194.35 28.08 194.636 28.0133 194.89 27.88C195.156 27.7333 195.383 27.54 195.57 27.3C195.756 27.0467 195.903 26.76 196.01 26.44C196.116 26.12 196.17 25.78 196.17 25.42C196.17 25.06 196.103 24.72 195.97 24.4C195.85 24.08 195.683 23.8 195.47 23.56C195.27 23.32 195.03 23.1333 194.75 23C194.483 22.8533 194.203 22.78 193.91 22.78H190.11V28.08ZM211.832 33.02V35H202.092V20.8H211.652V22.78H204.332V26.82H210.672V28.68H204.332V33.02H211.832ZM221.084 35V20.8H223.324V35H221.084ZM237.954 22.78H233.234V35H230.974V22.78H226.234V20.8H237.954V22.78ZM250.598 33.02V35H240.858V20.8H250.418V22.78H243.098V26.82H249.438V28.68H243.098V33.02H250.598ZM265.849 35V24.78L261.629 32.52H260.389L256.149 24.78V35H253.909V20.8H256.309L261.009 29.48L265.709 20.8H268.109V35H265.849ZM280.711 24.14C280.578 23.9933 280.384 23.84 280.131 23.68C279.878 23.5067 279.578 23.3467 279.231 23.2C278.898 23.0533 278.524 22.9333 278.111 22.84C277.711 22.7467 277.298 22.7 276.871 22.7C275.924 22.7 275.224 22.8733 274.771 23.22C274.331 23.5667 274.111 24.0467 274.111 24.66C274.111 25.0067 274.178 25.2933 274.311 25.52C274.458 25.7333 274.678 25.9267 274.971 26.1C275.264 26.26 275.631 26.4067 276.071 26.54C276.511 26.66 277.024 26.7933 277.611 26.94C278.331 27.1133 278.978 27.3067 279.551 27.52C280.138 27.7333 280.631 27.9933 281.031 28.3C281.431 28.6067 281.738 28.9867 281.951 29.44C282.178 29.88 282.291 30.42 282.291 31.06C282.291 31.78 282.151 32.4 281.871 32.92C281.604 33.44 281.231 33.8667 280.751 34.2C280.284 34.52 279.738 34.76 279.111 34.92C278.484 35.0667 277.811 35.14 277.091 35.14C276.011 35.14 274.964 34.98 273.951 34.66C272.951 34.3267 272.044 33.8467 271.231 33.22L272.251 31.3C272.424 31.4733 272.671 31.6667 272.991 31.88C273.324 32.0933 273.704 32.2933 274.131 32.48C274.571 32.6533 275.044 32.8067 275.551 32.94C276.058 33.06 276.584 33.12 277.131 33.12C278.011 33.12 278.691 32.9667 279.171 32.66C279.651 32.3533 279.891 31.9 279.891 31.3C279.891 30.94 279.798 30.64 279.611 30.4C279.438 30.16 279.184 29.9533 278.851 29.78C278.518 29.5933 278.111 29.4267 277.631 29.28C277.151 29.1333 276.604 28.98 275.991 28.82C275.284 28.6333 274.664 28.44 274.131 28.24C273.611 28.0267 273.178 27.7733 272.831 27.48C272.484 27.1867 272.218 26.8467 272.031 26.46C271.858 26.06 271.771 25.58 271.771 25.02C271.771 24.3267 271.904 23.7133 272.171 23.18C272.438 22.6333 272.798 22.18 273.251 21.82C273.718 21.4467 274.264 21.1667 274.891 20.98C275.518 20.7933 276.198 20.7 276.931 20.7C277.891 20.7 278.778 20.8533 279.591 21.16C280.404 21.4667 281.118 21.8467 281.731 22.3L280.711 24.14Z" fill="#1F1F21"/>
<path d="M93 20.8L97.28 32.18L101.54 20.8H103.92L98.24 35H96.32L90.62 20.8H93ZM106.655 35V20.8H108.895V35H106.655ZM122.844 33.02V35H113.104V20.8H122.664V22.78H115.344V26.82H121.684V28.68H115.344V33.02H122.844ZM131.195 20.86H133.315L135.055 25.68L136.815 20.86H138.915L136.495 27.18L138.615 32.4L143.035 20.8H145.495L139.635 35H137.715L135.075 28.64L132.415 35H130.495L124.635 20.8H127.075L131.515 32.4L133.635 27.18L131.195 20.86ZM165.368 35V24.78L161.148 32.52H159.908L155.668 24.78V35H153.428V20.8H155.828L160.528 29.48L165.228 20.8H167.628V35H165.368ZM177.73 35.1C176.717 35.1 175.79 34.9 174.95 34.5C174.124 34.0867 173.41 33.5467 172.81 32.88C172.21 32.2 171.744 31.4267 171.41 30.56C171.09 29.6933 170.93 28.8067 170.93 27.9C170.93 26.9533 171.104 26.0467 171.45 25.18C171.797 24.3133 172.27 23.5467 172.87 22.88C173.484 22.2133 174.204 21.6867 175.03 21.3C175.87 20.9 176.784 20.7 177.77 20.7C178.784 20.7 179.704 20.9133 180.53 21.34C181.37 21.7533 182.084 22.3 182.67 22.98C183.27 23.66 183.73 24.4333 184.05 25.3C184.384 26.1533 184.55 27.0267 184.55 27.92C184.55 28.8667 184.377 29.7733 184.03 30.64C183.697 31.5067 183.224 32.2733 182.61 32.94C181.997 33.5933 181.27 34.12 180.43 34.52C179.604 34.9067 178.704 35.1 177.73 35.1ZM173.21 27.9C173.21 28.5667 173.317 29.2133 173.53 29.84C173.744 30.4667 174.044 31.02 174.43 31.5C174.83 31.98 175.31 32.3667 175.87 32.66C176.43 32.94 177.057 33.08 177.75 33.08C178.47 33.08 179.104 32.9333 179.65 32.64C180.21 32.3333 180.684 31.9333 181.07 31.44C181.457 30.9467 181.75 30.3933 181.95 29.78C182.15 29.1667 182.25 28.54 182.25 27.9C182.25 27.22 182.144 26.5733 181.93 25.96C181.717 25.3333 181.41 24.7867 181.01 24.32C180.624 23.84 180.15 23.46 179.59 23.18C179.044 22.8867 178.43 22.74 177.75 22.74C177.03 22.74 176.39 22.8933 175.83 23.2C175.27 23.4933 174.797 23.88 174.41 24.36C174.024 24.84 173.724 25.3933 173.51 26.02C173.31 26.6333 173.21 27.26 173.21 27.9ZM187.87 35V20.8H194.05C194.69 20.8 195.276 20.9333 195.81 21.2C196.356 21.4667 196.823 21.82 197.21 22.26C197.596 22.6867 197.896 23.18 198.11 23.74C198.336 24.2867 198.45 24.8467 198.45 25.42C198.45 25.9 198.383 26.36 198.25 26.8C198.116 27.24 197.93 27.6467 197.69 28.02C197.45 28.3933 197.156 28.72 196.81 29C196.463 29.2667 196.083 29.4667 195.67 29.6L199.01 35H196.47L193.39 30.06H190.11V35H187.87ZM190.11 28.08H194.03C194.35 28.08 194.636 28.0133 194.89 27.88C195.156 27.7333 195.383 27.54 195.57 27.3C195.756 27.0467 195.903 26.76 196.01 26.44C196.116 26.12 196.17 25.78 196.17 25.42C196.17 25.06 196.103 24.72 195.97 24.4C195.85 24.08 195.683 23.8 195.47 23.56C195.27 23.32 195.03 23.1333 194.75 23C194.483 22.8533 194.203 22.78 193.91 22.78H190.11V28.08ZM211.832 33.02V35H202.092V20.8H211.652V22.78H204.332V26.82H210.672V28.68H204.332V33.02H211.832ZM221.084 35V20.8H223.324V35H221.084ZM237.954 22.78H233.234V35H230.974V22.78H226.234V20.8H237.954V22.78ZM250.598 33.02V35H240.858V20.8H250.418V22.78H243.098V26.82H249.438V28.68H243.098V33.02H250.598ZM265.849 35V24.78L261.629 32.52H260.389L256.149 24.78V35H253.909V20.8H256.309L261.009 29.48L265.709 20.8H268.109V35H265.849ZM280.711 24.14C280.578 23.9933 280.384 23.84 280.131 23.68C279.878 23.5067 279.578 23.3467 279.231 23.2C278.898 23.0533 278.524 22.9333 278.111 22.84C277.711 22.7467 277.298 22.7 276.871 22.7C275.924 22.7 275.224 22.8733 274.771 23.22C274.331 23.5667 274.111 24.0467 274.111 24.66C274.111 25.0067 274.178 25.2933 274.311 25.52C274.458 25.7333 274.678 25.9267 274.971 26.1C275.264 26.26 275.631 26.4067 276.071 26.54C276.511 26.66 277.024 26.7933 277.611 26.94C278.331 27.1133 278.978 27.3067 279.551 27.52C280.138 27.7333 280.631 27.9933 281.031 28.3C281.431 28.6067 281.738 28.9867 281.951 29.44C282.178 29.88 282.291 30.42 282.291 31.06C282.291 31.78 282.151 32.4 281.871 32.92C281.604 33.44 281.231 33.8667 280.751 34.2C280.284 34.52 279.738 34.76 279.111 34.92C278.484 35.0667 277.811 35.14 277.091 35.14C276.011 35.14 274.964 34.98 273.951 34.66C272.951 34.3267 272.044 33.8467 271.231 33.22L272.251 31.3C272.424 31.4733 272.671 31.6667 272.991 31.88C273.324 32.0933 273.704 32.2933 274.131 32.48C274.571 32.6533 275.044 32.8067 275.551 32.94C276.058 33.06 276.584 33.12 277.131 33.12C278.011 33.12 278.691 32.9667 279.171 32.66C279.651 32.3533 279.891 31.9 279.891 31.3C279.891 30.94 279.798 30.64 279.611 30.4C279.438 30.16 279.184 29.9533 278.851 29.78C278.518 29.5933 278.111 29.4267 277.631 29.28C277.151 29.1333 276.604 28.98 275.991 28.82C275.284 28.6333 274.664 28.44 274.131 28.24C273.611 28.0267 273.178 27.7733 272.831 27.48C272.484 27.1867 272.218 26.8467 272.031 26.46C271.858 26.06 271.771 25.58 271.771 25.02C271.771 24.3267 271.904 23.7133 272.171 23.18C272.438 22.6333 272.798 22.18 273.251 21.82C273.718 21.4467 274.264 21.1667 274.891 20.98C275.518 20.7933 276.198 20.7 276.931 20.7C277.891 20.7 278.778 20.8533 279.591 21.16C280.404 21.4667 281.118 21.8467 281.731 22.3L280.711 24.14Z" fill="black" fill-opacity="0.2"/>
<path d="M93 20.8L97.28 32.18L101.54 20.8H103.92L98.24 35H96.32L90.62 20.8H93ZM106.655 35V20.8H108.895V35H106.655ZM122.844 33.02V35H113.104V20.8H122.664V22.78H115.344V26.82H121.684V28.68H115.344V33.02H122.844ZM131.195 20.86H133.315L135.055 25.68L136.815 20.86H138.915L136.495 27.18L138.615 32.4L143.035 20.8H145.495L139.635 35H137.715L135.075 28.64L132.415 35H130.495L124.635 20.8H127.075L131.515 32.4L133.635 27.18L131.195 20.86ZM165.368 35V24.78L161.148 32.52H159.908L155.668 24.78V35H153.428V20.8H155.828L160.528 29.48L165.228 20.8H167.628V35H165.368ZM177.73 35.1C176.717 35.1 175.79 34.9 174.95 34.5C174.124 34.0867 173.41 33.5467 172.81 32.88C172.21 32.2 171.744 31.4267 171.41 30.56C171.09 29.6933 170.93 28.8067 170.93 27.9C170.93 26.9533 171.104 26.0467 171.45 25.18C171.797 24.3133 172.27 23.5467 172.87 22.88C173.484 22.2133 174.204 21.6867 175.03 21.3C175.87 20.9 176.784 20.7 177.77 20.7C178.784 20.7 179.704 20.9133 180.53 21.34C181.37 21.7533 182.084 22.3 182.67 22.98C183.27 23.66 183.73 24.4333 184.05 25.3C184.384 26.1533 184.55 27.0267 184.55 27.92C184.55 28.8667 184.377 29.7733 184.03 30.64C183.697 31.5067 183.224 32.2733 182.61 32.94C181.997 33.5933 181.27 34.12 180.43 34.52C179.604 34.9067 178.704 35.1 177.73 35.1ZM173.21 27.9C173.21 28.5667 173.317 29.2133 173.53 29.84C173.744 30.4667 174.044 31.02 174.43 31.5C174.83 31.98 175.31 32.3667 175.87 32.66C176.43 32.94 177.057 33.08 177.75 33.08C178.47 33.08 179.104 32.9333 179.65 32.64C180.21 32.3333 180.684 31.9333 181.07 31.44C181.457 30.9467 181.75 30.3933 181.95 29.78C182.15 29.1667 182.25 28.54 182.25 27.9C182.25 27.22 182.144 26.5733 181.93 25.96C181.717 25.3333 181.41 24.7867 181.01 24.32C180.624 23.84 180.15 23.46 179.59 23.18C179.044 22.8867 178.43 22.74 177.75 22.74C177.03 22.74 176.39 22.8933 175.83 23.2C175.27 23.4933 174.797 23.88 174.41 24.36C174.024 24.84 173.724 25.3933 173.51 26.02C173.31 26.6333 173.21 27.26 173.21 27.9ZM187.87 35V20.8H194.05C194.69 20.8 195.276 20.9333 195.81 21.2C196.356 21.4667 196.823 21.82 197.21 22.26C197.596 22.6867 197.896 23.18 198.11 23.74C198.336 24.2867 198.45 24.8467 198.45 25.42C198.45 25.9 198.383 26.36 198.25 26.8C198.116 27.24 197.93 27.6467 197.69 28.02C197.45 28.3933 197.156 28.72 196.81 29C196.463 29.2667 196.083 29.4667 195.67 29.6L199.01 35H196.47L193.39 30.06H190.11V35H187.87ZM190.11 28.08H194.03C194.35 28.08 194.636 28.0133 194.89 27.88C195.156 27.7333 195.383 27.54 195.57 27.3C195.756 27.0467 195.903 26.76 196.01 26.44C196.116 26.12 196.17 25.78 196.17 25.42C196.17 25.06 196.103 24.72 195.97 24.4C195.85 24.08 195.683 23.8 195.47 23.56C195.27 23.32 195.03 23.1333 194.75 23C194.483 22.8533 194.203 22.78 193.91 22.78H190.11V28.08ZM211.832 33.02V35H202.092V20.8H211.652V22.78H204.332V26.82H210.672V28.68H204.332V33.02H211.832ZM221.084 35V20.8H223.324V35H221.084ZM237.954 22.78H233.234V35H230.974V22.78H226.234V20.8H237.954V22.78ZM250.598 33.02V35H240.858V20.8H250.418V22.78H243.098V26.82H249.438V28.68H243.098V33.02H250.598ZM265.849 35V24.78L261.629 32.52H260.389L256.149 24.78V35H253.909V20.8H256.309L261.009 29.48L265.709 20.8H268.109V35H265.849ZM280.711 24.14C280.578 23.9933 280.384 23.84 280.131 23.68C279.878 23.5067 279.578 23.3467 279.231 23.2C278.898 23.0533 278.524 22.9333 278.111 22.84C277.711 22.7467 277.298 22.7 276.871 22.7C275.924 22.7 275.224 22.8733 274.771 23.22C274.331 23.5667 274.111 24.0467 274.111 24.66C274.111 25.0067 274.178 25.2933 274.311 25.52C274.458 25.7333 274.678 25.9267 274.971 26.1C275.264 26.26 275.631 26.4067 276.071 26.54C276.511 26.66 277.024 26.7933 277.611 26.94C278.331 27.1133 278.978 27.3067 279.551 27.52C280.138 27.7333 280.631 27.9933 281.031 28.3C281.431 28.6067 281.738 28.9867 281.951 29.44C282.178 29.88 282.291 30.42 282.291 31.06C282.291 31.78 282.151 32.4 281.871 32.92C281.604 33.44 281.231 33.8667 280.751 34.2C280.284 34.52 279.738 34.76 279.111 34.92C278.484 35.0667 277.811 35.14 277.091 35.14C276.011 35.14 274.964 34.98 273.951 34.66C272.951 34.3267 272.044 33.8467 271.231 33.22L272.251 31.3C272.424 31.4733 272.671 31.6667 272.991 31.88C273.324 32.0933 273.704 32.2933 274.131 32.48C274.571 32.6533 275.044 32.8067 275.551 32.94C276.058 33.06 276.584 33.12 277.131 33.12C278.011 33.12 278.691 32.9667 279.171 32.66C279.651 32.3533 279.891 31.9 279.891 31.3C279.891 30.94 279.798 30.64 279.611 30.4C279.438 30.16 279.184 29.9533 278.851 29.78C278.518 29.5933 278.111 29.4267 277.631 29.28C277.151 29.1333 276.604 28.98 275.991 28.82C275.284 28.6333 274.664 28.44 274.131 28.24C273.611 28.0267 273.178 27.7733 272.831 27.48C272.484 27.1867 272.218 26.8467 272.031 26.46C271.858 26.06 271.771 25.58 271.771 25.02C271.771 24.3267 271.904 23.7133 272.171 23.18C272.438 22.6333 272.798 22.18 273.251 21.82C273.718 21.4467 274.264 21.1667 274.891 20.98C275.518 20.7933 276.198 20.7 276.931 20.7C277.891 20.7 278.778 20.8533 279.591 21.16C280.404 21.4667 281.118 21.8467 281.731 22.3L280.711 24.14Z" fill="black" fill-opacity="0.2"/>
</svg>
