<svg width="332" height="36" viewBox="0 0 332 36" fill="none" xmlns="http://www.w3.org/2000/svg">
<path d="M17 35.24C14.568 35.24 12.344 34.76 10.328 33.8C8.344 32.808 6.632 31.512 5.192 29.912C3.752 28.28 2.632 26.424 1.832 24.344C1.064 22.264 0.68 20.136 0.68 17.96C0.68 15.688 1.096 13.512 1.928 11.432C2.76 9.352 3.896 7.512 5.336 5.912C6.808 4.312 8.536 3.048 10.52 2.12C12.536 1.16 14.728 0.679998 17.096 0.679998C19.528 0.679998 21.736 1.192 23.72 2.216C25.736 3.208 27.448 4.52 28.856 6.152C30.296 7.784 31.4 9.64 32.168 11.72C32.968 13.768 33.368 15.864 33.368 18.008C33.368 20.28 32.952 22.456 32.12 24.536C31.32 26.616 30.184 28.456 28.712 30.056C27.24 31.624 25.496 32.888 23.48 33.848C21.496 34.776 19.336 35.24 17 35.24ZM6.152 17.96C6.152 19.56 6.408 21.112 6.92 22.616C7.432 24.12 8.152 25.448 9.08 26.6C10.04 27.752 11.192 28.68 12.536 29.384C13.88 30.056 15.384 30.392 17.048 30.392C18.776 30.392 20.296 30.04 21.608 29.336C22.952 28.6 24.088 27.64 25.016 26.456C25.944 25.272 26.648 23.944 27.128 22.472C27.608 21 27.848 19.496 27.848 17.96C27.848 16.328 27.592 14.776 27.08 13.304C26.568 11.8 25.832 10.488 24.872 9.368C23.944 8.216 22.808 7.304 21.464 6.632C20.152 5.928 18.68 5.576 17.048 5.576C15.32 5.576 13.784 5.944 12.44 6.68C11.096 7.384 9.96 8.312 9.032 9.464C8.104 10.616 7.384 11.944 6.872 13.448C6.392 14.92 6.152 16.424 6.152 17.96ZM55.5418 30.392C57.3338 30.392 58.8218 30.04 60.0058 29.336C61.1898 28.632 62.1338 27.72 62.8378 26.6C63.5738 25.448 64.0858 24.152 64.3738 22.712C64.6938 21.24 64.8538 19.736 64.8538 18.2V0.919998H70.2778V18.2C70.2778 20.536 70.0058 22.744 69.4618 24.824C68.9178 26.872 68.0538 28.68 66.8698 30.248C65.6858 31.784 64.1498 33 62.2618 33.896C60.4058 34.792 58.1658 35.24 55.5418 35.24C52.8218 35.24 50.5178 34.776 48.6298 33.848C46.7738 32.888 45.2698 31.624 44.1178 30.056C42.9658 28.456 42.1338 26.632 41.6218 24.584C41.1098 22.536 40.8538 20.408 40.8538 18.2V0.919998H46.2298V18.2C46.2298 19.768 46.3738 21.288 46.6618 22.76C46.9818 24.2 47.4938 25.496 48.1978 26.648C48.9338 27.768 49.8938 28.68 51.0778 29.384C52.2938 30.056 53.7818 30.392 55.5418 30.392ZM79.8275 35V0.919998H94.6595C96.1955 0.919998 97.6035 1.24 98.8835 1.88C100.196 2.52 101.316 3.368 102.244 4.424C103.172 5.448 103.892 6.632 104.404 7.976C104.948 9.288 105.22 10.632 105.22 12.008C105.22 13.16 105.06 14.264 104.74 15.32C104.42 16.376 103.972 17.352 103.396 18.248C102.82 19.144 102.116 19.928 101.284 20.6C100.452 21.24 99.5395 21.72 98.5475 22.04L106.564 35H100.468L93.0755 23.144H85.2035V35H79.8275ZM85.2035 18.392H94.6115C95.3795 18.392 96.0675 18.232 96.6755 17.912C97.3155 17.56 97.8595 17.096 98.3075 16.52C98.7555 15.912 99.1075 15.224 99.3635 14.456C99.6195 13.688 99.7475 12.872 99.7475 12.008C99.7475 11.144 99.5875 10.328 99.2675 9.56C98.9795 8.792 98.5795 8.12 98.0675 7.544C97.5875 6.968 97.0115 6.52 96.3395 6.2C95.6995 5.848 95.0275 5.672 94.3235 5.672H85.2035V18.392ZM155.005 26.216C155.005 27.592 154.717 28.824 154.141 29.912C153.597 31 152.845 31.928 151.885 32.696C150.957 33.432 149.853 34.008 148.573 34.424C147.293 34.808 145.933 35 144.493 35H128.221V0.919998H145.789C146.973 0.919998 148.045 1.176 149.005 1.688C149.965 2.2 150.781 2.872 151.453 3.704C152.125 4.504 152.637 5.432 152.989 6.488C153.373 7.512 153.565 8.552 153.565 9.608C153.565 11.272 153.133 12.84 152.269 14.312C151.437 15.752 150.237 16.824 148.669 17.528C150.621 18.104 152.157 19.16 153.277 20.696C154.429 22.2 155.005 24.04 155.005 26.216ZM149.485 25.208C149.485 24.504 149.357 23.832 149.101 23.192C148.877 22.552 148.557 21.992 148.141 21.512C147.757 21.032 147.277 20.648 146.701 20.36C146.125 20.072 145.501 19.928 144.829 19.928H133.597V30.344H144.493C145.197 30.344 145.853 30.216 146.461 29.96C147.069 29.672 147.597 29.304 148.045 28.856C148.493 28.376 148.845 27.832 149.101 27.224C149.357 26.584 149.485 25.912 149.485 25.208ZM133.597 5.576V15.608H143.485C144.157 15.608 144.765 15.48 145.309 15.224C145.885 14.968 146.381 14.632 146.797 14.216C147.245 13.768 147.581 13.24 147.805 12.632C148.061 12.024 148.189 11.352 148.189 10.616C148.189 9.144 147.773 7.944 146.941 7.016C146.109 6.056 145.053 5.576 143.773 5.576H133.597ZM163.012 35V0.919998H177.844C179.38 0.919998 180.788 1.24 182.068 1.88C183.38 2.52 184.5 3.368 185.428 4.424C186.356 5.448 187.076 6.632 187.588 7.976C188.132 9.288 188.404 10.632 188.404 12.008C188.404 13.16 188.244 14.264 187.924 15.32C187.604 16.376 187.156 17.352 186.58 18.248C186.004 19.144 185.3 19.928 184.468 20.6C183.636 21.24 182.724 21.72 181.732 22.04L189.748 35H183.652L176.26 23.144H168.388V35H163.012ZM168.388 18.392H177.796C178.564 18.392 179.252 18.232 179.86 17.912C180.5 17.56 181.044 17.096 181.492 16.52C181.94 15.912 182.292 15.224 182.548 14.456C182.804 13.688 182.932 12.872 182.932 12.008C182.932 11.144 182.772 10.328 182.452 9.56C182.164 8.792 181.764 8.12 181.252 7.544C180.772 6.968 180.196 6.52 179.524 6.2C178.884 5.848 178.212 5.672 177.508 5.672H168.388V18.392ZM206.663 0.919998H211.367L224.807 35H219.143L215.543 25.736H202.391L198.839 35H193.127L206.663 0.919998ZM214.487 21.752L209.015 7.112L203.351 21.752H214.487ZM236.797 11V35H231.421V0.919998H235.645L255.133 25.496V0.967998H260.557V35H256.093L236.797 11ZM270.618 35V0.919998H282.714C285.466 0.919998 287.866 1.368 289.914 2.264C291.994 3.16 293.722 4.376 295.098 5.912C296.506 7.448 297.562 9.256 298.266 11.336C298.97 13.384 299.322 15.576 299.322 17.912C299.322 20.504 298.922 22.856 298.122 24.968C297.354 27.048 296.25 28.84 294.81 30.344C293.37 31.816 291.626 32.968 289.578 33.8C287.53 34.6 285.242 35 282.714 35H270.618ZM293.85 17.912C293.85 16.12 293.594 14.472 293.082 12.968C292.602 11.464 291.882 10.184 290.922 9.128C289.962 8.04 288.794 7.192 287.418 6.584C286.042 5.976 284.474 5.672 282.714 5.672H275.994V30.248H282.714C284.506 30.248 286.09 29.944 287.466 29.336C288.874 28.696 290.042 27.832 290.97 26.744C291.93 25.624 292.65 24.312 293.13 22.808C293.61 21.304 293.85 19.672 293.85 17.912ZM327.538 8.936C327.218 8.584 326.754 8.216 326.146 7.832C325.538 7.416 324.818 7.032 323.986 6.68C323.186 6.328 322.29 6.04 321.298 5.816C320.338 5.592 319.346 5.48 318.322 5.48C316.05 5.48 314.37 5.896 313.282 6.728C312.226 7.56 311.698 8.712 311.698 10.184C311.698 11.016 311.858 11.704 312.178 12.248C312.53 12.76 313.058 13.224 313.762 13.64C314.466 14.024 315.346 14.376 316.402 14.696C317.458 14.984 318.69 15.304 320.098 15.656C321.826 16.072 323.378 16.536 324.754 17.048C326.162 17.56 327.346 18.184 328.306 18.92C329.266 19.656 330.002 20.568 330.514 21.656C331.058 22.712 331.33 24.008 331.33 25.544C331.33 27.272 330.994 28.76 330.322 30.008C329.682 31.256 328.786 32.28 327.634 33.08C326.514 33.848 325.202 34.424 323.698 34.808C322.194 35.16 320.578 35.336 318.85 35.336C316.258 35.336 313.746 34.952 311.314 34.184C308.914 33.384 306.738 32.232 304.786 30.728L307.234 26.12C307.65 26.536 308.242 27 309.01 27.512C309.81 28.024 310.722 28.504 311.746 28.952C312.802 29.368 313.938 29.736 315.154 30.056C316.37 30.344 317.634 30.488 318.946 30.488C321.058 30.488 322.69 30.12 323.842 29.384C324.994 28.648 325.57 27.56 325.57 26.12C325.57 25.256 325.346 24.536 324.898 23.96C324.482 23.384 323.874 22.888 323.074 22.472C322.274 22.024 321.298 21.624 320.146 21.272C318.994 20.92 317.682 20.552 316.21 20.168C314.514 19.72 313.026 19.256 311.746 18.776C310.498 18.264 309.458 17.656 308.626 16.952C307.794 16.248 307.154 15.432 306.706 14.504C306.29 13.544 306.082 12.392 306.082 11.048C306.082 9.384 306.402 7.912 307.042 6.632C307.682 5.32 308.546 4.232 309.634 3.368C310.754 2.472 312.066 1.8 313.57 1.352C315.074 0.903998 316.706 0.679998 318.466 0.679998C320.77 0.679998 322.898 1.048 324.85 1.784C326.802 2.52 328.514 3.432 329.986 4.52L327.538 8.936Z" fill="#EFF0F2"/>
</svg>
